<svg width="38" height="38" viewBox="0 0 38 38" xmlns="http://www.w3.org/2000/svg">
<path d="M19.0098 21.8001C18.0209 21.8001 17.0542 21.5068 16.2319 20.9574C15.4097 20.408 14.7688 19.6271 14.3904 18.7135C14.0119 17.7998 13.9129 16.7945 14.1058 15.8246C14.2988 14.8547 14.775 13.9638 15.4742 13.2645C16.1735 12.5653 17.0644 12.0891 18.0343 11.8961C19.0042 11.7032 20.0096 11.8022 20.9232 12.1807C21.8369 12.5591 22.6177 13.2 23.1671 14.0222C23.7165 14.8444 24.0098 15.8111 24.0098 16.8001C24.0098 18.1261 23.483 19.3979 22.5453 20.3356C21.6076 21.2733 20.3358 21.8001 19.0098 21.8001ZM19.0098 13.4001C18.331 13.4001 17.6674 13.6015 17.1032 13.9788C16.5389 14.3561 16.0993 14.8924 15.84 15.5198C15.5807 16.1471 15.5132 16.8373 15.6464 17.5029C15.7795 18.1685 16.1072 18.7797 16.5879 19.259C17.0686 19.7383 17.6808 20.0641 18.3468 20.1954C19.0128 20.3266 19.7028 20.2572 20.3293 19.9961C20.9559 19.7349 21.4909 19.2938 21.8666 18.7284C22.2423 18.163 22.4418 17.4989 22.4398 16.8201C22.4398 16.3701 22.351 15.9245 22.1785 15.509C22.006 15.0934 21.7532 14.7159 21.4346 14.3982C21.1159 14.0805 20.7377 13.8288 20.3217 13.6575C19.9056 13.4862 19.4597 13.3987 19.0098 13.4001Z"/>
<path d="M11.4405 30.3399C11.3246 30.3429 11.2095 30.3193 11.1042 30.271C10.9988 30.2226 10.9059 30.1509 10.8326 30.0611C10.7592 29.9714 10.7074 29.866 10.6811 29.7532C10.6547 29.6403 10.6545 29.5229 10.6805 29.4099C11.0727 27.4768 12.1152 25.7364 13.6346 24.4786C15.1539 23.2207 17.0583 22.5212 19.0307 22.4966C21.003 22.4721 22.9242 23.1239 24.4744 24.3436C26.0246 25.5633 27.1102 27.2772 27.5505 29.1999C27.5885 29.4028 27.5446 29.6125 27.4284 29.783C27.3122 29.9536 27.1332 30.0712 26.9305 30.1099C26.7373 30.1496 26.5361 30.1137 26.3687 30.0095C26.2012 29.9053 26.0802 29.7408 26.0304 29.5499C25.6652 27.9777 24.7735 26.5774 23.5035 25.5812C22.2334 24.585 20.6611 24.0527 19.047 24.0726C17.433 24.0924 15.8742 24.6632 14.6289 25.6903C13.3837 26.7174 12.5269 28.1392 12.2004 29.7199C12.1655 29.8955 12.0706 30.0535 11.9319 30.1666C11.7932 30.2798 11.6195 30.3411 11.4405 30.3399Z"/>
<path d="M19.01 33C16.8013 33.0016 14.6234 32.4805 12.6546 31.4794C10.6857 30.4783 8.98167 29.0255 7.68167 27.2398C6.38168 25.4541 5.52259 23.3862 5.17471 21.205C4.82684 19.0237 5.00005 16.7912 5.68009 14.6897C6.36012 12.5882 7.52777 10.6774 9.08756 9.11353C10.6473 7.54964 12.555 6.37699 14.6547 5.69143C16.7544 5.00587 18.9865 4.82684 21.1686 5.16898C23.3507 5.51111 25.4209 6.3647 27.21 7.66C27.3782 7.7569 27.5037 7.91378 27.5612 8.09921C27.6187 8.28463 27.604 8.48493 27.5201 8.66C27.4709 8.75004 27.4044 8.82951 27.3245 8.89384C27.2446 8.95817 27.1528 9.00611 27.0544 9.0349C26.9559 9.0637 26.8527 9.07279 26.7508 9.06165C26.6488 9.05051 26.5499 9.01937 26.46 8.97C26.402 8.93659 26.3484 8.8963 26.3001 8.85C23.7992 7.04921 20.7192 6.23994 17.6562 6.57876C14.5931 6.91758 11.7645 8.3804 9.71768 10.6842C7.67084 12.9881 6.5512 15.9692 6.57535 19.0508C6.5995 22.1325 7.76573 25.0957 9.84842 27.3672C11.9311 29.6387 14.7822 31.057 17.8503 31.3477C20.9183 31.6385 23.9851 30.7811 26.4574 28.9413C28.9298 27.1016 30.632 24.4102 31.2347 21.388C31.8373 18.3657 31.2976 15.2273 29.72 12.58C29.6195 12.3996 29.5947 12.1867 29.6509 11.988C29.7071 11.7893 29.8399 11.621 30.0201 11.52C30.1905 11.4326 30.3873 11.4118 30.5722 11.4617C30.7571 11.5116 30.9168 11.6287 31.0201 11.79C32.2836 13.9131 32.9628 16.3328 32.9887 18.8033C33.0146 21.2738 32.3863 23.7072 31.1675 25.8563C29.9487 28.0054 28.183 29.7937 26.0495 31.0396C23.916 32.2855 21.4907 32.9446 19.0201 32.95L19.01 33Z"/>
<path d="M28.9003 11.3599C28.7907 11.3604 28.6822 11.3374 28.5822 11.2926C28.4821 11.2477 28.3929 11.1821 28.3203 11.0999C28.1903 10.9499 28.0503 10.8099 27.9203 10.6699C27.775 10.5238 27.6934 10.326 27.6934 10.1199C27.6934 9.91382 27.775 9.71609 27.9203 9.56993C28.0664 9.4246 28.2641 9.34302 28.4702 9.34302C28.6763 9.34302 28.8741 9.4246 29.0203 9.56993C29.1803 9.72993 29.3202 9.88994 29.4702 10.0599C29.5718 10.1709 29.6388 10.3092 29.6627 10.4577C29.6866 10.6063 29.6664 10.7586 29.6047 10.8958C29.543 11.033 29.4425 11.1492 29.3156 11.2299C29.1886 11.3106 29.0407 11.3523 28.8903 11.3499L28.9003 11.3599Z"/>
</svg>
