<svg width="40" height="38" viewBox="0 0 40 38" fill="none" xmlns="http://www.w3.org/2000/svg">
<path d="M15.3762 29.27C15.943 29.2916 16.4908 29.4795 16.9516 29.8104C17.4124 30.1412 17.7657 30.6003 17.9674 31.1305C18.169 31.6607 18.2102 32.2385 18.0858 32.7919C17.9613 33.3453 17.6767 33.8499 17.2675 34.2427C16.8583 34.6355 16.3425 34.8993 15.7845 35.001C15.2265 35.1028 14.6509 35.0381 14.1294 34.8149C13.6078 34.5918 13.1635 34.2202 12.8518 33.7463C12.54 33.2724 12.3746 32.7172 12.3762 32.15C12.3827 31.7635 12.4655 31.3821 12.6201 31.0278C12.7746 30.6734 12.9977 30.3532 13.2766 30.0855C13.5554 29.8178 13.8845 29.6079 14.2448 29.4679C14.6052 29.328 14.9897 29.2607 15.3762 29.27ZM27.2362 29.27C27.803 29.2916 28.351 29.4795 28.8117 29.8104C29.2725 30.1412 29.6257 30.6003 29.8274 31.1305C30.029 31.6607 30.0702 32.2385 29.9458 32.7919C29.8213 33.3453 29.5367 33.8499 29.1275 34.2427C28.7183 34.6355 28.2025 34.8993 27.6445 35.001C27.0865 35.1028 26.5109 35.0381 25.9893 34.8149C25.4678 34.5918 25.0235 34.2202 24.7118 33.7463C24.4 33.2724 24.2346 32.7172 24.2362 32.15C24.2413 31.7631 24.3233 31.3811 24.4774 31.0261C24.6315 30.6712 24.8545 30.3504 25.1336 30.0824C25.4128 29.8145 25.7424 29.6047 26.1034 29.4652C26.4643 29.3257 26.8494 29.2594 27.2362 29.27ZM15.3762 31C15.1477 31.0059 14.9261 31.0792 14.7391 31.2107C14.5521 31.3421 14.4081 31.5258 14.3252 31.7388C14.2422 31.9518 14.2241 32.1846 14.273 32.4078C14.3219 32.6311 14.4357 32.8349 14.6001 32.9938C14.7644 33.1526 14.9721 33.2593 15.1969 33.3006C15.4217 33.3418 15.6536 33.3157 15.8636 33.2256C16.0736 33.1355 16.2524 32.9853 16.3774 32.7939C16.5024 32.6026 16.568 32.3785 16.5661 32.15C16.5688 31.993 16.5399 31.837 16.481 31.6914C16.4222 31.5458 16.3346 31.4136 16.2236 31.3025C16.1125 31.1915 15.9803 31.1039 15.8347 31.0451C15.6891 30.9862 15.5332 30.9573 15.3762 30.96V31ZM27.2362 31C27.0072 31.004 26.7845 31.0756 26.5961 31.2059C26.4078 31.3362 26.2624 31.5193 26.1779 31.7321C26.0935 31.945 26.074 32.1781 26.1218 32.402C26.1696 32.626 26.2826 32.8307 26.4466 32.9906C26.6106 33.1504 26.8182 33.2581 27.0433 33.3001C27.2684 33.3421 27.5009 33.3166 27.7115 33.2267C27.9221 33.1368 28.1014 32.9866 28.2268 32.795C28.3522 32.6034 28.418 32.379 28.4161 32.15C28.4188 31.9938 28.3902 31.8387 28.332 31.6938C28.2738 31.5489 28.1871 31.417 28.0771 31.3061C27.9671 31.1952 27.836 31.1075 27.6916 31.048C27.5472 30.9886 27.3923 30.9586 27.2362 30.96V31ZM2.34615 7H6.45613C6.62789 7.00076 6.79581 7.05121 6.93953 7.14525C7.08326 7.2393 7.19672 7.37292 7.26619 7.53V7.6L12.9962 24.9H30.0661L33.4962 14.51H14.7161C14.5002 14.4991 14.2962 14.4081 14.1436 14.2549C13.9911 14.1017 13.9011 13.8973 13.8911 13.6813C13.8811 13.4654 13.9518 13.2534 14.0896 13.0868C14.2273 12.9202 14.4222 12.8108 14.6362 12.78H34.7161C34.8477 12.7787 34.9779 12.8069 35.0971 12.8626C35.2163 12.9183 35.3215 13 35.405 13.1017C35.4885 13.2034 35.5481 13.3225 35.5794 13.4503C35.6108 13.578 35.6131 13.7112 35.5861 13.84V13.92L31.5861 26.04C31.5291 26.2035 31.4261 26.347 31.2895 26.4535C31.1529 26.5599 30.9886 26.6247 30.8161 26.64H12.4561C12.2827 26.6412 12.1127 26.5916 11.967 26.4975C11.8213 26.4033 11.7063 26.2686 11.6362 26.11V26.04L5.90609 8.74H2.40609C2.178 8.75194 1.95459 8.67277 1.78487 8.51993C1.61515 8.36709 1.51311 8.15309 1.50118 7.925C1.48924 7.69691 1.56831 7.47343 1.72115 7.30371C1.87399 7.13399 2.08803 7.03194 2.31612 7.02L2.34615 7Z" fill="#FE4C40"/>
<line x1="11.157" y1="13.6484" x2="12.259" y2="13.6514" stroke="#FE4C40" stroke-width="1.7" stroke-linecap="round" stroke-linejoin="round"/>
<circle cx="29.5" cy="11" r="10" fill="#FE4C40"/>
<path d="M29.5 5.75V16.25" stroke="white" stroke-width="1.7" stroke-linecap="round" stroke-linejoin="round"/>
<path d="M24.25 11H34.75" stroke="white" stroke-width="1.7" stroke-linecap="round" stroke-linejoin="round"/>
</svg>
