<svg width="38" height="38" viewBox="0 0 38 38" fill="none" xmlns="http://www.w3.org/2000/svg">
<path d="M15.8762 27.27C16.443 27.2916 16.9908 27.4795 17.4516 27.8104C17.9124 28.1412 18.2657 28.6003 18.4674 29.1305C18.669 29.6607 18.7102 30.2385 18.5858 30.7919C18.4613 31.3453 18.1767 31.8499 17.7675 32.2427C17.3583 32.6355 16.8425 32.8993 16.2845 33.001C15.7265 33.1028 15.1509 33.0381 14.6294 32.8149C14.1078 32.5918 13.6635 32.2202 13.3518 31.7463C13.04 31.2724 12.8746 30.7172 12.8762 30.15C12.8827 29.7635 12.9655 29.3821 13.1201 29.0278C13.2746 28.6734 13.4977 28.3532 13.7766 28.0855C14.0554 27.8178 14.3845 27.6079 14.7448 27.4679C15.1052 27.328 15.4897 27.2607 15.8762 27.27ZM27.7362 27.27C28.303 27.2916 28.851 27.4795 29.3117 27.8104C29.7725 28.1412 30.1257 28.6003 30.3274 29.1305C30.529 29.6607 30.5702 30.2385 30.4458 30.7919C30.3213 31.3453 30.0367 31.8499 29.6275 32.2427C29.2183 32.6355 28.7025 32.8993 28.1445 33.001C27.5865 33.1028 27.0109 33.0381 26.4893 32.8149C25.9678 32.5918 25.5235 32.2202 25.2118 31.7463C24.9 31.2724 24.7346 30.7172 24.7362 30.15C24.7413 29.7631 24.8233 29.3811 24.9774 29.0261C25.1315 28.6712 25.3545 28.3504 25.6336 28.0824C25.9128 27.8145 26.2424 27.6047 26.6034 27.4652C26.9643 27.3257 27.3494 27.2594 27.7362 27.27ZM15.8762 29C15.6477 29.0059 15.4261 29.0792 15.2391 29.2107C15.0521 29.3421 14.9081 29.5258 14.8252 29.7388C14.7422 29.9518 14.7241 30.1846 14.773 30.4078C14.8219 30.6311 14.9357 30.8349 15.1001 30.9938C15.2644 31.1526 15.4721 31.2593 15.6969 31.3006C15.9217 31.3418 16.1536 31.3157 16.3636 31.2256C16.5736 31.1355 16.7524 30.9853 16.8774 30.7939C17.0024 30.6026 17.068 30.3785 17.0661 30.15C17.0688 29.993 17.0399 29.837 16.981 29.6914C16.9222 29.5458 16.8346 29.4136 16.7236 29.3025C16.6125 29.1915 16.4803 29.1039 16.3347 29.0451C16.1891 28.9862 16.0332 28.9573 15.8762 28.96V29ZM27.7362 29C27.5072 29.004 27.2845 29.0756 27.0961 29.2059C26.9078 29.3362 26.7624 29.5193 26.6779 29.7321C26.5935 29.945 26.574 30.1781 26.6218 30.402C26.6696 30.626 26.7826 30.8307 26.9466 30.9906C27.1106 31.1504 27.3182 31.2581 27.5433 31.3001C27.7684 31.3421 28.0009 31.3166 28.2115 31.2267C28.4221 31.1368 28.6014 30.9866 28.7268 30.795C28.8522 30.6034 28.918 30.379 28.9161 30.15C28.9188 29.9938 28.8902 29.8387 28.832 29.6938C28.7738 29.5489 28.6871 29.417 28.5771 29.3061C28.4671 29.1952 28.336 29.1075 28.1916 29.048C28.0472 28.9886 27.8923 28.9586 27.7362 28.96V29ZM2.84615 5H6.95613C7.12789 5.00076 7.29581 5.05121 7.43953 5.14525C7.58326 5.2393 7.69672 5.37292 7.76619 5.53V5.6L13.4962 22.9H30.5661L33.9962 12.51H15.2161C15.0002 12.4991 14.7962 12.4081 14.6436 12.2549C14.4911 12.1017 14.4011 11.8973 14.3911 11.6813C14.3811 11.4654 14.4518 11.2534 14.5896 11.0868C14.7273 10.9202 14.9222 10.8108 15.1362 10.78H35.2161C35.3477 10.7787 35.4779 10.8069 35.5971 10.8626C35.7163 10.9183 35.8215 11 35.905 11.1017C35.9885 11.2034 36.0481 11.3225 36.0794 11.4503C36.1108 11.578 36.1131 11.7112 36.0861 11.84V11.92L32.0861 24.04C32.0291 24.2035 31.9261 24.347 31.7895 24.4535C31.6529 24.5599 31.4886 24.6247 31.3161 24.64H12.9561C12.7827 24.6412 12.6127 24.5916 12.467 24.4975C12.3213 24.4033 12.2063 24.2686 12.1362 24.11V24.04L6.40609 6.74H2.90609C2.678 6.75194 2.45459 6.67277 2.28487 6.51993C2.11515 6.36709 2.01311 6.15309 2.00118 5.925C1.98924 5.69691 2.06831 5.47343 2.22115 5.30371C2.37399 5.13399 2.58803 5.03194 2.81612 5.02L2.84615 5Z" />
<line x1="11.657" y1="11.6484" x2="12.759" y2="11.6514" stroke="white" stroke-width="1.7" stroke-linecap="round" stroke-linejoin="round"/>
</svg>
