<svg width="20" height="21" viewBox="0 0 20 21" fill="none" xmlns="http://www.w3.org/2000/svg">
<path fill-rule="evenodd" clip-rule="evenodd" d="M5.5 0.850006C5.99706 0.850006 6.4 1.25295 6.4 1.75001V3.00001H13.6V1.75001C13.6 1.25295 14.0029 0.850006 14.5 0.850006C14.9971 0.850006 15.4 1.25295 15.4 1.75001V3.00001H16C18.2091 3.00001 20 4.79087 20 7.00001V17C20 19.2091 18.2091 21 16 21H4C1.79086 21 0 19.2091 0 17V7.00001C0 4.79087 1.79086 3.00001 4 3.00001H4.6V1.75001C4.6 1.25295 5.00294 0.850006 5.5 0.850006ZM2 17V8.00001H18V17C18 18.1046 17.1046 19 16 19H4C2.89543 19 2 18.1046 2 17ZM9.37234 17V15.68H6.36234L7.97234 14.16C8.43234 13.7333 8.74234 13.3533 8.90234 13.02C9.06234 12.6867 9.14234 12.33 9.14234 11.95C9.14234 11.53 9.03234 11.1667 8.81234 10.86C8.59901 10.5467 8.29568 10.3067 7.90234 10.14C7.51568 9.96667 7.06234 9.88001 6.54234 9.88001C5.92234 9.88001 5.37234 9.99667 4.89234 10.23C4.41234 10.4567 4.03568 10.7733 3.76234 11.18L4.94234 11.94C5.10901 11.7067 5.31568 11.5333 5.56234 11.42C5.80901 11.3 6.08568 11.24 6.39234 11.24C6.75901 11.24 7.03568 11.3167 7.22234 11.47C7.41568 11.6167 7.51234 11.83 7.51234 12.11C7.51234 12.3033 7.46234 12.5 7.36234 12.7C7.26234 12.8933 7.06901 13.1267 6.78234 13.4L4.08234 15.95V17H9.37234ZM15.0131 15.53H16.1531V14.21H15.0131V12.9H13.4831V14.21H11.6031L14.6631 10H12.9631L9.66313 14.44V15.53H13.4331V17H15.0131V15.53Z" fill="#00CAFD"/>
</svg>
