<svg width="50" height="50" viewBox="0 0 50 50" fill="none" xmlns="http://www.w3.org/2000/svg">
<path d="M25 50C38.8071 50 50 38.8071 50 25C50 11.1929 38.8071 0 25 0C11.1929 0 0 11.1929 0 25C0 38.8071 11.1929 50 25 50Z" fill="#FE4C40"/>
<path d="M37.0001 31.95C36.9856 32.3549 36.9286 32.7571 36.83 33.15C36.7511 33.5515 36.6304 33.9436 36.4701 34.32C35.9791 35.1227 35.2529 35.7547 34.3901 36.13C33.4237 36.6827 32.3332 36.982 31.2201 37C30.9224 37.0006 30.625 36.9806 30.33 36.94C29.9913 36.8938 29.6569 36.8202 29.33 36.72L28.5201 36.48L27.5201 36.13L26.69 35.82C25.6437 35.4556 24.6383 34.9831 23.69 34.41C22.0537 33.356 20.541 32.1216 19.1801 30.73C17.7868 29.3735 16.5552 27.86 15.5101 26.22C14.9323 25.2743 14.4595 24.2684 14.1001 23.22L13.7901 22.39C13.6201 21.93 13.5 21.62 13.44 21.39C13.38 21.16 13.3 20.94 13.19 20.58C13.0976 20.2518 13.0275 19.9177 12.9801 19.58C12.7843 18.1709 13.0697 16.7369 13.7901 15.51C14.1688 14.6493 14.7999 13.9239 15.6001 13.43C15.9757 13.2795 16.3639 13.1624 16.7601 13.08C17.1556 12.9771 17.5615 12.92 17.9701 12.91C18.0854 12.8855 18.2047 12.8855 18.32 12.91C18.53 12.98 18.8301 13.41 19.2301 14.2L19.7401 15.12C19.9501 15.52 20.15 15.88 20.33 16.21L20.8601 17.12C20.8601 17.12 21.0001 17.31 21.1601 17.54C21.3008 17.7323 21.4246 17.9364 21.5301 18.15C21.606 18.2988 21.6471 18.463 21.6501 18.63C21.5969 18.9668 21.4227 19.2726 21.1601 19.49C20.8377 19.8336 20.4827 20.1451 20.1001 20.42C19.7473 20.7013 19.4133 21.0053 19.1001 21.33C18.8463 21.5209 18.6718 21.7986 18.6101 22.11C18.6174 22.2442 18.6479 22.3762 18.7 22.5C18.7366 22.6173 18.7834 22.7311 18.84 22.84C18.84 22.92 18.96 23.06 19.08 23.25L19.2801 23.58C20.0882 25.0471 21.098 26.3935 22.2801 27.58C23.4648 28.7643 24.8115 29.7743 26.2801 30.58L26.6001 30.78L27.0101 31.01L27.3601 31.16C27.4803 31.2113 27.6094 31.2385 27.7401 31.24C28.0533 31.1822 28.3345 31.0114 28.5301 30.76C28.8537 30.4274 29.1544 30.0733 29.4301 29.7C29.7166 29.3238 30.0308 28.9694 30.3701 28.64C30.5872 28.3839 30.8886 28.2137 31.2201 28.16C31.3903 28.1629 31.5577 28.2039 31.71 28.28C31.917 28.388 32.1175 28.5082 32.3101 28.64L32.7401 28.94L33.6501 29.47L34.7301 30.07C35.1301 30.28 35.4401 30.45 35.6501 30.58C36.4501 30.98 36.88 31.28 36.95 31.48C36.9706 31.5992 36.9706 31.7209 36.95 31.84L37.0001 31.95Z" fill="white"/>
</svg>
