<svg width="295" height="295" viewBox="0 0 295 295" fill="none" xmlns="http://www.w3.org/2000/svg">
<g opacity="0.7" clip-path="url(#clip0)">
<path d="M1.04868 138.82C0.0698587 137.841 0.0732272 136.251 1.0562 135.268C2.03918 134.285 3.62953 134.282 4.60836 135.26C5.58718 136.239 5.58381 137.83 4.60083 138.813C3.61786 139.796 2.0275 139.799 1.04868 138.82Z" fill="#EEF1F7"/>
<path d="M12.1717 127.696C11.1929 126.717 11.1963 125.127 12.1792 124.144C13.1622 123.161 14.7526 123.158 15.7314 124.136C16.7102 125.115 16.7069 126.706 15.7239 127.689C14.7409 128.672 13.1506 128.675 12.1717 127.696Z" fill="#EEF1F7"/>
<path d="M23.2958 116.572C22.3169 115.593 22.3203 114.003 23.3033 113.02C24.2863 112.037 25.8766 112.034 26.8554 113.012C27.8343 113.991 27.8309 115.582 26.8479 116.565C25.8649 117.548 24.2746 117.551 23.2958 116.572Z" fill="#EEF1F7"/>
<path d="M34.4198 105.448C33.441 104.469 33.4443 102.879 34.4273 101.896C35.4103 100.913 37.0006 100.91 37.9794 101.888C38.9583 102.867 38.9549 104.458 37.9719 105.441C36.9889 106.424 35.3986 106.427 34.4198 105.448Z" fill="#EEF1F7"/>
<path d="M45.5438 94.3242C44.565 93.3454 44.5683 91.7551 45.5513 90.7721C46.5343 89.7891 48.1247 89.7857 49.1035 90.7646C50.0823 91.7434 50.0789 93.3337 49.096 94.3167C48.113 95.2997 46.5226 95.3031 45.5438 94.3242Z" fill="#EEF1F7"/>
<path d="M56.6678 83.2001C55.689 82.2213 55.6924 80.6309 56.6753 79.648C57.6583 78.665 59.2487 78.6616 60.2275 79.6404C61.2063 80.6193 61.203 82.2096 60.22 83.1926C59.237 84.1756 57.6466 84.1789 56.6678 83.2001Z" fill="#EEF1F7"/>
<path d="M67.7918 72.0762C66.813 71.0974 66.8164 69.507 67.7994 68.524C68.7823 67.5411 70.3727 67.5377 71.3515 68.5165C72.3303 69.4954 72.327 71.0857 71.344 72.0687C70.361 73.0516 68.7707 73.055 67.7918 72.0762Z" fill="#EEF1F7"/>
<path d="M78.9159 60.9523C77.937 59.9735 77.9404 58.3831 78.9234 57.4001C79.9064 56.4172 81.4967 56.4138 82.4755 57.3926C83.4544 58.3714 83.451 59.9618 82.468 60.9448C81.485 61.9277 79.8947 61.9311 78.9159 60.9523Z" fill="#EEF1F7"/>
<path d="M90.0399 49.8282C89.0611 48.8494 89.0644 47.259 90.0474 46.276C91.0304 45.2931 92.6207 45.2897 93.5996 46.2685C94.5784 47.2473 94.575 48.8377 93.592 49.8207C92.6091 50.8036 91.0187 50.807 90.0399 49.8282Z" fill="#EEF1F7"/>
<path d="M101.164 38.7043C100.185 37.7254 100.188 36.1351 101.171 35.1521C102.154 34.1691 103.745 34.1658 104.724 35.1446C105.702 36.1234 105.699 37.7138 104.716 38.6967C103.733 39.6797 102.143 39.6831 101.164 38.7043Z" fill="#EEF1F7"/>
<path d="M112.288 27.5803C111.309 26.6015 111.312 25.0112 112.295 24.0282C113.278 23.0452 114.869 23.0419 115.848 24.0207C116.826 24.9995 116.823 26.5899 115.84 27.5728C114.857 28.5558 113.267 28.5592 112.288 27.5803Z" fill="#EEF1F7"/>
<path d="M123.412 16.4562C122.433 15.4774 122.437 13.8871 123.419 12.9041C124.402 11.9211 125.993 11.9177 126.972 12.8966C127.95 13.8754 127.947 15.4657 126.964 16.4487C125.981 17.4317 124.391 17.4351 123.412 16.4562Z" fill="#EEF1F7"/>
<path d="M134.536 5.33231C133.557 4.35349 133.561 2.76314 134.544 1.78016C135.526 0.797191 137.117 0.793826 138.096 1.77265C139.074 2.75147 139.071 4.34182 138.088 5.32479C137.105 6.30777 135.515 6.31113 134.536 5.33231Z" fill="#EEF1F7"/>
<path d="M12.1249 149.897C11.146 148.918 11.1494 147.328 12.1324 146.345C13.1154 145.362 14.7057 145.359 15.6845 146.337C16.6634 147.316 16.66 148.907 15.677 149.89C14.694 150.873 13.1037 150.876 12.1249 149.897Z" fill="#EEF1F7"/>
<path d="M23.2489 138.773C22.2701 137.794 22.2734 136.204 23.2564 135.221C24.2394 134.238 25.8297 134.235 26.8086 135.213C27.7874 136.192 27.784 137.783 26.801 138.766C25.818 139.749 24.2277 139.752 23.2489 138.773Z" fill="#EEF1F7"/>
<path d="M34.3729 127.649C33.3941 126.67 33.3974 125.08 34.3804 124.097C35.3634 123.114 36.9537 123.111 37.9326 124.089C38.9114 125.068 38.908 126.659 37.925 127.642C36.9421 128.624 35.3517 128.628 34.3729 127.649Z" fill="#EEF1F7"/>
<path d="M45.4969 116.525C44.5181 115.546 44.5215 113.956 45.5044 112.973C46.4874 111.99 48.0778 111.987 49.0566 112.965C50.0354 113.944 50.032 115.535 49.0491 116.518C48.0661 117.501 46.4757 117.504 45.4969 116.525Z" fill="#EEF1F7"/>
<path d="M56.6209 105.401C55.6421 104.422 55.6455 102.832 56.6285 101.849C57.6114 100.866 59.2018 100.863 60.1806 101.842C61.1594 102.82 61.1561 104.411 60.1731 105.394C59.1901 106.377 57.5998 106.38 56.6209 105.401Z" fill="#EEF1F7"/>
<path d="M67.745 94.2771C66.7661 93.2983 66.7695 91.7079 67.7525 90.7249C68.7355 89.742 70.3258 89.7386 71.3046 90.7174C72.2835 91.6962 72.2801 93.2866 71.2971 94.2696C70.3141 95.2525 68.7238 95.2559 67.745 94.2771Z" fill="#EEF1F7"/>
<path d="M78.869 83.1532C77.8902 82.1743 77.8935 80.584 78.8765 79.601C79.8595 78.618 81.4498 78.6147 82.4287 79.5935C83.4075 80.5723 83.4041 82.1627 82.4211 83.1456C81.4382 84.1286 79.8478 84.132 78.869 83.1532Z" fill="#EEF1F7"/>
<path d="M89.992 72.0292C89.0132 71.0504 89.0166 69.4601 89.9996 68.4771C90.9825 67.4941 92.5729 67.4908 93.5517 68.4696C94.5305 69.4484 94.5272 71.0387 93.5442 72.0217C92.5612 73.0047 90.9709 73.0081 89.992 72.0292Z" fill="#EEF1F7"/>
<path d="M101.117 60.9051C100.138 59.9263 100.142 58.336 101.125 57.353C102.108 56.37 103.698 56.3667 104.677 57.3455C105.656 58.3243 105.652 59.9147 104.669 60.8976C103.686 61.8806 102.096 61.884 101.117 60.9051Z" fill="#EEF1F7"/>
<path d="M112.241 49.7812C111.262 48.8024 111.266 47.2121 112.249 46.2291C113.232 45.2461 114.822 45.2427 115.801 46.2215C116.78 47.2004 116.776 48.7907 115.793 49.7737C114.81 50.7567 113.22 50.7601 112.241 49.7812Z" fill="#EEF1F7"/>
<path d="M123.364 38.6573C122.385 37.6785 122.389 36.0881 123.372 35.1052C124.355 34.1222 125.945 34.1188 126.924 35.0976C127.903 36.0765 127.899 37.6668 126.916 38.6498C125.933 39.6328 124.343 39.6361 123.364 38.6573Z" fill="#EEF1F7"/>
<path d="M134.489 27.5332C133.51 26.5544 133.514 24.964 134.497 23.9811C135.48 22.9981 137.07 22.9947 138.049 23.9735C139.028 24.9523 139.024 26.5427 138.041 27.5257C137.058 28.5087 135.468 28.512 134.489 27.5332Z" fill="#EEF1F7"/>
<path d="M145.613 16.4093C144.634 15.4305 144.638 13.8401 145.621 12.8571C146.604 11.8742 148.194 11.8708 149.173 12.8496C150.152 13.8284 150.148 15.4188 149.165 16.4018C148.182 17.3847 146.592 17.3881 145.613 16.4093Z" fill="#EEF1F7"/>
<path d="M156.737 5.28534C155.758 4.30652 155.762 2.71618 156.745 1.73321C157.728 0.750236 159.318 0.746874 160.297 1.7257C161.276 2.70452 161.272 4.29486 160.289 5.27783C159.306 6.2608 157.716 6.26417 156.737 5.28534Z" fill="#EEF1F7"/>
<path d="M23.202 160.974C22.2232 159.995 22.2265 158.405 23.2095 157.422C24.1925 156.439 25.7829 156.436 26.7617 157.414C27.7405 158.393 27.7371 159.984 26.7542 160.966C25.7712 161.949 24.1808 161.953 23.202 160.974Z" fill="#EEF1F7"/>
<path d="M34.326 149.85C33.3472 148.871 33.3506 147.281 34.3335 146.298C35.3165 145.315 36.9069 145.312 37.8857 146.29C38.8645 147.269 38.8612 148.86 37.8782 149.843C36.8952 150.826 35.3048 150.829 34.326 149.85Z" fill="#EEF1F7"/>
<path d="M45.45 138.726C44.4712 137.747 44.4746 136.157 45.4576 135.174C46.4405 134.191 48.0309 134.187 49.0097 135.166C49.9885 136.145 49.9852 137.735 49.0022 138.718C48.0192 139.701 46.4289 139.705 45.45 138.726Z" fill="#EEF1F7"/>
<path d="M56.5741 127.602C55.5952 126.623 55.5986 125.033 56.5816 124.05C57.5646 123.067 59.1549 123.064 60.1337 124.042C61.1126 125.021 61.1092 126.612 60.1262 127.595C59.1432 128.578 57.5529 128.581 56.5741 127.602Z" fill="#EEF1F7"/>
<path d="M67.6981 116.478C66.7193 115.499 66.7226 113.909 67.7056 112.926C68.6886 111.943 70.2789 111.94 71.2578 112.918C72.2366 113.897 72.2332 115.488 71.2502 116.471C70.2673 117.454 68.6769 117.457 67.6981 116.478Z" fill="#EEF1F7"/>
<path d="M78.8221 105.354C77.8433 104.375 77.8467 102.785 78.8296 101.802C79.8126 100.819 81.403 100.816 82.3818 101.794C83.3606 102.773 83.3572 104.364 82.3743 105.347C81.3913 106.33 79.8009 106.333 78.8221 105.354Z" fill="#EEF1F7"/>
<path d="M89.9461 94.2301C88.9673 93.2513 88.9707 91.661 89.9537 90.678C90.9366 89.695 92.527 89.6916 93.5058 90.6705C94.4846 91.6493 94.4813 93.2396 93.4983 94.2226C92.5153 95.2056 90.925 95.2089 89.9461 94.2301Z" fill="#EEF1F7"/>
<path d="M101.07 83.1062C100.091 82.1274 100.095 80.537 101.078 79.5541C102.061 78.5711 103.651 78.5677 104.63 79.5465C105.609 80.5254 105.605 82.1157 104.622 83.0987C103.639 84.0817 102.049 84.085 101.07 83.1062Z" fill="#EEF1F7"/>
<path d="M112.193 71.9821C111.214 71.0033 111.218 69.4129 112.201 68.43C113.184 67.447 114.774 67.4436 115.753 68.4225C116.732 69.4013 116.728 70.9916 115.745 71.9746C114.762 72.9576 113.172 72.9609 112.193 71.9821Z" fill="#EEF1F7"/>
<path d="M123.317 60.8582C122.338 59.8794 122.342 58.289 123.325 57.306C124.308 56.3231 125.898 56.3197 126.877 57.2985C127.856 58.2773 127.852 59.8677 126.869 60.8507C125.886 61.8336 124.296 61.837 123.317 60.8582Z" fill="#EEF1F7"/>
<path d="M134.441 49.7343C133.462 48.7555 133.466 47.1651 134.449 46.1821C135.432 45.1992 137.022 45.1958 138.001 46.1746C138.98 47.1534 138.976 48.7438 137.993 49.7268C137.01 50.7097 135.42 50.7131 134.441 49.7343Z" fill="#EEF1F7"/>
<path d="M145.565 38.6102C144.586 37.6314 144.59 36.041 145.573 35.058C146.556 34.075 148.146 34.0717 149.125 35.0505C150.104 36.0293 150.1 37.6197 149.117 38.6026C148.134 39.5856 146.544 39.589 145.565 38.6102Z" fill="#EEF1F7"/>
<path d="M156.689 27.4863C155.71 26.5074 155.714 24.9171 156.697 23.9341C157.68 22.9511 159.27 22.9478 160.249 23.9266C161.228 24.9054 161.224 26.4957 160.241 27.4787C159.258 28.4617 157.668 28.4651 156.689 27.4863Z" fill="#EEF1F7"/>
<path d="M167.813 16.3623C166.835 15.3835 166.838 13.7931 167.821 12.8102C168.804 11.8272 170.394 11.8238 171.373 12.8027C172.352 13.7815 172.348 15.3718 171.365 16.3548C170.382 17.3378 168.792 17.3411 167.813 16.3623Z" fill="#EEF1F7"/>
<path d="M178.937 5.23823C177.959 4.25941 177.962 2.66905 178.945 1.68608C179.928 0.703096 181.518 0.699726 182.497 1.67855C183.476 2.65737 183.472 4.24772 182.49 5.2307C181.507 6.21368 179.916 6.21705 178.937 5.23823Z" fill="#EEF1F7"/>
<path d="M34.2791 172.051C33.3003 171.072 33.3037 169.482 34.2867 168.499C35.2697 167.516 36.86 167.512 37.8388 168.491C38.8176 169.47 38.8143 171.06 37.8313 172.043C36.8483 173.026 35.258 173.03 34.2791 172.051Z" fill="#EEF1F7"/>
<path d="M45.4032 160.927C44.4244 159.948 44.4277 158.358 45.4107 157.375C46.3937 156.392 47.984 156.389 48.9628 157.367C49.9417 158.346 49.9383 159.937 48.9553 160.92C47.9723 161.903 46.382 161.906 45.4032 160.927Z" fill="#EEF1F7"/>
<path d="M56.5272 149.803C55.5484 148.824 55.5517 147.234 56.5347 146.251C57.5177 145.268 59.108 145.264 60.0869 146.243C61.0657 147.222 61.0623 148.812 60.0793 149.795C59.0964 150.778 57.506 150.782 56.5272 149.803Z" fill="#EEF1F7"/>
<path d="M67.6502 138.679C66.6714 137.7 66.6748 136.11 67.6578 135.127C68.6407 134.144 70.2311 134.141 71.2099 135.119C72.1887 136.098 72.1854 137.689 71.2024 138.672C70.2194 139.654 68.6291 139.658 67.6502 138.679Z" fill="#EEF1F7"/>
<path d="M78.7743 127.555C77.7954 126.576 77.7988 124.986 78.7818 124.003C79.7648 123.02 81.3551 123.017 82.3339 123.995C83.3128 124.974 83.3094 126.565 82.3264 127.548C81.3434 128.531 79.7531 128.534 78.7743 127.555Z" fill="#EEF1F7"/>
<path d="M89.8993 116.431C88.9204 115.452 88.9238 113.862 89.9068 112.879C90.8898 111.896 92.4801 111.893 93.4589 112.871C94.4378 113.85 94.4344 115.441 93.4514 116.423C92.4684 117.406 90.8781 117.41 89.8993 116.431Z" fill="#EEF1F7"/>
<path d="M101.022 105.307C100.043 104.328 100.047 102.738 101.03 101.755C102.013 100.772 103.603 100.769 104.582 101.747C105.561 102.726 105.557 104.317 104.574 105.3C103.591 106.283 102.001 106.286 101.022 105.307Z" fill="#EEF1F7"/>
<path d="M112.146 94.1832C111.168 93.2043 111.171 91.614 112.154 90.631C113.137 89.648 114.727 89.6447 115.706 90.6235C116.685 91.6023 116.681 93.1927 115.698 94.1756C114.716 95.1586 113.125 95.162 112.146 94.1832Z" fill="#EEF1F7"/>
<path d="M123.27 83.0591C122.292 82.0803 122.295 80.4899 123.278 79.5069C124.261 78.524 125.851 78.5206 126.83 79.4994C127.809 80.4782 127.805 82.0686 126.822 83.0516C125.84 84.0345 124.249 84.0379 123.27 83.0591Z" fill="#EEF1F7"/>
<path d="M134.394 71.9352C133.416 70.9563 133.419 69.366 134.402 68.383C135.385 67.4 136.975 67.3967 137.954 68.3755C138.933 69.3543 138.93 70.9446 137.947 71.9276C136.964 72.9106 135.373 72.914 134.394 71.9352Z" fill="#EEF1F7"/>
<path d="M145.518 60.8112C144.54 59.8324 144.543 58.2421 145.526 57.2591C146.509 56.2761 148.099 56.2728 149.078 57.2516C150.057 58.2304 150.054 59.8207 149.071 60.8037C148.088 61.7867 146.497 61.7901 145.518 60.8112Z" fill="#EEF1F7"/>
<path d="M156.642 49.6871C155.664 48.7083 155.667 47.118 156.65 46.135C157.633 45.152 159.223 45.1486 160.202 46.1275C161.181 47.1063 161.178 48.6966 160.195 49.6796C159.212 50.6626 157.621 50.666 156.642 49.6871Z" fill="#EEF1F7"/>
<path d="M167.766 38.5632C166.788 37.5844 166.791 35.994 167.774 35.0111C168.757 34.0281 170.347 34.0247 171.326 35.0035C172.305 35.9824 172.302 37.5727 171.319 38.5557C170.336 39.5387 168.745 39.542 167.766 38.5632Z" fill="#EEF1F7"/>
<path d="M178.89 27.4393C177.912 26.4605 177.915 24.8701 178.898 23.8871C179.881 22.9042 181.471 22.9008 182.45 23.8796C183.429 24.8584 183.426 26.4488 182.443 27.4318C181.46 28.4147 179.869 28.4181 178.89 27.4393Z" fill="#EEF1F7"/>
<path d="M190.014 16.3152C189.036 15.3364 189.039 13.746 190.022 12.763C191.005 11.7801 192.595 11.7767 193.574 12.7555C194.553 13.7343 194.55 15.3247 193.567 16.3077C192.584 17.2906 190.993 17.294 190.014 16.3152Z" fill="#EEF1F7"/>
<path d="M45.3563 183.128C44.3775 182.149 44.3808 180.559 45.3638 179.576C46.3468 178.593 47.9372 178.589 48.916 179.568C49.8948 180.547 49.8914 182.137 48.9085 183.12C47.9255 184.103 46.3351 184.107 45.3563 183.128Z" fill="#EEF1F7"/>
<path d="M56.4793 172.004C55.5005 171.025 55.5039 169.435 56.4869 168.452C57.4698 167.469 59.0602 167.466 60.039 168.444C61.0178 169.423 61.0145 171.014 60.0315 171.997C59.0485 172.979 57.4582 172.983 56.4793 172.004Z" fill="#EEF1F7"/>
<path d="M67.6034 160.88C66.6245 159.901 66.6279 158.311 67.6109 157.328C68.5939 156.345 70.1842 156.341 71.163 157.32C72.1419 158.299 72.1385 159.889 71.1555 160.872C70.1725 161.855 68.5822 161.859 67.6034 160.88Z" fill="#EEF1F7"/>
<path d="M78.7274 149.756C77.7486 148.777 77.7519 147.187 78.7349 146.204C79.7179 145.221 81.3082 145.218 82.2871 146.196C83.2659 147.175 83.2625 148.766 82.2795 149.748C81.2966 150.731 79.7062 150.735 78.7274 149.756Z" fill="#EEF1F7"/>
<path d="M89.8514 138.632C88.8726 137.653 88.876 136.063 89.8589 135.08C90.8419 134.097 92.4323 134.094 93.4111 135.072C94.3899 136.051 94.3865 137.642 93.4036 138.625C92.4206 139.608 90.8302 139.611 89.8514 138.632Z" fill="#EEF1F7"/>
<path d="M100.975 127.508C99.9966 126.529 100 124.939 100.983 123.956C101.966 122.973 103.556 122.969 104.535 123.948C105.514 124.927 105.511 126.517 104.528 127.5C103.545 128.483 101.954 128.487 100.975 127.508Z" fill="#EEF1F7"/>
<path d="M112.099 116.384C111.121 115.405 111.124 113.815 112.107 112.832C113.09 111.849 114.68 111.846 115.659 112.824C116.638 113.803 116.635 115.394 115.652 116.377C114.669 117.36 113.078 117.363 112.099 116.384Z" fill="#EEF1F7"/>
<path d="M123.223 105.26C122.245 104.281 122.248 102.691 123.231 101.708C124.214 100.725 125.804 100.722 126.783 101.7C127.762 102.679 127.759 104.27 126.776 105.253C125.793 106.236 124.202 106.239 123.223 105.26Z" fill="#EEF1F7"/>
<path d="M134.348 94.136C133.369 93.1572 133.372 91.5669 134.355 90.5839C135.338 89.6009 136.928 89.5976 137.907 90.5764C138.886 91.5552 138.883 93.1456 137.9 94.1285C136.917 95.1115 135.326 95.1149 134.348 94.136Z" fill="#EEF1F7"/>
<path d="M145.472 83.0121C144.493 82.0333 144.496 80.4429 145.479 79.46C146.462 78.477 148.052 78.4736 149.031 79.4524C150.01 80.4313 150.007 82.0216 149.024 83.0046C148.041 83.9876 146.45 83.9909 145.472 83.0121Z" fill="#EEF1F7"/>
<path d="M156.596 71.8882C155.617 70.9094 155.62 69.319 156.603 68.3361C157.586 67.3531 159.176 67.3497 160.155 68.3285C161.134 69.3074 161.131 70.8977 160.148 71.8807C159.165 72.8637 157.574 72.867 156.596 71.8882Z" fill="#EEF1F7"/>
<path d="M167.72 60.7641C166.741 59.7853 166.744 58.1949 167.727 57.212C168.71 56.229 170.3 56.2256 171.279 57.2044C172.258 58.1832 172.255 59.7736 171.272 60.7566C170.289 61.7396 168.698 61.7429 167.72 60.7641Z" fill="#EEF1F7"/>
<path d="M178.844 49.6402C177.865 48.6614 177.868 47.071 178.851 46.088C179.834 45.105 181.424 45.1017 182.403 46.0805C183.382 47.0593 183.379 48.6497 182.396 49.6326C181.413 50.6156 179.822 50.619 178.844 49.6402Z" fill="#EEF1F7"/>
<path d="M189.968 38.5162C188.989 37.5374 188.992 35.9471 189.975 34.9641C190.958 33.9811 192.548 33.9777 193.527 34.9566C194.506 35.9354 194.503 37.5257 193.52 38.5087C192.537 39.4917 190.946 39.4951 189.968 38.5162Z" fill="#EEF1F7"/>
<path d="M201.092 27.3922C200.113 26.4133 200.116 24.823 201.099 23.84C202.082 22.857 203.673 22.8537 204.651 23.8325C205.63 24.8113 205.627 26.4017 204.644 27.3846C203.661 28.3676 202.07 28.371 201.092 27.3922Z" fill="#EEF1F7"/>
<path d="M56.4325 194.205C55.4536 193.226 55.457 191.636 56.44 190.653C57.423 189.67 59.0133 189.666 59.9921 190.645C60.971 191.624 60.9676 193.214 59.9846 194.197C59.0016 195.18 57.4113 195.184 56.4325 194.205Z" fill="#EEF1F7"/>
<path d="M67.5565 183.081C66.5777 182.102 66.581 180.512 67.564 179.529C68.547 178.546 70.1373 178.542 71.1162 179.521C72.095 180.5 72.0916 182.09 71.1086 183.073C70.1257 184.056 68.5353 184.06 67.5565 183.081Z" fill="#EEF1F7"/>
<path d="M78.6805 171.957C77.7017 170.978 77.7051 169.388 78.688 168.405C79.671 167.422 81.2614 167.418 82.2402 168.397C83.219 169.376 83.2156 170.966 82.2327 171.949C81.2497 172.932 79.6593 172.936 78.6805 171.957Z" fill="#EEF1F7"/>
<path d="M89.8045 160.833C88.8257 159.854 88.8291 158.264 89.8121 157.281C90.795 156.298 92.3854 156.294 93.3642 157.273C94.343 158.252 94.3397 159.842 93.3567 160.825C92.3737 161.808 90.7834 161.812 89.8045 160.833Z" fill="#EEF1F7"/>
<path d="M100.929 149.709C99.9497 148.73 99.9531 147.14 100.936 146.157C101.919 145.174 103.509 145.171 104.488 146.149C105.467 147.128 105.464 148.719 104.481 149.702C103.498 150.684 101.907 150.688 100.929 149.709Z" fill="#EEF1F7"/>
<path d="M112.053 138.585C111.074 137.606 111.077 136.016 112.06 135.033C113.043 134.05 114.633 134.046 115.612 135.025C116.591 136.004 116.588 137.594 115.605 138.577C114.622 139.56 113.031 139.564 112.053 138.585Z" fill="#EEF1F7"/>
<path d="M123.177 127.461C122.198 126.482 122.201 124.892 123.184 123.909C124.167 122.926 125.757 122.923 126.736 123.901C127.715 124.88 127.712 126.471 126.729 127.453C125.746 128.436 124.155 128.44 123.177 127.461Z" fill="#EEF1F7"/>
<path d="M134.301 116.337C133.322 115.358 133.325 113.768 134.308 112.785C135.291 111.802 136.881 111.799 137.86 112.777C138.839 113.756 138.836 115.347 137.853 116.33C136.87 117.313 135.279 117.316 134.301 116.337Z" fill="#EEF1F7"/>
<path d="M145.425 105.213C144.446 104.234 144.449 102.644 145.432 101.661C146.415 100.678 148.005 100.675 148.984 101.653C149.963 102.632 149.96 104.223 148.977 105.205C147.994 106.188 146.403 106.192 145.425 105.213Z" fill="#EEF1F7"/>
<path d="M156.549 94.0891C155.57 93.1103 155.573 91.5199 156.556 90.5369C157.539 89.554 159.13 89.5506 160.108 90.5294C161.087 91.5082 161.084 93.0986 160.101 94.0816C159.118 95.0645 157.528 95.0679 156.549 94.0891Z" fill="#EEF1F7"/>
<path d="M167.673 82.9652C166.694 81.9863 166.697 80.396 167.68 79.413C168.663 78.43 170.254 78.4267 171.232 79.4055C172.211 80.3843 172.208 81.9747 171.225 82.9577C170.242 83.9406 168.652 83.944 167.673 82.9652Z" fill="#EEF1F7"/>
<path d="M178.797 71.8411C177.818 70.8622 177.821 69.2719 178.804 68.2889C179.787 67.3059 181.378 67.3026 182.356 68.2814C183.335 69.2602 183.332 70.8506 182.349 71.8335C181.366 72.8165 179.776 72.8199 178.797 71.8411Z" fill="#EEF1F7"/>
<path d="M189.921 60.7171C188.942 59.7383 188.945 58.148 189.928 57.165C190.911 56.182 192.502 56.1786 193.48 57.1575C194.459 58.1363 194.456 59.7266 193.473 60.7096C192.49 61.6926 190.9 61.696 189.921 60.7171Z" fill="#EEF1F7"/>
<path d="M201.044 49.5932C200.065 48.6144 200.068 47.0241 201.051 46.0411C202.034 45.0581 203.625 45.0547 204.603 46.0336C205.582 47.0124 205.579 48.6027 204.596 49.5857C203.613 50.5687 202.023 50.5721 201.044 49.5932Z" fill="#EEF1F7"/>
<path d="M212.169 38.4691C211.19 37.4903 211.193 35.9 212.176 34.917C213.159 33.934 214.75 33.9306 215.728 34.9094C216.707 35.8883 216.704 37.4786 215.721 38.4616C214.738 39.4446 213.148 39.4479 212.169 38.4691Z" fill="#EEF1F7"/>
<path d="M67.5096 205.282C66.5308 204.303 66.5342 202.713 67.5171 201.73C68.5001 200.747 70.0905 200.743 71.0693 201.722C72.0481 202.701 72.0447 204.291 71.0618 205.274C70.0788 206.257 68.4884 206.261 67.5096 205.282Z" fill="#EEF1F7"/>
<path d="M78.6336 194.158C77.6548 193.179 77.6582 191.589 78.6412 190.606C79.6241 189.623 81.2145 189.619 82.1933 190.598C83.1721 191.577 83.1688 193.167 82.1858 194.15C81.2028 195.133 79.6125 195.137 78.6336 194.158Z" fill="#EEF1F7"/>
<path d="M89.7577 183.034C88.7788 182.055 88.7822 180.465 89.7652 179.482C90.7482 178.499 92.3385 178.495 93.3173 179.474C94.2962 180.453 94.2928 182.043 93.3098 183.026C92.3268 184.009 90.7365 184.013 89.7577 183.034Z" fill="#EEF1F7"/>
<path d="M100.882 171.91C99.9029 170.931 99.9062 169.341 100.889 168.358C101.872 167.375 103.463 167.371 104.441 168.35C105.42 169.329 105.417 170.919 104.434 171.902C103.451 172.885 101.861 172.889 100.882 171.91Z" fill="#EEF1F7"/>
<path d="M112.006 160.786C111.027 159.807 111.03 158.217 112.013 157.234C112.996 156.251 114.587 156.248 115.565 157.226C116.544 158.205 116.541 159.796 115.558 160.778C114.575 161.761 112.985 161.765 112.006 160.786Z" fill="#EEF1F7"/>
<path d="M123.13 149.662C122.151 148.683 122.154 147.093 123.137 146.11C124.12 145.127 125.711 145.123 126.689 146.102C127.668 147.081 127.665 148.671 126.682 149.654C125.699 150.637 124.109 150.641 123.13 149.662Z" fill="#EEF1F7"/>
<path d="M134.254 138.538C133.275 137.559 133.278 135.969 134.261 134.986C135.244 134.003 136.835 133.999 137.813 134.978C138.792 135.957 138.789 137.547 137.806 138.53C136.823 139.513 135.233 139.517 134.254 138.538Z" fill="#EEF1F7"/>
<path d="M145.378 127.414C144.399 126.435 144.402 124.845 145.385 123.862C146.368 122.879 147.959 122.876 148.937 123.854C149.916 124.833 149.913 126.424 148.93 127.407C147.947 128.39 146.357 128.393 145.378 127.414Z" fill="#EEF1F7"/>
<path d="M156.502 116.29C155.523 115.311 155.526 113.721 156.509 112.738C157.492 111.755 159.083 111.751 160.061 112.73C161.04 113.709 161.037 115.299 160.054 116.282C159.071 117.265 157.481 117.269 156.502 116.29Z" fill="#EEF1F7"/>
<path d="M167.626 105.166C166.647 104.187 166.65 102.597 167.633 101.614C168.616 100.631 170.207 100.628 171.185 101.606C172.164 102.585 172.161 104.176 171.178 105.159C170.195 106.142 168.605 106.145 167.626 105.166Z" fill="#EEF1F7"/>
<path d="M178.75 94.0421C177.771 93.0633 177.774 91.473 178.757 90.49C179.74 89.507 181.331 89.5036 182.31 90.4825C183.288 91.4613 183.285 93.0516 182.302 94.0346C181.319 95.0176 179.729 95.021 178.75 94.0421Z" fill="#EEF1F7"/>
<path d="M189.874 82.918C188.895 81.9392 188.898 80.3489 189.881 79.3659C190.864 78.3829 192.455 78.3795 193.434 79.3583C194.412 80.3372 194.409 81.9275 193.426 82.9105C192.443 83.8935 190.853 83.8969 189.874 82.918Z" fill="#EEF1F7"/>
<path d="M200.998 71.7941C200.019 70.8153 200.022 69.2249 201.005 68.242C201.988 67.259 203.579 67.2556 204.558 68.2344C205.536 69.2133 205.533 70.8036 204.55 71.7866C203.567 72.7696 201.977 72.7729 200.998 71.7941Z" fill="#EEF1F7"/>
<path d="M212.122 60.6702C211.143 59.6914 211.146 58.101 212.129 57.118C213.112 56.135 214.703 56.1317 215.682 57.1105C216.66 58.0893 216.657 59.6797 215.674 60.6627C214.691 61.6456 213.101 61.649 212.122 60.6702Z" fill="#EEF1F7"/>
<path d="M223.245 49.5461C222.266 48.5673 222.27 46.9769 223.252 45.9939C224.235 45.0109 225.826 45.0076 226.805 45.9864C227.783 46.9652 227.78 48.5556 226.797 49.5386C225.814 50.5215 224.224 50.5249 223.245 49.5461Z" fill="#EEF1F7"/>
<path d="M78.5868 216.359C77.6079 215.38 77.6113 213.79 78.5943 212.807C79.5773 211.824 81.1676 211.82 82.1464 212.799C83.1253 213.778 83.1219 215.368 82.1389 216.351C81.1559 217.334 79.5656 217.338 78.5868 216.359Z" fill="#EEF1F7"/>
<path d="M89.7108 205.235C88.732 204.256 88.7353 202.666 89.7183 201.683C90.7013 200.7 92.2916 200.696 93.2705 201.675C94.2493 202.654 94.2459 204.244 93.263 205.227C92.28 206.21 90.6896 206.214 89.7108 205.235Z" fill="#EEF1F7"/>
<path d="M100.835 194.111C99.856 193.132 99.8594 191.542 100.842 190.559C101.825 189.576 103.416 189.572 104.394 190.551C105.373 191.53 105.37 193.12 104.387 194.103C103.404 195.086 101.814 195.09 100.835 194.111Z" fill="#EEF1F7"/>
<path d="M111.959 182.987C110.98 182.008 110.983 180.418 111.966 179.435C112.949 178.452 114.54 178.448 115.519 179.427C116.497 180.406 116.494 181.996 115.511 182.979C114.528 183.962 112.938 183.966 111.959 182.987Z" fill="#EEF1F7"/>
<path d="M123.083 171.863C122.104 170.884 122.107 169.294 123.09 168.311C124.073 167.328 125.664 167.324 126.643 168.303C127.621 169.282 127.618 170.872 126.635 171.855C125.652 172.838 124.062 172.842 123.083 171.863Z" fill="#EEF1F7"/>
<path d="M134.207 160.739C133.228 159.76 133.231 158.17 134.214 157.187C135.197 156.204 136.788 156.2 137.767 157.179C138.745 158.158 138.742 159.748 137.759 160.731C136.776 161.714 135.186 161.718 134.207 160.739Z" fill="#EEF1F7"/>
<path d="M145.331 149.615C144.352 148.636 144.355 147.046 145.338 146.063C146.321 145.08 147.912 145.076 148.891 146.055C149.869 147.034 149.866 148.624 148.883 149.607C147.9 150.59 146.31 150.594 145.331 149.615Z" fill="#EEF1F7"/>
<path d="M156.455 138.491C155.476 137.512 155.479 135.922 156.462 134.939C157.445 133.956 159.036 133.953 160.015 134.931C160.993 135.91 160.99 137.501 160.007 138.484C159.024 139.466 157.434 139.47 156.455 138.491Z" fill="#EEF1F7"/>
<path d="M167.578 127.367C166.599 126.388 166.603 124.798 167.585 123.815C168.568 122.832 170.159 122.828 171.138 123.807C172.116 124.786 172.113 126.376 171.13 127.359C170.147 128.342 168.557 128.346 167.578 127.367Z" fill="#EEF1F7"/>
<path d="M178.702 116.243C177.723 115.264 177.727 113.674 178.71 112.691C179.693 111.708 181.283 111.705 182.262 112.683C183.241 113.662 183.237 115.253 182.254 116.235C181.271 117.218 179.681 117.222 178.702 116.243Z" fill="#EEF1F7"/>
<path d="M189.826 105.119C188.847 104.14 188.851 102.55 189.834 101.567C190.817 100.584 192.407 100.581 193.386 101.559C194.365 102.538 194.361 104.129 193.378 105.112C192.395 106.095 190.805 106.098 189.826 105.119Z" fill="#EEF1F7"/>
<path d="M200.95 93.995C199.971 93.0162 199.975 91.4258 200.958 90.4428C201.941 89.4599 203.531 89.4565 204.51 90.4353C205.489 91.4141 205.485 93.0045 204.502 93.9875C203.519 94.9704 201.929 94.9738 200.95 93.995Z" fill="#EEF1F7"/>
<path d="M212.074 82.8711C211.095 81.8922 211.099 80.3019 212.082 79.3189C213.065 78.3359 214.655 78.3326 215.634 79.3114C216.613 80.2902 216.609 81.8806 215.626 82.8635C214.643 83.8465 213.053 83.8499 212.074 82.8711Z" fill="#EEF1F7"/>
<path d="M223.198 71.7471C222.219 70.7683 222.223 69.1779 223.206 68.195C224.189 67.212 225.779 67.2086 226.758 68.1874C227.737 69.1663 227.733 70.7566 226.75 71.7396C225.767 72.7226 224.177 72.726 223.198 71.7471Z" fill="#EEF1F7"/>
<path d="M234.323 60.623C233.344 59.6442 233.348 58.0539 234.331 57.0709C235.314 56.0879 236.904 56.0845 237.883 57.0634C238.862 58.0422 238.858 59.6325 237.875 60.6155C236.892 61.5985 235.302 61.6019 234.323 60.623Z" fill="#EEF1F7"/>
<path d="M89.6639 227.436C88.6851 226.457 88.6885 224.867 89.6714 223.884C90.6544 222.901 92.2448 222.897 93.2236 223.876C94.2024 224.855 94.199 226.445 93.2161 227.428C92.2331 228.411 90.6427 228.415 89.6639 227.436Z" fill="#EEF1F7"/>
<path d="M100.788 216.312C99.8091 215.333 99.8125 213.743 100.795 212.76C101.778 211.777 103.369 211.773 104.348 212.752C105.326 213.731 105.323 215.321 104.34 216.304C103.357 217.287 101.767 217.291 100.788 216.312Z" fill="#EEF1F7"/>
<path d="M111.912 205.188C110.933 204.209 110.937 202.619 111.919 201.636C112.902 200.653 114.493 200.649 115.472 201.628C116.45 202.607 116.447 204.197 115.464 205.18C114.481 206.163 112.891 206.167 111.912 205.188Z" fill="#EEF1F7"/>
<path d="M123.035 194.064C122.056 193.085 122.06 191.495 123.043 190.512C124.026 189.529 125.616 189.525 126.595 190.504C127.574 191.483 127.57 193.073 126.587 194.056C125.604 195.039 124.014 195.043 123.035 194.064Z" fill="#EEF1F7"/>
<path d="M134.159 182.94C133.18 181.961 133.184 180.371 134.167 179.388C135.15 178.405 136.74 178.401 137.719 179.38C138.698 180.359 138.694 181.949 137.711 182.932C136.728 183.915 135.138 183.919 134.159 182.94Z" fill="#EEF1F7"/>
<path d="M145.284 171.816C144.305 170.837 144.309 169.247 145.292 168.264C146.275 167.281 147.865 167.277 148.844 168.256C149.823 169.235 149.819 170.825 148.836 171.808C147.853 172.791 146.263 172.795 145.284 171.816Z" fill="#EEF1F7"/>
<path d="M156.407 160.692C155.428 159.713 155.432 158.123 156.415 157.14C157.398 156.157 158.988 156.153 159.967 157.132C160.946 158.111 160.942 159.701 159.959 160.684C158.976 161.667 157.386 161.671 156.407 160.692Z" fill="#EEF1F7"/>
<path d="M167.531 149.568C166.552 148.589 166.556 146.999 167.539 146.016C168.522 145.033 170.112 145.029 171.091 146.008C172.07 146.987 172.066 148.577 171.083 149.56C170.1 150.543 168.51 150.547 167.531 149.568Z" fill="#EEF1F7"/>
<path d="M178.656 138.444C177.677 137.465 177.681 135.875 178.664 134.892C179.647 133.909 181.237 133.905 182.216 134.884C183.195 135.863 183.191 137.453 182.208 138.436C181.225 139.419 179.635 139.423 178.656 138.444Z" fill="#EEF1F7"/>
<path d="M189.779 127.32C188.8 126.341 188.804 124.751 189.787 123.768C190.77 122.785 192.36 122.781 193.339 123.76C194.318 124.739 194.314 126.329 193.331 127.312C192.348 128.295 190.758 128.299 189.779 127.32Z" fill="#EEF1F7"/>
<path d="M200.903 116.196C199.924 115.217 199.928 113.627 200.911 112.644C201.894 111.661 203.484 111.658 204.463 112.636C205.442 113.615 205.438 115.206 204.455 116.189C203.472 117.172 201.882 117.175 200.903 116.196Z" fill="#EEF1F7"/>
<path d="M212.027 105.072C211.048 104.093 211.052 102.503 212.035 101.52C213.018 100.537 214.608 100.533 215.587 101.512C216.566 102.491 216.562 104.081 215.579 105.064C214.596 106.047 213.006 106.051 212.027 105.072Z" fill="#EEF1F7"/>
<path d="M223.151 93.948C222.172 92.9692 222.176 91.3789 223.159 90.3959C224.142 89.4129 225.732 89.4095 226.711 90.3884C227.69 91.3672 227.686 92.9575 226.703 93.9405C225.72 94.9235 224.13 94.9268 223.151 93.948Z" fill="#EEF1F7"/>
<path d="M234.275 82.8241C233.296 81.8453 233.3 80.2549 234.283 79.2719C235.266 78.289 236.856 78.2856 237.835 79.2644C238.814 80.2432 238.81 81.8336 237.827 82.8166C236.844 83.7995 235.254 83.8029 234.275 82.8241Z" fill="#EEF1F7"/>
<path d="M245.399 71.7C244.42 70.7212 244.424 69.1309 245.407 68.1479C246.39 67.1649 247.98 67.1615 248.959 68.1403C249.938 69.1192 249.934 70.7095 248.951 71.6925C247.968 72.6755 246.378 72.6788 245.399 71.7Z" fill="#EEF1F7"/>
<path d="M100.741 238.513C99.7622 237.534 99.7656 235.944 100.749 234.961C101.732 233.978 103.322 233.974 104.301 234.953C105.28 235.932 105.276 237.522 104.293 238.505C103.31 239.488 101.72 239.492 100.741 238.513Z" fill="#EEF1F7"/>
<path d="M111.864 227.389C110.885 226.41 110.889 224.82 111.872 223.837C112.855 222.854 114.445 222.85 115.424 223.829C116.403 224.808 116.399 226.398 115.416 227.381C114.433 228.364 112.843 228.368 111.864 227.389Z" fill="#EEF1F7"/>
<path d="M122.989 216.265C122.01 215.286 122.014 213.696 122.997 212.713C123.98 211.73 125.57 211.726 126.549 212.705C127.528 213.684 127.524 215.274 126.541 216.257C125.558 217.24 123.968 217.244 122.989 216.265Z" fill="#EEF1F7"/>
<path d="M134.113 205.141C133.134 204.162 133.138 202.572 134.121 201.589C135.104 200.606 136.694 200.602 137.673 201.581C138.652 202.56 138.648 204.15 137.665 205.133C136.682 206.116 135.092 206.12 134.113 205.141Z" fill="#EEF1F7"/>
<path d="M145.236 194.017C144.257 193.038 144.261 191.448 145.244 190.465C146.227 189.482 147.817 189.478 148.796 190.457C149.775 191.436 149.771 193.026 148.788 194.009C147.805 194.992 146.215 194.996 145.236 194.017Z" fill="#EEF1F7"/>
<path d="M156.36 182.893C155.381 181.914 155.385 180.324 156.368 179.341C157.351 178.358 158.941 178.354 159.92 179.333C160.899 180.312 160.895 181.902 159.912 182.885C158.929 183.868 157.339 183.872 156.36 182.893Z" fill="#EEF1F7"/>
<path d="M167.484 171.769C166.505 170.79 166.509 169.2 167.492 168.217C168.475 167.234 170.065 167.23 171.044 168.209C172.023 169.188 172.019 170.778 171.036 171.761C170.053 172.744 168.463 172.748 167.484 171.769Z" fill="#EEF1F7"/>
<path d="M178.608 160.645C177.629 159.666 177.633 158.076 178.616 157.093C179.599 156.11 181.189 156.106 182.168 157.085C183.147 158.064 183.143 159.654 182.16 160.637C181.177 161.62 179.587 161.624 178.608 160.645Z" fill="#EEF1F7"/>
<path d="M189.732 149.521C188.753 148.542 188.757 146.952 189.74 145.969C190.723 144.986 192.313 144.982 193.292 145.961C194.271 146.94 194.267 148.53 193.284 149.513C192.301 150.496 190.711 150.5 189.732 149.521Z" fill="#EEF1F7"/>
<path d="M200.856 138.397C199.877 137.418 199.881 135.828 200.864 134.845C201.847 133.862 203.437 133.858 204.416 134.837C205.395 135.816 205.391 137.406 204.408 138.389C203.425 139.372 201.835 139.376 200.856 138.397Z" fill="#EEF1F7"/>
<path d="M211.98 127.273C211.001 126.294 211.005 124.704 211.988 123.721C212.971 122.738 214.561 122.735 215.54 123.713C216.519 124.692 216.515 126.283 215.532 127.266C214.549 128.248 212.959 128.252 211.98 127.273Z" fill="#EEF1F7"/>
<path d="M223.104 116.149C222.126 115.17 222.129 113.58 223.112 112.597C224.095 111.614 225.685 111.61 226.664 112.589C227.643 113.568 227.639 115.158 226.657 116.141C225.674 117.124 224.083 117.128 223.104 116.149Z" fill="#EEF1F7"/>
<path d="M234.228 105.025C233.25 104.046 233.253 102.456 234.236 101.473C235.219 100.49 236.809 100.487 237.788 101.465C238.767 102.444 238.763 104.035 237.781 105.017C236.798 106 235.207 106.004 234.228 105.025Z" fill="#EEF1F7"/>
<path d="M245.352 93.901C244.374 92.9222 244.377 91.3319 245.36 90.3489C246.343 89.3659 247.933 89.3626 248.912 90.3414C249.891 91.3202 249.888 92.9106 248.905 93.8935C247.922 94.8765 246.331 94.8799 245.352 93.901Z" fill="#EEF1F7"/>
<path d="M256.476 82.777C255.498 81.7982 255.501 80.2078 256.484 79.2248C257.467 78.2418 259.057 78.2385 260.036 79.2173C261.015 80.1961 261.012 81.7865 260.029 82.7695C259.046 83.7524 257.455 83.7558 256.476 82.777Z" fill="#EEF1F7"/>
<path d="M111.817 249.59C110.838 248.611 110.842 247.021 111.825 246.038C112.808 245.055 114.398 245.051 115.377 246.03C116.356 247.009 116.352 248.599 115.369 249.582C114.386 250.565 112.796 250.569 111.817 249.59Z" fill="#EEF1F7"/>
<path d="M122.941 238.466C121.962 237.487 121.966 235.897 122.949 234.914C123.932 233.931 125.522 233.927 126.501 234.906C127.48 235.885 127.476 237.475 126.493 238.458C125.51 239.441 123.92 239.445 122.941 238.466Z" fill="#EEF1F7"/>
<path d="M134.065 227.342C133.086 226.363 133.09 224.773 134.073 223.79C135.056 222.807 136.646 222.803 137.625 223.782C138.604 224.761 138.6 226.351 137.617 227.334C136.634 228.317 135.044 228.32 134.065 227.342Z" fill="#EEF1F7"/>
<path d="M145.189 216.218C144.21 215.239 144.214 213.649 145.197 212.666C146.18 211.683 147.77 211.679 148.749 212.658C149.728 213.637 149.724 215.227 148.741 216.21C147.758 217.193 146.168 217.197 145.189 216.218Z" fill="#EEF1F7"/>
<path d="M156.313 205.094C155.335 204.115 155.338 202.525 156.321 201.542C157.304 200.559 158.894 200.555 159.873 201.534C160.852 202.513 160.848 204.103 159.865 205.086C158.883 206.069 157.292 206.073 156.313 205.094Z" fill="#EEF1F7"/>
<path d="M167.437 193.97C166.459 192.991 166.462 191.401 167.445 190.418C168.428 189.435 170.018 189.431 170.997 190.41C171.976 191.389 171.972 192.979 170.989 193.962C170.007 194.945 168.416 194.949 167.437 193.97Z" fill="#EEF1F7"/>
<path d="M178.561 182.846C177.583 181.867 177.586 180.277 178.569 179.294C179.552 178.311 181.142 178.307 182.121 179.286C183.1 180.265 183.096 181.855 182.114 182.838C181.131 183.821 179.54 183.825 178.561 182.846Z" fill="#EEF1F7"/>
<path d="M189.685 171.722C188.707 170.743 188.71 169.153 189.693 168.17C190.676 167.187 192.266 167.183 193.245 168.162C194.224 169.141 194.221 170.731 193.238 171.714C192.255 172.697 190.664 172.701 189.685 171.722Z" fill="#EEF1F7"/>
<path d="M200.809 160.598C199.831 159.619 199.834 158.029 200.817 157.046C201.8 156.063 203.39 156.059 204.369 157.038C205.348 158.017 205.345 159.607 204.362 160.59C203.379 161.573 201.788 161.577 200.809 160.598Z" fill="#EEF1F7"/>
<path d="M211.933 149.474C210.955 148.495 210.958 146.905 211.941 145.922C212.924 144.939 214.514 144.935 215.493 145.914C216.472 146.893 216.469 148.483 215.486 149.466C214.503 150.449 212.912 150.453 211.933 149.474Z" fill="#EEF1F7"/>
<path d="M223.057 138.35C222.079 137.371 222.082 135.781 223.065 134.798C224.048 133.815 225.638 133.812 226.617 134.79C227.596 135.769 227.593 137.359 226.61 138.342C225.627 139.325 224.036 139.329 223.057 138.35Z" fill="#EEF1F7"/>
<path d="M234.181 127.226C233.203 126.247 233.206 124.657 234.189 123.674C235.172 122.691 236.762 122.687 237.741 123.666C238.72 124.645 238.717 126.235 237.734 127.218C236.751 128.201 235.16 128.205 234.181 127.226Z" fill="#EEF1F7"/>
<path d="M245.306 116.102C244.327 115.123 244.33 113.533 245.313 112.55C246.296 111.567 247.886 111.563 248.865 112.542C249.844 113.521 249.841 115.111 248.858 116.094C247.875 117.077 246.284 117.081 245.306 116.102Z" fill="#EEF1F7"/>
<path d="M256.43 104.978C255.451 103.999 255.454 102.409 256.437 101.426C257.42 100.443 259.01 100.44 259.989 101.418C260.968 102.397 260.965 103.988 259.982 104.97C258.999 105.953 257.408 105.957 256.43 104.978Z" fill="#EEF1F7"/>
<path d="M267.554 93.8539C266.575 92.8751 266.578 91.2848 267.561 90.3018C268.544 89.3188 270.134 89.3154 271.113 90.2943C272.092 91.2731 272.089 92.8634 271.106 93.8464C270.123 94.8294 268.532 94.8327 267.554 93.8539Z" fill="#EEF1F7"/>
<path d="M122.894 260.667C121.916 259.688 121.919 258.097 122.902 257.115C123.885 256.132 125.475 256.128 126.454 257.107C127.433 258.086 127.43 259.676 126.447 260.659C125.464 261.642 123.873 261.645 122.894 260.667Z" fill="#EEF1F7"/>
<path d="M134.018 249.543C133.04 248.564 133.043 246.974 134.026 245.991C135.009 245.008 136.599 245.004 137.578 245.983C138.557 246.962 138.554 248.552 137.571 249.535C136.588 250.518 134.997 250.522 134.018 249.543Z" fill="#EEF1F7"/>
<path d="M145.142 238.419C144.164 237.44 144.167 235.849 145.15 234.866C146.133 233.884 147.723 233.88 148.702 234.859C149.681 235.838 149.678 237.428 148.695 238.411C147.712 239.394 146.121 239.397 145.142 238.419Z" fill="#EEF1F7"/>
<path d="M156.266 227.295C155.288 226.316 155.291 224.726 156.274 223.743C157.257 222.76 158.847 222.756 159.826 223.735C160.805 224.714 160.802 226.304 159.819 227.287C158.836 228.27 157.245 228.274 156.266 227.295Z" fill="#EEF1F7"/>
<path d="M167.39 216.171C166.412 215.192 166.415 213.602 167.398 212.619C168.381 211.636 169.971 211.632 170.95 212.611C171.929 213.59 171.926 215.18 170.943 216.163C169.96 217.146 168.369 217.15 167.39 216.171Z" fill="#EEF1F7"/>
<path d="M178.514 205.047C177.536 204.068 177.539 202.478 178.522 201.495C179.505 200.512 181.095 200.508 182.074 201.487C183.053 202.466 183.05 204.056 182.067 205.039C181.084 206.022 179.493 206.026 178.514 205.047Z" fill="#EEF1F7"/>
<path d="M189.639 193.923C188.66 192.944 188.663 191.354 189.646 190.371C190.629 189.388 192.219 189.384 193.198 190.363C194.177 191.342 194.174 192.932 193.191 193.915C192.208 194.898 190.617 194.902 189.639 193.923Z" fill="#EEF1F7"/>
<path d="M200.763 182.799C199.784 181.82 199.787 180.23 200.77 179.247C201.753 178.264 203.343 178.26 204.322 179.239C205.301 180.218 205.298 181.808 204.315 182.791C203.332 183.774 201.741 183.778 200.763 182.799Z" fill="#EEF1F7"/>
<path d="M211.887 171.675C210.908 170.696 210.911 169.106 211.894 168.123C212.877 167.14 214.467 167.136 215.446 168.115C216.425 169.094 216.422 170.684 215.439 171.667C214.456 172.65 212.865 172.654 211.887 171.675Z" fill="#EEF1F7"/>
<path d="M223.011 160.551C222.032 159.572 222.035 157.982 223.018 156.999C224.001 156.016 225.591 156.012 226.57 156.991C227.549 157.97 227.546 159.56 226.563 160.543C225.58 161.526 223.989 161.53 223.011 160.551Z" fill="#EEF1F7"/>
<path d="M234.135 149.427C233.156 148.448 233.159 146.858 234.142 145.875C235.125 144.892 236.715 144.888 237.694 145.867C238.673 146.846 238.67 148.436 237.687 149.419C236.704 150.402 235.113 150.406 234.135 149.427Z" fill="#EEF1F7"/>
<path d="M245.259 138.303C244.28 137.324 244.283 135.734 245.266 134.751C246.249 133.768 247.84 133.764 248.818 134.743C249.797 135.722 249.794 137.312 248.811 138.295C247.828 139.278 246.237 139.282 245.259 138.303Z" fill="#EEF1F7"/>
<path d="M256.383 127.179C255.404 126.2 255.407 124.61 256.39 123.627C257.373 122.644 258.964 122.64 259.942 123.619C260.921 124.598 260.918 126.188 259.935 127.171C258.952 128.154 257.361 128.158 256.383 127.179Z" fill="#EEF1F7"/>
<path d="M267.507 116.055C266.528 115.076 266.531 113.486 267.514 112.503C268.497 111.52 270.088 111.516 271.066 112.495C272.045 113.474 272.042 115.064 271.059 116.047C270.076 117.03 268.486 117.034 267.507 116.055Z" fill="#EEF1F7"/>
<path d="M278.63 104.931C277.651 103.952 277.654 102.362 278.637 101.379C279.62 100.396 281.211 100.392 282.189 101.371C283.168 102.35 283.165 103.94 282.182 104.923C281.199 105.906 279.609 105.91 278.63 104.931Z" fill="#EEF1F7"/>
<path d="M133.972 271.744C132.993 270.765 132.996 269.174 133.979 268.191C134.962 267.209 136.552 267.205 137.531 268.184C138.51 269.163 138.507 270.753 137.524 271.736C136.541 272.719 134.95 272.722 133.972 271.744Z" fill="#EEF1F7"/>
<path d="M145.096 260.62C144.117 259.641 144.12 258.051 145.103 257.068C146.086 256.085 147.676 256.081 148.655 257.06C149.634 258.039 149.631 259.629 148.648 260.612C147.665 261.595 146.074 261.599 145.096 260.62Z" fill="#EEF1F7"/>
<path d="M156.22 249.496C155.241 248.517 155.244 246.926 156.227 245.943C157.21 244.96 158.8 244.957 159.779 245.936C160.758 246.915 160.755 248.505 159.772 249.488C158.789 250.471 157.198 250.474 156.22 249.496Z" fill="#EEF1F7"/>
<path d="M167.344 238.372C166.365 237.393 166.368 235.803 167.351 234.82C168.334 233.837 169.924 233.833 170.903 234.812C171.882 235.791 171.879 237.381 170.896 238.364C169.913 239.347 168.322 239.351 167.344 238.372Z" fill="#EEF1F7"/>
<path d="M178.468 227.248C177.489 226.269 177.492 224.679 178.475 223.696C179.458 222.713 181.048 222.709 182.027 223.688C183.006 224.667 183.003 226.257 182.02 227.24C181.037 228.223 179.446 228.227 178.468 227.248Z" fill="#EEF1F7"/>
<path d="M189.592 216.124C188.613 215.145 188.616 213.554 189.599 212.572C190.582 211.589 192.173 211.585 193.151 212.564C194.13 213.543 194.127 215.133 193.144 216.116C192.161 217.099 190.57 217.102 189.592 216.124Z" fill="#EEF1F7"/>
<path d="M200.716 205C199.737 204.021 199.74 202.431 200.723 201.448C201.706 200.465 203.297 200.461 204.275 201.44C205.254 202.419 205.251 204.009 204.268 204.992C203.285 205.975 201.694 205.979 200.716 205Z" fill="#EEF1F7"/>
<path d="M211.84 193.876C210.861 192.897 210.864 191.307 211.847 190.324C212.83 189.341 214.421 189.337 215.399 190.316C216.378 191.295 216.375 192.885 215.392 193.868C214.409 194.851 212.819 194.855 211.84 193.876Z" fill="#EEF1F7"/>
<path d="M222.963 182.752C221.984 181.773 221.987 180.183 222.97 179.2C223.953 178.217 225.544 178.213 226.522 179.192C227.501 180.171 227.498 181.761 226.515 182.744C225.532 183.727 223.942 183.731 222.963 182.752Z" fill="#EEF1F7"/>
<path d="M234.087 171.628C233.108 170.649 233.111 169.059 234.094 168.076C235.077 167.093 236.668 167.089 237.646 168.068C238.625 169.047 238.622 170.637 237.639 171.62C236.656 172.603 235.066 172.607 234.087 171.628Z" fill="#EEF1F7"/>
<path d="M245.211 160.504C244.232 159.525 244.235 157.935 245.218 156.952C246.201 155.969 247.792 155.965 248.77 156.944C249.749 157.923 249.746 159.513 248.763 160.496C247.78 161.479 246.19 161.483 245.211 160.504Z" fill="#EEF1F7"/>
<path d="M256.335 149.38C255.356 148.401 255.359 146.811 256.342 145.828C257.325 144.845 258.916 144.841 259.894 145.82C260.873 146.799 260.87 148.389 259.887 149.372C258.904 150.355 257.314 150.359 256.335 149.38Z" fill="#EEF1F7"/>
<path d="M267.459 138.256C266.48 137.277 266.483 135.687 267.466 134.704C268.449 133.721 270.04 133.717 271.019 134.696C271.997 135.675 271.994 137.265 271.011 138.248C270.028 139.231 268.438 139.235 267.459 138.256Z" fill="#EEF1F7"/>
<path d="M278.583 127.132C277.604 126.153 277.607 124.563 278.59 123.58C279.573 122.597 281.164 122.593 282.143 123.572C283.121 124.551 283.118 126.141 282.135 127.124C281.152 128.107 279.562 128.111 278.583 127.132Z" fill="#EEF1F7"/>
<path d="M289.708 116.008C288.729 115.029 288.732 113.439 289.715 112.456C290.698 111.473 292.289 111.469 293.268 112.448C294.246 113.427 294.243 115.017 293.26 116C292.277 116.983 290.687 116.987 289.708 116.008Z" fill="#EEF1F7"/>
<path d="M145.049 282.821C144.07 281.842 144.073 280.251 145.056 279.268C146.039 278.285 147.63 278.282 148.608 279.261C149.587 280.24 149.584 281.83 148.601 282.813C147.618 283.796 146.028 283.799 145.049 282.821Z" fill="#EEF1F7"/>
<path d="M156.173 271.697C155.194 270.718 155.197 269.128 156.18 268.145C157.163 267.162 158.754 267.158 159.732 268.137C160.711 269.116 160.708 270.706 159.725 271.689C158.742 272.672 157.152 272.676 156.173 271.697Z" fill="#EEF1F7"/>
<path d="M167.297 260.573C166.318 259.594 166.321 258.003 167.304 257.02C168.287 256.037 169.878 256.034 170.856 257.013C171.835 257.992 171.832 259.582 170.849 260.565C169.866 261.548 168.276 261.551 167.297 260.573Z" fill="#EEF1F7"/>
<path d="M178.42 249.449C177.441 248.47 177.444 246.879 178.427 245.896C179.41 244.914 181.001 244.91 181.979 245.889C182.958 246.868 182.955 248.458 181.972 249.441C180.989 250.424 179.399 250.427 178.42 249.449Z" fill="#EEF1F7"/>
<path d="M189.544 238.325C188.565 237.346 188.568 235.756 189.551 234.773C190.534 233.79 192.125 233.786 193.103 234.765C194.082 235.744 194.079 237.334 193.096 238.317C192.113 239.3 190.523 239.304 189.544 238.325Z" fill="#EEF1F7"/>
<path d="M200.669 227.201C199.69 226.222 199.693 224.631 200.676 223.648C201.659 222.666 203.25 222.662 204.228 223.641C205.207 224.62 205.204 226.21 204.221 227.193C203.238 228.176 201.648 228.179 200.669 227.201Z" fill="#EEF1F7"/>
<path d="M211.792 216.077C210.813 215.098 210.816 213.508 211.799 212.525C212.782 211.542 214.373 211.538 215.352 212.517C216.33 213.496 216.327 215.086 215.344 216.069C214.361 217.052 212.771 217.056 211.792 216.077Z" fill="#EEF1F7"/>
<path d="M222.916 204.953C221.937 203.974 221.94 202.384 222.923 201.401C223.906 200.418 225.497 200.414 226.476 201.393C227.454 202.372 227.451 203.962 226.468 204.945C225.485 205.928 223.895 205.932 222.916 204.953Z" fill="#EEF1F7"/>
<path d="M234.041 193.829C233.062 192.85 233.065 191.26 234.048 190.277C235.031 189.294 236.622 189.29 237.601 190.269C238.579 191.248 238.576 192.838 237.593 193.821C236.61 194.804 235.02 194.808 234.041 193.829Z" fill="#EEF1F7"/>
<path d="M245.165 182.705C244.186 181.726 244.189 180.136 245.172 179.153C246.155 178.17 247.746 178.166 248.725 179.145C249.703 180.124 249.7 181.714 248.717 182.697C247.734 183.68 246.144 183.684 245.165 182.705Z" fill="#EEF1F7"/>
<path d="M256.288 171.581C255.309 170.602 255.312 169.012 256.295 168.029C257.278 167.046 258.869 167.042 259.848 168.021C260.826 169 260.823 170.59 259.84 171.573C258.857 172.556 257.267 172.56 256.288 171.581Z" fill="#EEF1F7"/>
<path d="M267.412 160.457C266.433 159.478 266.437 157.888 267.419 156.905C268.402 155.922 269.993 155.918 270.972 156.897C271.95 157.876 271.947 159.466 270.964 160.449C269.981 161.432 268.391 161.436 267.412 160.457Z" fill="#EEF1F7"/>
<path d="M278.536 149.333C277.557 148.354 277.561 146.764 278.544 145.781C279.526 144.798 281.117 144.794 282.096 145.773C283.074 146.752 283.071 148.342 282.088 149.325C281.105 150.308 279.515 150.312 278.536 149.333Z" fill="#EEF1F7"/>
<path d="M289.66 138.209C288.681 137.23 288.685 135.64 289.668 134.657C290.651 133.674 292.241 133.67 293.22 134.649C294.199 135.628 294.195 137.218 293.212 138.201C292.229 139.184 290.639 139.188 289.66 138.209Z" fill="#EEF1F7"/>
<path d="M156.126 293.898C155.147 292.919 155.15 291.328 156.133 290.345C157.116 289.362 158.707 289.359 159.686 290.338C160.664 291.317 160.661 292.907 159.678 293.89C158.695 294.873 157.105 294.876 156.126 293.898Z" fill="#EEF1F7"/>
<path d="M167.249 282.774C166.27 281.795 166.273 280.204 167.256 279.221C168.239 278.239 169.83 278.235 170.809 279.214C171.787 280.193 171.784 281.783 170.801 282.766C169.818 283.749 168.228 283.752 167.249 282.774Z" fill="#EEF1F7"/>
<path d="M178.374 271.65C177.395 270.671 177.398 269.08 178.381 268.097C179.364 267.114 180.955 267.111 181.934 268.09C182.912 269.069 182.909 270.659 181.926 271.642C180.943 272.625 179.353 272.628 178.374 271.65Z" fill="#EEF1F7"/>
<path d="M189.498 260.526C188.519 259.547 188.522 257.956 189.505 256.973C190.488 255.99 192.079 255.987 193.058 256.966C194.036 257.945 194.033 259.535 193.05 260.518C192.067 261.501 190.477 261.504 189.498 260.526Z" fill="#EEF1F7"/>
<path d="M200.621 249.402C199.642 248.423 199.645 246.833 200.628 245.85C201.611 244.867 203.202 244.863 204.181 245.842C205.159 246.821 205.156 248.411 204.173 249.394C203.19 250.377 201.6 250.381 200.621 249.402Z" fill="#EEF1F7"/>
<path d="M211.745 238.278C210.766 237.299 210.77 235.708 211.752 234.725C212.735 233.742 214.326 233.739 215.305 234.718C216.283 235.697 216.28 237.287 215.297 238.27C214.314 239.253 212.724 239.256 211.745 238.278Z" fill="#EEF1F7"/>
<path d="M222.869 227.154C221.89 226.175 221.894 224.585 222.877 223.602C223.859 222.619 225.45 222.615 226.429 223.594C227.407 224.573 227.404 226.163 226.421 227.146C225.438 228.129 223.848 228.133 222.869 227.154Z" fill="#EEF1F7"/>
<path d="M233.993 216.03C233.014 215.051 233.018 213.461 234.001 212.478C234.984 211.495 236.574 211.491 237.553 212.47C238.532 213.449 238.528 215.039 237.545 216.022C236.562 217.005 234.972 217.009 233.993 216.03Z" fill="#EEF1F7"/>
<path d="M245.117 204.906C244.138 203.927 244.142 202.336 245.125 201.354C246.108 200.371 247.698 200.367 248.677 201.346C249.656 202.325 249.652 203.915 248.669 204.898C247.686 205.881 246.096 205.884 245.117 204.906Z" fill="#EEF1F7"/>
<path d="M256.241 193.782C255.262 192.803 255.266 191.213 256.249 190.23C257.232 189.247 258.822 189.243 259.801 190.222C260.78 191.201 260.776 192.791 259.793 193.774C258.81 194.757 257.22 194.761 256.241 193.782Z" fill="#EEF1F7"/>
<path d="M267.365 182.658C266.386 181.679 266.39 180.089 267.373 179.106C268.356 178.123 269.946 178.119 270.925 179.098C271.904 180.077 271.9 181.667 270.917 182.65C269.934 183.633 268.344 183.637 267.365 182.658Z" fill="#EEF1F7"/>
<path d="M278.489 171.534C277.51 170.555 277.514 168.965 278.497 167.982C279.48 166.999 281.07 166.995 282.049 167.974C283.028 168.953 283.024 170.543 282.041 171.526C281.058 172.509 279.468 172.513 278.489 171.534Z" fill="#EEF1F7"/>
<path d="M289.613 160.41C288.634 159.431 288.638 157.841 289.621 156.858C290.604 155.875 292.194 155.871 293.173 156.85C294.152 157.829 294.148 159.419 293.165 160.402C292.182 161.385 290.592 161.389 289.613 160.41Z" fill="#EEF1F7"/>
</g>
<defs>
<clipPath id="clip0">
<rect width="206.495" height="209.914" fill="white" transform="translate(0.5 146.014) rotate(-45)"/>
</clipPath>
</defs>
</svg>
