<svg width="40" height="41" viewBox="0 0 40 41" fill="none" xmlns="http://www.w3.org/2000/svg">
<path d="M4 21.6143C4 12.7777 11.1635 5.61426 20 5.61426C28.8365 5.61426 36 12.7777 36 21.6143C36 30.4508 28.8365 37.6143 20 37.6143C11.1635 37.6143 4 30.4508 4 21.6143Z" fill="white"/>
<path fill-rule="evenodd" clip-rule="evenodd" d="M20.0009 10.6059C17.2851 10.6059 16.9442 10.6178 15.8776 10.6665C14.813 10.7155 14.0862 10.8847 13.4505 11.1331C12.7927 11.3895 12.2348 11.7326 11.679 12.291C11.1227 12.8491 10.781 13.4094 10.5248 14.0696C10.2769 14.7083 10.1081 15.4382 10.0602 16.5069C10.0125 17.578 10 17.9205 10 20.6476C10 23.3748 10.0121 23.716 10.0604 24.7872C10.1094 25.8562 10.2779 26.5859 10.525 27.2244C10.7806 27.8848 11.1223 28.4451 11.6784 29.0033C12.234 29.5618 12.7919 29.9058 13.4492 30.1622C14.0855 30.4105 14.8123 30.5798 15.8767 30.6288C16.9434 30.6775 17.2841 30.6894 19.9997 30.6894C22.7158 30.6894 23.0555 30.6775 24.1222 30.6288C25.1868 30.5798 25.9143 30.4105 26.5505 30.1622C27.2081 29.9058 27.7652 29.5618 28.3208 29.0033C28.877 28.4451 29.2188 27.8848 29.475 27.2245C29.7209 26.5859 29.8896 25.856 29.9396 24.7873C29.9875 23.7162 30 23.3748 30 20.6476C30 17.9205 29.9875 17.5782 29.9396 16.5071C29.8896 15.4381 29.7209 14.7083 29.475 14.0699C29.2188 13.4094 28.877 12.8491 28.3208 12.291C27.7645 11.7324 27.2083 11.3893 26.5499 11.1331C25.9124 10.8847 25.1854 10.7155 24.1208 10.6665C23.0541 10.6178 22.7145 10.6059 19.9978 10.6059H20.0009ZM19.6674 12.4154H19.6677L20.0009 12.4154C22.6709 12.4154 22.9874 12.4251 24.0418 12.4732C25.0168 12.518 25.546 12.6815 25.8985 12.819C26.3652 13.001 26.6979 13.2186 27.0477 13.5701C27.3977 13.9215 27.6144 14.2563 27.796 14.7249C27.9329 15.0784 28.096 15.6098 28.1404 16.5889C28.1883 17.6475 28.1987 17.9654 28.1987 20.6454C28.1987 23.3252 28.1883 23.6432 28.1404 24.7018C28.0958 25.6809 27.9329 26.2122 27.796 26.5658C27.6148 27.0344 27.3977 27.3681 27.0477 27.7193C26.6977 28.0708 26.3654 28.2884 25.8985 28.4704C25.5464 28.6085 25.0168 28.7717 24.0418 28.8164C22.9877 28.8646 22.6709 28.875 20.0009 28.875C17.3307 28.875 17.0142 28.8646 15.9601 28.8164C14.9851 28.7712 14.4559 28.6076 14.1032 28.4702C13.6365 28.2882 13.3031 28.0706 12.9531 27.7191C12.6031 27.3676 12.3865 27.0338 12.2048 26.5649C12.068 26.2114 11.9048 25.68 11.8605 24.701C11.8125 23.6424 11.803 23.3244 11.803 20.6429C11.803 17.9613 11.8125 17.645 11.8605 16.5863C11.905 15.6073 12.068 15.0759 12.2048 14.722C12.3861 14.2533 12.6031 13.9186 12.9531 13.5672C13.3031 13.2157 13.6365 12.9981 14.1032 12.8157C14.4557 12.6776 14.9851 12.5144 15.9601 12.4694C16.8826 12.4276 17.2401 12.415 19.1038 12.4129V12.4154C19.278 12.4152 19.4653 12.4153 19.6674 12.4154ZM24.1389 15.2874C24.1389 14.6219 24.6764 14.0828 25.3389 14.0828V14.0824C26.0014 14.0824 26.5389 14.6222 26.5389 15.2874C26.5389 15.9527 26.0014 16.4924 25.3389 16.4924C24.6764 16.4924 24.1389 15.9527 24.1389 15.2874ZM20.0007 15.4908C17.1648 15.4909 14.8655 17.7998 14.8655 20.6476C14.8655 23.4956 17.1648 25.8035 20.0009 25.8035C22.837 25.8035 25.1355 23.4956 25.1355 20.6476C25.1355 17.7997 22.8368 15.4908 20.0007 15.4908ZM23.3343 20.6476C23.3343 18.7989 21.8418 17.3004 20.0009 17.3004C18.1598 17.3004 16.6676 18.7989 16.6676 20.6476C16.6676 22.4962 18.1598 23.9949 20.0009 23.9949C21.8418 23.9949 23.3343 22.4962 23.3343 20.6476Z" fill="#00CAFD"/>
</svg>
