<svg width="70" height="35" viewBox="0 0 70 35" fill="none" xmlns="http://www.w3.org/2000/svg">
<g clip-path="url(#clip0)">
<path d="M7.28284 5.25414H8.48486V13.3231H12.4445V14.2886H7.28284V5.25414ZM18.6313 5.25414V10.6335C18.6313 12.6679 19.5505 13.53 20.7879 13.53C22.1667 13.53 23.0505 12.6335 23.0505 10.6335V5.25414H24.2525V10.53C24.2525 13.3231 22.7323 14.461 20.7525 14.461C18.8434 14.461 17.4293 13.3921 17.4293 10.599V5.25414H18.6313ZM36.9798 14.0472C36.5556 14.2541 35.6717 14.461 34.5404 14.461C31.9243 14.461 29.9445 12.8403 29.9445 9.87483C29.9445 7.04725 31.9243 5.11621 34.7879 5.11621C35.9546 5.11621 36.6616 5.35759 36.9798 5.53L36.697 6.49552C36.2374 6.28862 35.601 6.11621 34.8232 6.11621C32.6313 6.11621 31.1818 7.46104 31.1818 9.84035C31.1818 12.0472 32.4899 13.4955 34.7525 13.4955C35.495 13.4955 36.2374 13.3576 36.697 13.1162L36.9798 14.0472ZM42.6364 5.25414H43.8384V9.63345H43.8738C44.1212 9.28862 44.3687 8.9438 44.6162 8.66793L47.4445 5.25414H48.9293L45.5707 9.11621L49.2121 14.3231H47.798L44.7222 9.87483L43.8384 10.8748V14.3231H42.6364V5.25414ZM56.2121 14.3231V10.461L53.2778 5.25414H54.6566L55.9647 7.77138C56.3182 8.46104 56.601 9.01276 56.8839 9.63345H56.9192C57.1667 9.04725 57.4849 8.46104 57.8737 7.77138L59.2172 5.25414H60.596L57.4849 10.461V14.3231H56.2121ZM7.14142 29.0128C7.67173 29.3231 8.4495 29.599 9.29799 29.599C10.5354 29.599 11.2424 28.9783 11.2424 28.0472C11.2424 27.1852 10.7475 26.7024 9.47476 26.2541C7.95456 25.7369 7.03536 24.9783 7.03536 23.7024C7.03536 22.2886 8.23738 21.2541 10.0404 21.2541C10.995 21.2541 11.6667 21.461 12.0909 21.7024L11.7727 22.6679C11.4546 22.4955 10.8535 22.2541 10.0051 22.2541C8.73233 22.2541 8.23738 22.9783 8.23738 23.599C8.23738 24.461 8.80304 24.8748 10.0758 25.3576C11.6313 25.9438 12.4445 26.7024 12.4445 28.0128C12.4445 29.4266 11.3838 30.6335 9.19193 30.6335C8.30809 30.6335 7.31819 30.3921 6.82324 30.0472L7.14142 29.0128ZM19.4445 21.3576V30.4266H18.2424V21.3576H19.4445ZM27.4344 22.3576H24.6061V21.3576H31.4647V22.3576H28.6364V30.4266H27.4344V22.3576ZM41.4697 26.1852H37.8636V29.461H41.894V30.4266H36.6616V21.3576H41.6818V22.3231H37.8636V25.1852H41.4697V26.1852Z" fill="#232323"/>
<path d="M51.6162 25.2537C53.0304 24.564 53.3839 22.8399 55.8586 23.8744C57.9798 24.9088 58.6869 27.6675 61.5152 26.9778C62.5758 26.633 63.2829 25.9433 63.99 25.2537" stroke="#ED1C24" stroke-width="3.36206"/>
<path d="M1.06061 2.08136V33.4607H68.7626V2.08136H1.06061ZM69.8232 1.04688V34.4952H0V1.04688H69.8232ZM1.06061 18.3572H68.7626V17.3227H1.06061V18.3572Z" fill="#232323"/>
</g>
<defs>
<clipPath id="clip0">
<rect width="70" height="33.7931" fill="white" transform="translate(0 0.771484)"/>
</clipPath>
</defs>
</svg>
