<svg width="39" height="38" viewBox="0 0 39 38" fill="none" xmlns="http://www.w3.org/2000/svg">
<path d="M29.65 20.072C29.65 20.5414 30.0306 20.922 30.5 20.922C30.9694 20.922 31.35 20.5414 31.35 20.072H29.65ZM31.35 28C31.35 27.5306 30.9694 27.15 30.5 27.15C30.0306 27.15 29.65 27.5306 29.65 28H31.35ZM31.35 22.7676C31.35 22.2982 30.9694 21.9176 30.5 21.9176C30.0306 21.9176 29.65 22.2982 29.65 22.7676H31.35ZM29.65 25.1856C29.65 25.6551 30.0306 26.0356 30.5 26.0356C30.9694 26.0356 31.35 25.6551 31.35 25.1856H29.65ZM10.5 13.85H29.5V12.15H10.5V13.85ZM29.5 29.15H10.5V30.85H29.5V29.15ZM10.35 29V14H8.65V29H10.35ZM29.65 14V20.072H31.35V14H29.65ZM29.65 28V29H31.35V28H29.65ZM29.65 22.7676V25.1856H31.35V22.7676H29.65ZM10.5 29.15C10.4172 29.15 10.35 29.0828 10.35 29H8.65C8.65 30.0217 9.47827 30.85 10.5 30.85V29.15ZM29.5 30.85C30.5217 30.85 31.35 30.0217 31.35 29H29.65C29.65 29.0828 29.5828 29.15 29.5 29.15V30.85ZM29.5 13.85C29.5828 13.85 29.65 13.9172 29.65 14H31.35C31.35 12.9783 30.5217 12.15 29.5 12.15V13.85ZM10.5 12.15C9.47827 12.15 8.65 12.9783 8.65 14H10.35C10.35 13.9172 10.4172 13.85 10.5 13.85V12.15Z" fill="#FE4C40"/>
<path d="M16.5 13C14.291 13 12.5 12.2092 12.5 10C12.5 7.79083 13.291 7 15.5 7C17.0059 7 19.3174 8.27026 20 9.5M20 9.5C20.6826 8.27026 22.9941 7 24.5 7C26.709 7 27.5 7.79083 27.5 10C27.5 12.2092 25.709 13 23.5 13M20 9.5V29.4102" stroke="#FE4C40" stroke-width="1.7"/>
</svg>
