<svg width="40" height="41" viewBox="0 0 40 41" fill="none" xmlns="http://www.w3.org/2000/svg">
<g clip-path="url(#clip0)">
<path d="M32.2652 14.6877C31.9708 13.5567 31.1033 12.666 30.0018 12.3638C28.0056 11.8145 20.0002 11.8145 20.0002 11.8145C20.0002 11.8145 11.9948 11.8145 9.99839 12.3638C8.89689 12.666 8.02939 13.5567 7.73499 14.6877C7.20019 16.7375 7.2002 21.0145 7.2002 21.0145C7.2002 21.0145 7.20019 25.2913 7.73499 27.3412C8.02939 28.4722 8.89689 29.3629 9.99839 29.6653C11.9948 30.2145 20.0002 30.2145 20.0002 30.2145C20.0002 30.2145 28.0056 30.2145 30.0018 29.6653C31.1033 29.3629 31.9708 28.4722 32.2652 27.3412C32.8002 25.2913 32.8002 21.0145 32.8002 21.0145C32.8002 21.0145 32.8002 16.7375 32.2652 14.6877Z" fill="#00CAFD"/>
<path d="M17.5996 25.4141V17.4141L23.9996 21.4143L17.5996 25.4141Z" fill="white"/>
</g>
<defs>
<clipPath id="clip0">
<rect width="40" height="40" fill="white" transform="translate(0 0.614258)"/>
</clipPath>
</defs>
</svg>
