<svg width="301" height="316" viewBox="0 0 301 316" fill="none" xmlns="http://www.w3.org/2000/svg">
<circle opacity="0.2" cx="150.5" cy="165.5" r="149" stroke="url(#paint0_linear)" stroke-width="3"/>
<mask id="mask0" mask-type="alpha" maskUnits="userSpaceOnUse" x="20" y="38" width="260" height="254">
<path d="M280 161C280 232.797 221.797 291 150 291C78.203 291 20 232.797 20 161C20 117.357 41.5066 78.7362 74.5 55.1588C105.5 36.5 149.978 35.832 191.5 41.0001C206.785 42.9025 215.5 49.0001 225.5 55.1588C258.493 78.7362 280 117.357 280 161Z" fill="white"/>
</mask>
<g mask="url(#mask0)">
<path d="M280 161C280 232.797 221.797 291 150 291C78.203 291 20 232.797 20 161C20 117.357 41.5066 78.7362 74.5 55.1588C87 54.5001 111.924 37.128 124.5 44.5C139 53 144.248 45.2505 156.5 43.5002C163.5 42.5001 166.961 47.7344 172 48.0001C177.52 48.2912 183.005 42.6917 189.5 43.5002C204.785 45.4026 210 52.0001 225.5 55.1588C258.493 78.7362 280 117.357 280 161Z" fill="url(#paint1_linear)"/>
<path d="M73.5 54.5002C79.5 62.5001 111.424 37.3654 124 44.7375C138.5 53.2375 143.748 46.4878 156 44.7374C163 43.7374 166.461 48.9717 171.5 49.2374C177.02 49.5284 181.966 45.296 189 44.7374C202.48 43.6671 213 59.0001 227 54.0001" stroke="white" stroke-width="4"/>
</g>
<path d="M124.349 33.7611L116.527 37.0794C115.524 37.5049 115.828 39 116.918 39H121.217C124.345 39 127.412 39.8631 130.081 41.4942L131.87 42.5872C133.641 43.6693 135.945 43.2175 137.176 41.5469L139.713 38.1036C141.227 36.0489 142.389 33.7565 143.15 31.3204L146.369 21.018C146.764 19.7554 147.757 18.7696 149.023 18.3844L154.914 16.5913C157.108 15.9235 158.73 14.0636 159.092 11.7992L160.012 6.0472C160.166 5.08985 159.003 4.49654 158.318 5.1821L156.222 7.27775C153.124 10.3756 149.294 12.6405 145.087 13.862L138.137 15.8795C136.777 16.2745 135.648 17.2281 135.031 18.5034L130.464 27.9409C129.198 30.5576 127.025 32.6258 124.349 33.7611Z" fill="white"/>
<path d="M172 12C169.271 4.51899 166.09 1.59806 164.505 0.542975C164 0.207225 163.401 0.530171 163.289 1.12566L161.006 13.2995C160.691 14.9812 159.538 16.385 157.949 17.0204L149.471 20.4117C148.55 20.7798 147.871 21.5787 147.656 22.5463L145.986 30.0644C145.333 33.0023 144.211 35.8156 142.662 38.3963L140.334 42.2765C139.863 43.061 140.606 44.0133 141.482 43.748L149.607 41.2858C153.486 40.1104 157.605 39.7132 161.551 40.6366C164.744 41.3836 167.288 42.2946 170.273 43.675C171.371 44.1826 172.636 44.1978 173.742 43.7068C177.957 41.8346 181.093 40.8332 185.901 39.9449C186.806 39.7778 187.074 38.5433 186.353 37.9715C178.408 31.6701 175.51 21.6218 172 12Z" fill="white"/>
<path opacity="0.2" d="M116.26 51.3808L108.391 53.9099C106.37 54.5595 105 56.4395 105 58.5622C105 61.6361 106.576 64.4953 109.175 66.1368L109.858 66.5685C112.923 68.5037 115.574 71.0258 117.659 73.9896L121.61 79.6039C123.108 81.7331 125.549 83 128.153 83H139.961C140.792 83 141.261 82.045 140.752 81.3878L132.721 71.0141C130.957 68.7361 130 65.9368 130 63.0558V56.1937C130 54.8872 129.155 53.731 127.91 53.3349L121.743 51.3727C119.959 50.8051 118.042 50.8079 116.26 51.3808Z" fill="white"/>
<path opacity="0.2" d="M198.5 74.1045V58.0476C198.5 56.8126 197.743 55.7039 196.593 55.2539L187.95 51.8717C187.334 51.6307 186.656 51.6 186.02 51.7844L175.891 54.7251C173.021 55.5584 169.975 55.5711 167.098 54.762L159.857 52.7255C157.013 51.9256 153.999 51.966 151.177 52.8416L147.507 53.9805C143.229 55.3084 138.698 55.6164 134.279 54.8799C133.086 54.681 132 55.601 132 56.8105V66.5C132 67.1491 132.211 67.7807 132.6 68.3L141 79.5C142.947 82.0964 145.684 83.9912 148.8 84.9L163.614 89.2207C166.439 90.0447 169.468 89.8019 172.126 88.5383L196.788 76.8139C197.834 76.3167 198.5 75.2623 198.5 74.1045Z" fill="white"/>
<line x1="72" y1="78" x2="86" y2="78" stroke="white" stroke-width="4" stroke-linecap="round" stroke-linejoin="round"/>
<line x1="166" y1="64" x2="180" y2="64" stroke="white" stroke-width="4" stroke-linecap="round" stroke-linejoin="round"/>
<line x1="101" y1="63" x2="109" y2="63" stroke="white" stroke-width="4" stroke-linecap="round" stroke-linejoin="round"/>
<line x1="136" y1="74" x2="144" y2="74" stroke="white" stroke-width="4" stroke-linecap="round" stroke-linejoin="round"/>
<line x1="189" y1="78" x2="197" y2="78" stroke="white" stroke-width="4" stroke-linecap="round" stroke-linejoin="round"/>
<line x1="223" y1="72" x2="231" y2="72" stroke="white" stroke-width="4" stroke-linecap="round" stroke-linejoin="round"/>
<path d="M67.9525 146V144.992L71.9845 140.928C73.1365 139.776 73.7125 138.789 73.7125 137.968C73.7125 137.253 73.4885 136.699 73.0405 136.304C72.6032 135.899 72.0752 135.696 71.4565 135.696C70.3045 135.696 69.4672 136.224 68.9445 137.28L68.0005 136.72C68.3525 136.027 68.8325 135.504 69.4405 135.152C70.0485 134.789 70.7205 134.608 71.4565 134.608C72.3525 134.608 73.1365 134.912 73.8085 135.52C74.4912 136.117 74.8325 136.933 74.8325 137.968C74.8325 138.619 74.6512 139.243 74.2885 139.84C73.9258 140.437 73.4138 141.067 72.7525 141.728L69.5525 144.912H75.0725V146H67.9525ZM79.8806 139.312C80.926 139.312 81.8113 139.621 82.5366 140.24C83.2726 140.848 83.6406 141.685 83.6406 142.752C83.6406 143.819 83.2726 144.661 82.5366 145.28C81.8113 145.888 80.926 146.192 79.8806 146.192C79.038 146.192 78.286 145.989 77.6246 145.584C76.9633 145.168 76.5153 144.576 76.2806 143.808L77.2246 143.264C77.3846 143.861 77.6993 144.32 78.1686 144.64C78.6486 144.949 79.2193 145.104 79.8806 145.104C80.6486 145.104 81.278 144.901 81.7686 144.496C82.27 144.08 82.5206 143.499 82.5206 142.752C82.5206 142.005 82.27 141.429 81.7686 141.024C81.278 140.608 80.6486 140.4 79.8806 140.4H76.8406L77.2406 134.8H83.2406V135.856H78.2326L77.9926 139.312H79.8806ZM95.1613 138V139.024H92.3293V146H91.2733V139.024H88.4413V138H95.1613ZM99.6961 141.04C100.443 141.04 101.072 141.275 101.584 141.744C102.107 142.203 102.368 142.795 102.368 143.52C102.368 144.245 102.107 144.843 101.584 145.312C101.072 145.771 100.443 146 99.6961 146H96.4481V138H97.5041V141.04H99.6961ZM103.488 138H104.544V146H103.488V138ZM99.6961 144.976C100.144 144.976 100.523 144.843 100.832 144.576C101.152 144.309 101.312 143.957 101.312 143.52C101.312 143.083 101.152 142.731 100.832 142.464C100.523 142.197 100.144 142.064 99.6961 142.064H97.5041V144.976H99.6961ZM110.52 146.192C109.315 146.192 108.312 145.792 107.512 144.992C106.712 144.181 106.312 143.184 106.312 142C106.312 140.816 106.712 139.824 107.512 139.024C108.312 138.213 109.315 137.808 110.52 137.808C111.309 137.808 112.019 138 112.648 138.384C113.277 138.757 113.736 139.264 114.024 139.904L113.16 140.4C112.947 139.92 112.6 139.541 112.12 139.264C111.651 138.976 111.117 138.832 110.52 138.832C109.635 138.832 108.888 139.141 108.28 139.76C107.672 140.368 107.368 141.115 107.368 142C107.368 142.885 107.672 143.637 108.28 144.256C108.888 144.864 109.635 145.168 110.52 145.168C111.117 145.168 111.651 145.029 112.12 144.752C112.589 144.464 112.957 144.08 113.224 143.6L114.104 144.112C113.773 144.752 113.288 145.259 112.648 145.632C112.008 146.005 111.299 146.192 110.52 146.192ZM121.224 138V146H120.168V142.928H118.792L116.328 146H114.984L117.512 142.896C116.872 142.8 116.344 142.533 115.928 142.096C115.512 141.659 115.304 141.12 115.304 140.48C115.304 139.755 115.56 139.163 116.072 138.704C116.594 138.235 117.229 138 117.976 138H121.224ZM117.976 141.936H120.168V139.024H117.976C117.528 139.024 117.144 139.157 116.824 139.424C116.514 139.691 116.36 140.043 116.36 140.48C116.36 140.917 116.514 141.269 116.824 141.536C117.144 141.803 117.528 141.936 117.976 141.936ZM128.648 138H129.704V146H128.648V142.96C128.029 143.28 127.266 143.44 126.36 143.44C125.314 143.44 124.514 143.2 123.96 142.72C123.416 142.229 123.144 141.509 123.144 140.56V138H124.2V140.56C124.2 141.232 124.376 141.717 124.728 142.016C125.08 142.304 125.613 142.448 126.328 142.448C127.16 142.448 127.933 142.293 128.648 141.984V138ZM142.508 138V146H141.452V139.024H137.836V142.592C137.836 143.925 137.58 144.843 137.068 145.344C136.567 145.845 135.873 146.064 134.988 146V145.008C135.596 145.072 136.044 144.928 136.332 144.576C136.631 144.224 136.78 143.563 136.78 142.592V138H142.508ZM148.441 137.808C149.625 137.808 150.58 138.229 151.305 139.072C152.041 139.904 152.409 140.891 152.409 142.032C152.409 142.149 152.398 142.315 152.377 142.528H145.353C145.46 143.339 145.801 143.984 146.377 144.464C146.964 144.933 147.684 145.168 148.537 145.168C149.145 145.168 149.668 145.045 150.105 144.8C150.553 144.544 150.889 144.213 151.113 143.808L152.041 144.352C151.689 144.917 151.209 145.365 150.601 145.696C149.993 146.027 149.3 146.192 148.521 146.192C147.262 146.192 146.238 145.797 145.449 145.008C144.66 144.219 144.265 143.216 144.265 142C144.265 140.805 144.654 139.808 145.433 139.008C146.212 138.208 147.214 137.808 148.441 137.808ZM148.441 138.832C147.609 138.832 146.91 139.083 146.345 139.584C145.79 140.075 145.46 140.715 145.353 141.504H151.321C151.214 140.661 150.889 140.005 150.345 139.536C149.801 139.067 149.166 138.832 148.441 138.832ZM159.536 138V139.024H156.704V146H155.648V139.024H152.816V138H159.536ZM170.487 138H171.543V146H170.487V142.512H165.879V146H164.823V138H165.879V141.488H170.487V138ZM180.656 138H181.712V146H180.656V144.432C179.92 145.605 178.843 146.192 177.424 146.192C176.283 146.192 175.307 145.787 174.496 144.976C173.696 144.165 173.296 143.173 173.296 142C173.296 140.827 173.696 139.835 174.496 139.024C175.307 138.213 176.283 137.808 177.424 137.808C178.843 137.808 179.92 138.395 180.656 139.568V138ZM175.264 144.256C175.872 144.864 176.619 145.168 177.504 145.168C178.39 145.168 179.136 144.864 179.744 144.256C180.352 143.637 180.656 142.885 180.656 142C180.656 141.115 180.352 140.368 179.744 139.76C179.136 139.141 178.39 138.832 177.504 138.832C176.619 138.832 175.872 139.141 175.264 139.76C174.656 140.368 174.352 141.115 174.352 142C174.352 142.885 174.656 143.637 175.264 144.256ZM188.076 141.888C189.004 142.24 189.468 142.88 189.468 143.808C189.468 144.469 189.207 145.035 188.684 145.504C188.172 145.963 187.436 146.192 186.476 146.192C184.865 146.192 183.809 145.552 183.308 144.272L184.204 143.744C184.535 144.693 185.292 145.168 186.476 145.168C187.095 145.168 187.569 145.035 187.9 144.768C188.241 144.501 188.412 144.16 188.412 143.744C188.412 143.371 188.273 143.067 187.996 142.832C187.719 142.597 187.345 142.48 186.876 142.48H185.708V141.456H186.556C187.015 141.456 187.372 141.344 187.628 141.12C187.895 140.885 188.028 140.565 188.028 140.16C188.028 139.776 187.873 139.461 187.564 139.216C187.255 138.96 186.839 138.832 186.316 138.832C185.313 138.832 184.647 139.232 184.316 140.032L183.436 139.52C183.969 138.379 184.929 137.808 186.316 137.808C187.159 137.808 187.831 138.032 188.332 138.48C188.833 138.917 189.084 139.456 189.084 140.096C189.084 140.917 188.748 141.515 188.076 141.888ZM197.953 138H199.009V146H197.953V144.432C197.217 145.605 196.14 146.192 194.721 146.192C193.58 146.192 192.604 145.787 191.793 144.976C190.993 144.165 190.593 143.173 190.593 142C190.593 140.827 190.993 139.835 191.793 139.024C192.604 138.213 193.58 137.808 194.721 137.808C196.14 137.808 197.217 138.395 197.953 139.568V138ZM192.561 144.256C193.169 144.864 193.916 145.168 194.801 145.168C195.686 145.168 196.433 144.864 197.041 144.256C197.649 143.637 197.953 142.885 197.953 142C197.953 141.115 197.649 140.368 197.041 139.76C196.433 139.141 195.686 138.832 194.801 138.832C193.916 138.832 193.169 139.141 192.561 139.76C191.953 140.368 191.649 141.115 191.649 142C191.649 142.885 191.953 143.637 192.561 144.256ZM207.965 144.976H209.085V148.144H208.029V146H201.501V148.144H200.445V144.976H201.421C201.965 144.261 202.237 143.253 202.237 141.952V138H207.965V144.976ZM202.701 144.976H206.909V139.024H203.293V141.952C203.293 143.179 203.096 144.187 202.701 144.976ZM220.347 138H221.403V146H220.347V142.512H215.739V146H214.683V138H215.739V141.488H220.347V138ZM230.516 138H231.572V146H230.516V144.432C229.78 145.605 228.702 146.192 227.284 146.192C226.142 146.192 225.166 145.787 224.356 144.976C223.556 144.165 223.156 143.173 223.156 142C223.156 140.827 223.556 139.835 224.356 139.024C225.166 138.213 226.142 137.808 227.284 137.808C228.702 137.808 229.78 138.395 230.516 139.568V138ZM225.124 144.256C225.732 144.864 226.478 145.168 227.364 145.168C228.249 145.168 228.996 144.864 229.604 144.256C230.212 143.637 230.516 142.885 230.516 142C230.516 141.115 230.212 140.368 229.604 139.76C228.996 139.141 228.249 138.832 227.364 138.832C226.478 138.832 225.732 139.141 225.124 139.76C224.516 140.368 224.212 141.115 224.212 142C224.212 142.885 224.516 143.637 225.124 144.256ZM75.1222 162V163.024H72.2902V170H71.2342V163.024H68.4022V162H75.1222ZM79.7926 161.808C80.9766 161.808 81.9312 162.229 82.6566 163.072C83.3926 163.904 83.7606 164.891 83.7606 166.032C83.7606 166.149 83.7499 166.315 83.7286 166.528H76.7046C76.8112 167.339 77.1526 167.984 77.7286 168.464C78.3152 168.933 79.0352 169.168 79.8886 169.168C80.4966 169.168 81.0192 169.045 81.4566 168.8C81.9046 168.544 82.2406 168.213 82.4646 167.808L83.3926 168.352C83.0406 168.917 82.5606 169.365 81.9526 169.696C81.3446 170.027 80.6512 170.192 79.8726 170.192C78.6139 170.192 77.5899 169.797 76.8006 169.008C76.0112 168.219 75.6166 167.216 75.6166 166C75.6166 164.805 76.0059 163.808 76.7846 163.008C77.5632 162.208 78.5659 161.808 79.7926 161.808ZM79.7926 162.832C78.9606 162.832 78.2619 163.083 77.6966 163.584C77.1419 164.075 76.8112 164.715 76.7046 165.504H82.6726C82.5659 164.661 82.2406 164.005 81.6966 163.536C81.1526 163.067 80.5179 162.832 79.7926 162.832ZM89.7283 161.808C90.8696 161.808 91.8403 162.213 92.6403 163.024C93.451 163.835 93.8563 164.827 93.8563 166C93.8563 167.173 93.451 168.165 92.6403 168.976C91.8403 169.787 90.8696 170.192 89.7283 170.192C88.3096 170.192 87.2323 169.605 86.4963 168.432V173.2H85.4403V162H86.4963V163.568C87.2323 162.395 88.3096 161.808 89.7283 161.808ZM87.4083 168.256C88.0163 168.864 88.763 169.168 89.6483 169.168C90.5336 169.168 91.2803 168.864 91.8883 168.256C92.4963 167.637 92.8003 166.885 92.8003 166C92.8003 165.115 92.4963 164.368 91.8883 163.76C91.2803 163.141 90.5336 162.832 89.6483 162.832C88.763 162.832 88.0163 163.141 87.4083 163.76C86.8003 164.368 86.4963 165.115 86.4963 166C86.4963 166.885 86.8003 167.637 87.4083 168.256ZM99.9002 161.808C101.042 161.808 102.012 162.213 102.812 163.024C103.623 163.835 104.028 164.827 104.028 166C104.028 167.173 103.623 168.165 102.812 168.976C102.012 169.787 101.042 170.192 99.9002 170.192C98.4815 170.192 97.4042 169.605 96.6682 168.432V173.2H95.6122V162H96.6682V163.568C97.4042 162.395 98.4815 161.808 99.9002 161.808ZM97.5802 168.256C98.1882 168.864 98.9349 169.168 99.8202 169.168C100.706 169.168 101.452 168.864 102.06 168.256C102.668 167.637 102.972 166.885 102.972 166C102.972 165.115 102.668 164.368 102.06 163.76C101.452 163.141 100.706 162.832 99.8202 162.832C98.9349 162.832 98.1882 163.141 97.5802 163.76C96.9722 164.368 96.6682 165.115 96.6682 166C96.6682 166.885 96.9722 167.637 97.5802 168.256ZM111.608 162H112.504V170H111.448V163.84L106.68 170H105.784V162H106.84V168.16L111.608 162ZM120.497 162V163.024H117.665V170H116.609V163.024H113.777V162H120.497ZM128.176 168.992C127.365 169.792 126.373 170.192 125.2 170.192C124.026 170.192 123.029 169.792 122.208 168.992C121.397 168.181 120.992 167.184 120.992 166C120.992 164.816 121.397 163.824 122.208 163.024C123.029 162.213 124.026 161.808 125.2 161.808C126.373 161.808 127.365 162.213 128.176 163.024C128.997 163.824 129.408 164.816 129.408 166C129.408 167.184 128.997 168.181 128.176 168.992ZM122.96 168.256C123.568 168.864 124.314 169.168 125.2 169.168C126.085 169.168 126.832 168.864 127.44 168.256C128.048 167.637 128.352 166.885 128.352 166C128.352 165.115 128.048 164.368 127.44 163.76C126.832 163.141 126.085 162.832 125.2 162.832C124.314 162.832 123.568 163.141 122.96 163.76C122.352 164.368 122.048 165.115 122.048 166C122.048 166.885 122.352 167.637 122.96 168.256ZM135.463 161.808C136.604 161.808 137.575 162.213 138.375 163.024C139.185 163.835 139.591 164.827 139.591 166C139.591 167.173 139.185 168.165 138.375 168.976C137.575 169.787 136.604 170.192 135.463 170.192C134.044 170.192 132.967 169.605 132.231 168.432V173.2H131.175V162H132.231V163.568C132.967 162.395 134.044 161.808 135.463 161.808ZM133.143 168.256C133.751 168.864 134.497 169.168 135.383 169.168C136.268 169.168 137.015 168.864 137.623 168.256C138.231 167.637 138.535 166.885 138.535 166C138.535 165.115 138.231 164.368 137.623 163.76C137.015 163.141 136.268 162.832 135.383 162.832C134.497 162.832 133.751 163.141 133.143 163.76C132.535 164.368 132.231 165.115 132.231 166C132.231 166.885 132.535 167.637 133.143 168.256ZM147.171 162H148.067V170H147.011V163.84L142.243 170H141.347V162H142.403V168.16L147.171 162ZM156.124 162H157.02V170H155.964V163.84L151.196 170H150.3V162H151.356V168.16L156.124 162ZM170.453 158.8V159.856H167.013V170H165.893V159.856H162.453V158.8H170.453ZM175.856 165.888C176.731 166.208 177.168 166.832 177.168 167.76C177.168 168.411 176.95 168.949 176.512 169.376C176.086 169.792 175.467 170 174.656 170H170.768V162H174.336C175.115 162 175.718 162.203 176.144 162.608C176.571 163.003 176.784 163.515 176.784 164.144C176.784 164.944 176.475 165.525 175.856 165.888ZM174.336 163.024H171.824V165.456H174.336C175.264 165.456 175.728 165.04 175.728 164.208C175.728 163.835 175.606 163.547 175.36 163.344C175.126 163.131 174.784 163.024 174.336 163.024ZM174.656 168.976C175.126 168.976 175.483 168.864 175.728 168.64C175.984 168.416 176.112 168.101 176.112 167.696C176.112 167.323 175.984 167.029 175.728 166.816C175.483 166.592 175.126 166.48 174.656 166.48H171.824V168.976H174.656ZM182.464 161.808C183.648 161.808 184.603 162.229 185.328 163.072C186.064 163.904 186.432 164.891 186.432 166.032C186.432 166.149 186.422 166.315 186.4 166.528H179.376C179.483 167.339 179.824 167.984 180.4 168.464C180.987 168.933 181.707 169.168 182.56 169.168C183.168 169.168 183.691 169.045 184.128 168.8C184.576 168.544 184.912 168.213 185.136 167.808L186.064 168.352C185.712 168.917 185.232 169.365 184.624 169.696C184.016 170.027 183.323 170.192 182.544 170.192C181.286 170.192 180.262 169.797 179.472 169.008C178.683 168.219 178.288 167.216 178.288 166C178.288 164.805 178.678 163.808 179.456 163.008C180.235 162.208 181.238 161.808 182.464 161.808ZM182.464 162.832C181.632 162.832 180.934 163.083 180.368 163.584C179.814 164.075 179.483 164.715 179.376 165.504H185.344C185.238 164.661 184.912 164.005 184.368 163.536C183.824 163.067 183.19 162.832 182.464 162.832ZM192.4 161.808C193.542 161.808 194.512 162.213 195.312 163.024C196.123 163.835 196.528 164.827 196.528 166C196.528 167.173 196.123 168.165 195.312 168.976C194.512 169.787 193.542 170.192 192.4 170.192C190.982 170.192 189.904 169.605 189.168 168.432V173.2H188.112V162H189.168V163.568C189.904 162.395 190.982 161.808 192.4 161.808ZM190.08 168.256C190.688 168.864 191.435 169.168 192.32 169.168C193.206 169.168 193.952 168.864 194.56 168.256C195.168 167.637 195.472 166.885 195.472 166C195.472 165.115 195.168 164.368 194.56 163.76C193.952 163.141 193.206 162.832 192.32 162.832C191.435 162.832 190.688 163.141 190.08 163.76C189.472 164.368 189.168 165.115 189.168 166C189.168 166.885 189.472 167.637 190.08 168.256ZM202.012 170.192C200.807 170.192 199.804 169.792 199.004 168.992C198.204 168.181 197.804 167.184 197.804 166C197.804 164.816 198.204 163.824 199.004 163.024C199.804 162.213 200.807 161.808 202.012 161.808C202.801 161.808 203.511 162 204.14 162.384C204.769 162.757 205.228 163.264 205.516 163.904L204.652 164.4C204.439 163.92 204.092 163.541 203.612 163.264C203.143 162.976 202.609 162.832 202.012 162.832C201.127 162.832 200.38 163.141 199.772 163.76C199.164 164.368 198.86 165.115 198.86 166C198.86 166.885 199.164 167.637 199.772 168.256C200.38 168.864 201.127 169.168 202.012 169.168C202.609 169.168 203.143 169.029 203.612 168.752C204.081 168.464 204.449 168.08 204.716 167.6L205.596 168.112C205.265 168.752 204.78 169.259 204.14 169.632C203.5 170.005 202.791 170.192 202.012 170.192ZM213.576 170H212.168L208.168 166.144V170H207.112V162H208.168V165.536L211.976 162H213.416L209.288 165.84L213.576 170ZM220.926 168.992C220.115 169.792 219.123 170.192 217.95 170.192C216.776 170.192 215.779 169.792 214.958 168.992C214.147 168.181 213.742 167.184 213.742 166C213.742 164.816 214.147 163.824 214.958 163.024C215.779 162.213 216.776 161.808 217.95 161.808C219.123 161.808 220.115 162.213 220.926 163.024C221.747 163.824 222.158 164.816 222.158 166C222.158 167.184 221.747 168.181 220.926 168.992ZM215.71 168.256C216.318 168.864 217.064 169.168 217.95 169.168C218.835 169.168 219.582 168.864 220.19 168.256C220.798 167.637 221.102 166.885 221.102 166C221.102 165.115 220.798 164.368 220.19 163.76C219.582 163.141 218.835 162.832 217.95 162.832C217.064 162.832 216.318 163.141 215.71 163.76C215.102 164.368 214.798 165.115 214.798 166C214.798 166.885 215.102 167.637 215.71 168.256ZM225.205 160.72V159.792H229.365V160.72H225.205ZM229.749 162H230.645V170H229.589V163.84L224.821 170H223.925V162H224.981V168.16L229.749 162ZM84.7849 192.992C83.9743 193.792 82.9823 194.192 81.8089 194.192C80.6356 194.192 79.6383 193.792 78.8169 192.992C78.0063 192.181 77.6009 191.184 77.6009 190C77.6009 188.816 78.0063 187.824 78.8169 187.024C79.6383 186.213 80.6356 185.808 81.8089 185.808C82.9823 185.808 83.9743 186.213 84.7849 187.024C85.6063 187.824 86.0169 188.816 86.0169 190C86.0169 191.184 85.6063 192.181 84.7849 192.992ZM79.5689 192.256C80.1769 192.864 80.9236 193.168 81.8089 193.168C82.6943 193.168 83.4409 192.864 84.0489 192.256C84.6569 191.637 84.9609 190.885 84.9609 190C84.9609 189.115 84.6569 188.368 84.0489 187.76C83.4409 187.141 82.6943 186.832 81.8089 186.832C80.9236 186.832 80.1769 187.141 79.5689 187.76C78.9609 188.368 78.6569 189.115 78.6569 190C78.6569 190.885 78.9609 191.637 79.5689 192.256ZM91.3361 194.192C90.1841 194.192 89.2241 193.813 88.4561 193.056C87.6881 192.288 87.3041 191.296 87.3041 190.08C87.3041 188.715 87.5067 187.669 87.9121 186.944C88.3174 186.208 89.1387 185.541 90.3761 184.944C90.6107 184.827 90.9201 184.688 91.3041 184.528C91.6987 184.368 91.9921 184.24 92.1841 184.144C92.3867 184.048 92.6054 183.925 92.8401 183.776C93.0747 183.616 93.2507 183.44 93.3681 183.248C93.4854 183.056 93.5601 182.827 93.5921 182.56L94.4241 183.04C94.3814 183.296 94.2961 183.536 94.1681 183.76C94.0401 183.984 93.9067 184.165 93.7681 184.304C93.6401 184.443 93.4321 184.597 93.1441 184.768C92.8667 184.928 92.6481 185.045 92.4881 185.12C92.3387 185.184 92.0721 185.296 91.6881 185.456C91.3147 185.616 91.0641 185.723 90.9361 185.776C90.1894 186.096 89.6401 186.432 89.2881 186.784C88.9361 187.125 88.6854 187.573 88.5361 188.128C88.8987 187.648 89.3574 187.296 89.9121 187.072C90.4774 186.837 91.0267 186.72 91.5601 186.72C92.6267 186.72 93.5067 187.072 94.2001 187.776C94.9041 188.469 95.2561 189.36 95.2561 190.448C95.2561 191.525 94.8827 192.421 94.1361 193.136C93.4001 193.84 92.4667 194.192 91.3361 194.192ZM91.3361 193.136C92.1681 193.136 92.8507 192.885 93.3841 192.384C93.9281 191.872 94.2001 191.227 94.2001 190.448C94.2001 189.659 93.9441 189.013 93.4321 188.512C92.9307 188 92.2587 187.744 91.4161 187.744C90.6587 187.744 89.9707 187.984 89.3521 188.464C88.7334 188.933 88.4241 189.563 88.4241 190.352C88.4241 191.163 88.7014 191.829 89.2561 192.352C89.8214 192.875 90.5147 193.136 91.3361 193.136ZM103.11 186V194H102.054V187.024H98.4377V190.592C98.4377 191.925 98.1817 192.843 97.6697 193.344C97.1684 193.845 96.475 194.064 95.5897 194V193.008C96.1977 193.072 96.6457 192.928 96.9337 192.576C97.2324 192.224 97.3817 191.563 97.3817 190.592V186H103.11ZM112.227 186H113.283V194H112.227V192.432C111.491 193.605 110.413 194.192 108.995 194.192C107.853 194.192 106.877 193.787 106.067 192.976C105.267 192.165 104.867 191.173 104.867 190C104.867 188.827 105.267 187.835 106.067 187.024C106.877 186.213 107.853 185.808 108.995 185.808C110.413 185.808 111.491 186.395 112.227 187.568V186ZM106.835 192.256C107.443 192.864 108.189 193.168 109.075 193.168C109.96 193.168 110.707 192.864 111.315 192.256C111.923 191.637 112.227 190.885 112.227 190C112.227 189.115 111.923 188.368 111.315 187.76C110.707 187.141 109.96 186.832 109.075 186.832C108.189 186.832 107.443 187.141 106.835 187.76C106.227 188.368 105.923 189.115 105.923 190C105.923 190.885 106.227 191.637 106.835 192.256ZM119.246 194.192C118.041 194.192 117.038 193.792 116.238 192.992C115.438 192.181 115.038 191.184 115.038 190C115.038 188.816 115.438 187.824 116.238 187.024C117.038 186.213 118.041 185.808 119.246 185.808C120.036 185.808 120.745 186 121.374 186.384C122.004 186.757 122.462 187.264 122.75 187.904L121.886 188.4C121.673 187.92 121.326 187.541 120.846 187.264C120.377 186.976 119.844 186.832 119.246 186.832C118.361 186.832 117.614 187.141 117.006 187.76C116.398 188.368 116.094 189.115 116.094 190C116.094 190.885 116.398 191.637 117.006 192.256C117.614 192.864 118.361 193.168 119.246 193.168C119.844 193.168 120.377 193.029 120.846 192.752C121.316 192.464 121.684 192.08 121.95 191.6L122.83 192.112C122.5 192.752 122.014 193.259 121.374 193.632C120.734 194.005 120.025 194.192 119.246 194.192ZM129.95 186V187.024H127.118V194H126.062V187.024H123.23V186H129.95ZM137.061 186H137.957V194H136.901V187.84L132.133 194H131.237V186H132.293V192.16L137.061 186ZM149.854 186H150.91V194H149.854V190.512H145.246V194H144.19V186H145.246V189.488H149.854V186ZM160.023 186H161.079V194H160.023V192.432C159.287 193.605 158.21 194.192 156.791 194.192C155.65 194.192 154.674 193.787 153.863 192.976C153.063 192.165 152.663 191.173 152.663 190C152.663 188.827 153.063 187.835 153.863 187.024C154.674 186.213 155.65 185.808 156.791 185.808C158.21 185.808 159.287 186.395 160.023 187.568V186ZM154.631 192.256C155.239 192.864 155.986 193.168 156.871 193.168C157.757 193.168 158.503 192.864 159.111 192.256C159.719 191.637 160.023 190.885 160.023 190C160.023 189.115 159.719 188.368 159.111 187.76C158.503 187.141 157.757 186.832 156.871 186.832C155.986 186.832 155.239 187.141 154.631 187.76C154.023 188.368 153.719 189.115 153.719 190C153.719 190.885 154.023 191.637 154.631 192.256ZM170.035 194H168.771L166.275 190.704L163.779 194H162.515L165.651 189.856L162.723 186H163.987L166.275 189.024L168.563 186H169.827L166.915 189.856L170.035 194ZM177.613 192.992C176.802 193.792 175.81 194.192 174.637 194.192C173.464 194.192 172.466 193.792 171.645 192.992C170.834 192.181 170.429 191.184 170.429 190C170.429 188.816 170.834 187.824 171.645 187.024C172.466 186.213 173.464 185.808 174.637 185.808C175.81 185.808 176.802 186.213 177.613 187.024C178.434 187.824 178.845 188.816 178.845 190C178.845 191.184 178.434 192.181 177.613 192.992ZM172.397 192.256C173.005 192.864 173.752 193.168 174.637 193.168C175.522 193.168 176.269 192.864 176.877 192.256C177.485 191.637 177.789 190.885 177.789 190C177.789 189.115 177.485 188.368 176.877 187.76C176.269 187.141 175.522 186.832 174.637 186.832C173.752 186.832 173.005 187.141 172.397 187.76C171.789 188.368 171.485 189.115 171.485 190C171.485 190.885 171.789 191.637 172.397 192.256ZM187.02 192.976H188.14V196.144H187.084V194H180.556V196.144H179.5V192.976H180.476C181.02 192.261 181.292 191.253 181.292 189.952V186H187.02V192.976ZM181.756 192.976H185.964V187.024H182.348V189.952C182.348 191.179 182.15 192.187 181.756 192.976ZM195.561 186H196.457V194H195.401V187.84L190.633 194H189.737V186H190.793V192.16L195.561 186ZM205.25 186V194H204.194V187.024H200.578V190.592C200.578 191.925 200.322 192.843 199.81 193.344C199.309 193.845 198.616 194.064 197.73 194V193.008C198.338 193.072 198.786 192.928 199.074 192.576C199.373 192.224 199.522 191.563 199.522 190.592V186H205.25ZM211.215 194.192C210.01 194.192 209.007 193.792 208.207 192.992C207.407 192.181 207.007 191.184 207.007 190C207.007 188.816 207.407 187.824 208.207 187.024C209.007 186.213 210.01 185.808 211.215 185.808C212.005 185.808 212.714 186 213.343 186.384C213.973 186.757 214.431 187.264 214.719 187.904L213.855 188.4C213.642 187.92 213.295 187.541 212.815 187.264C212.346 186.976 211.813 186.832 211.215 186.832C210.33 186.832 209.583 187.141 208.975 187.76C208.367 188.368 208.063 189.115 208.063 190C208.063 190.885 208.367 191.637 208.975 192.256C209.583 192.864 210.33 193.168 211.215 193.168C211.813 193.168 212.346 193.029 212.815 192.752C213.285 192.464 213.653 192.08 213.919 191.6L214.799 192.112C214.469 192.752 213.983 193.259 213.343 193.632C212.703 194.005 211.994 194.192 211.215 194.192ZM221.919 186V194H220.863V190.928H219.487L217.023 194H215.679L218.207 190.896C217.567 190.8 217.039 190.533 216.623 190.096C216.207 189.659 215.999 189.12 215.999 188.48C215.999 187.755 216.255 187.163 216.767 186.704C217.29 186.235 217.924 186 218.671 186H221.919ZM218.671 189.936H220.863V187.024H218.671C218.223 187.024 217.839 187.157 217.519 187.424C217.21 187.691 217.055 188.043 217.055 188.48C217.055 188.917 217.21 189.269 217.519 189.536C217.839 189.803 218.223 189.936 218.671 189.936ZM74.7393 216.512C73.6193 217.632 72.2486 218.192 70.6273 218.192C69.006 218.192 67.6353 217.632 66.5153 216.512C65.3953 215.381 64.8353 214.011 64.8353 212.4C64.8353 210.789 65.3953 209.424 66.5153 208.304C67.6353 207.173 69.006 206.608 70.6273 206.608C72.2486 206.608 73.6193 207.173 74.7393 208.304C75.8593 209.424 76.4193 210.789 76.4193 212.4C76.4193 214.011 75.8593 215.381 74.7393 216.512ZM67.2993 215.744C68.1953 216.651 69.3046 217.104 70.6273 217.104C71.95 217.104 73.0593 216.651 73.9553 215.744C74.8513 214.827 75.2993 213.712 75.2993 212.4C75.2993 211.088 74.8513 209.979 73.9553 209.072C73.0593 208.155 71.95 207.696 70.6273 207.696C69.3046 207.696 68.1953 208.155 67.2993 209.072C66.4033 209.979 65.9553 211.088 65.9553 212.4C65.9553 213.712 66.4033 214.827 67.2993 215.744ZM81.9027 218.192C80.6974 218.192 79.6947 217.792 78.8947 216.992C78.0947 216.181 77.6947 215.184 77.6947 214C77.6947 212.816 78.0947 211.824 78.8947 211.024C79.6947 210.213 80.6974 209.808 81.9027 209.808C82.692 209.808 83.4014 210 84.0307 210.384C84.66 210.757 85.1187 211.264 85.4067 211.904L84.5427 212.4C84.3294 211.92 83.9827 211.541 83.5027 211.264C83.0334 210.976 82.5 210.832 81.9027 210.832C81.0174 210.832 80.2707 211.141 79.6627 211.76C79.0547 212.368 78.7507 213.115 78.7507 214C78.7507 214.885 79.0547 215.637 79.6627 216.256C80.2707 216.864 81.0174 217.168 81.9027 217.168C82.5 217.168 83.0334 217.029 83.5027 216.752C83.972 216.464 84.34 216.08 84.6067 215.6L85.4867 216.112C85.156 216.752 84.6707 217.259 84.0307 217.632C83.3907 218.005 82.6814 218.192 81.9027 218.192ZM92.6066 210V211.024H89.7746V218H88.7186V211.024H85.8866V210H92.6066ZM100.461 210H101.517V218H100.461V216.432C99.7249 217.605 98.6476 218.192 97.2289 218.192C96.0876 218.192 95.1116 217.787 94.3009 216.976C93.5009 216.165 93.1009 215.173 93.1009 214C93.1009 212.827 93.5009 211.835 94.3009 211.024C95.1116 210.213 96.0876 209.808 97.2289 209.808C98.6476 209.808 99.7249 210.395 100.461 211.568V210ZM95.0689 216.256C95.6769 216.864 96.4236 217.168 97.3089 217.168C98.1943 217.168 98.9409 216.864 99.5489 216.256C100.157 215.637 100.461 214.885 100.461 214C100.461 213.115 100.157 212.368 99.5489 211.76C98.9409 211.141 98.1943 210.832 97.3089 210.832C96.4236 210.832 95.6769 211.141 95.0689 211.76C94.4609 212.368 94.1569 213.115 94.1569 214C94.1569 214.885 94.4609 215.637 95.0689 216.256ZM113.417 210H114.473V218H103.753V210H104.809V216.976H108.585V210H109.641V216.976H113.417V210ZM123.17 218H121.762L117.762 214.144V218H116.706V210H117.762V213.536L121.57 210H123.01L118.882 213.84L123.17 218ZM130.519 216.992C129.709 217.792 128.717 218.192 127.543 218.192C126.37 218.192 125.373 217.792 124.551 216.992C123.741 216.181 123.335 215.184 123.335 214C123.335 212.816 123.741 211.824 124.551 211.024C125.373 210.213 126.37 209.808 127.543 209.808C128.717 209.808 129.709 210.213 130.519 211.024C131.341 211.824 131.751 212.816 131.751 214C131.751 215.184 131.341 216.181 130.519 216.992ZM125.303 216.256C125.911 216.864 126.658 217.168 127.543 217.168C128.429 217.168 129.175 216.864 129.783 216.256C130.391 215.637 130.695 214.885 130.695 214C130.695 213.115 130.391 212.368 129.783 211.76C129.175 211.141 128.429 210.832 127.543 210.832C126.658 210.832 125.911 211.141 125.303 211.76C124.695 212.368 124.391 213.115 124.391 214C124.391 214.885 124.695 215.637 125.303 216.256ZM138.606 213.888C139.481 214.208 139.918 214.832 139.918 215.76C139.918 216.411 139.7 216.949 139.262 217.376C138.836 217.792 138.217 218 137.406 218H133.518V210H137.086C137.865 210 138.468 210.203 138.894 210.608C139.321 211.003 139.534 211.515 139.534 212.144C139.534 212.944 139.225 213.525 138.606 213.888ZM137.086 211.024H134.574V213.456H137.086C138.014 213.456 138.478 213.04 138.478 212.208C138.478 211.835 138.356 211.547 138.11 211.344C137.876 211.131 137.534 211.024 137.086 211.024ZM137.406 216.976C137.876 216.976 138.233 216.864 138.478 216.64C138.734 216.416 138.862 216.101 138.862 215.696C138.862 215.323 138.734 215.029 138.478 214.816C138.233 214.592 137.876 214.48 137.406 214.48H134.574V216.976H137.406ZM145.246 218.192C144.041 218.192 143.038 217.792 142.238 216.992C141.438 216.181 141.038 215.184 141.038 214C141.038 212.816 141.438 211.824 142.238 211.024C143.038 210.213 144.041 209.808 145.246 209.808C146.036 209.808 146.745 210 147.374 210.384C148.004 210.757 148.462 211.264 148.75 211.904L147.886 212.4C147.673 211.92 147.326 211.541 146.846 211.264C146.377 210.976 145.844 210.832 145.246 210.832C144.361 210.832 143.614 211.141 143.006 211.76C142.398 212.368 142.094 213.115 142.094 214C142.094 214.885 142.398 215.637 143.006 216.256C143.614 216.864 144.361 217.168 145.246 217.168C145.844 217.168 146.377 217.029 146.846 216.752C147.316 216.464 147.684 216.08 147.95 215.6L148.83 216.112C148.5 216.752 148.014 217.259 147.374 217.632C146.734 218.005 146.025 218.192 145.246 218.192ZM156.811 218H155.403L151.403 214.144V218H150.347V210H151.403V213.536L155.211 210H156.651L152.523 213.84L156.811 218ZM164.077 210H164.973V218H163.917V211.84L159.149 218H158.253V210H159.309V216.16L164.077 210ZM168.486 208.72V207.792H172.646V208.72H168.486ZM173.03 210H173.926V218H172.87V211.84L168.102 218H167.206V210H168.262V216.16L173.03 210ZM186.719 210V218H185.663V211.024H182.047V214.592C182.047 215.925 181.791 216.843 181.279 217.344C180.778 217.845 180.084 218.064 179.199 218V217.008C179.807 217.072 180.255 216.928 180.543 216.576C180.842 216.224 180.991 215.563 180.991 214.592V210H186.719ZM192.652 209.808C193.836 209.808 194.791 210.229 195.516 211.072C196.252 211.904 196.62 212.891 196.62 214.032C196.62 214.149 196.609 214.315 196.588 214.528H189.564C189.671 215.339 190.012 215.984 190.588 216.464C191.175 216.933 191.895 217.168 192.748 217.168C193.356 217.168 193.879 217.045 194.316 216.8C194.764 216.544 195.1 216.213 195.324 215.808L196.252 216.352C195.9 216.917 195.42 217.365 194.812 217.696C194.204 218.027 193.511 218.192 192.732 218.192C191.473 218.192 190.449 217.797 189.66 217.008C188.871 216.219 188.476 215.216 188.476 214C188.476 212.805 188.865 211.808 189.644 211.008C190.423 210.208 191.425 209.808 192.652 209.808ZM192.652 210.832C191.82 210.832 191.121 211.083 190.556 211.584C190.001 212.075 189.671 212.715 189.564 213.504H195.532C195.425 212.661 195.1 212.005 194.556 211.536C194.012 211.067 193.377 210.832 192.652 210.832ZM204.707 216.976H205.827V220.144H204.771V218H198.243V220.144H197.187V216.976H198.163C198.707 216.261 198.979 215.253 198.979 213.952V210H204.707V216.976ZM199.443 216.976H203.651V211.024H200.035V213.952C200.035 215.179 199.838 216.187 199.443 216.976ZM213.089 210H214.145V218H213.089V214.512H208.481V218H207.425V210H208.481V213.488H213.089V210ZM222.202 210H223.098V218H222.042V211.84L217.274 218H216.378V210H217.434V216.16L222.202 210ZM231.795 218H230.387L226.387 214.144V218H225.331V210H226.387V213.536L230.195 210H231.635L227.507 213.84L231.795 218ZM234.581 217.904C234.411 218.075 234.203 218.16 233.957 218.16C233.712 218.16 233.504 218.075 233.333 217.904C233.163 217.733 233.077 217.525 233.077 217.28C233.077 217.035 233.163 216.827 233.333 216.656C233.504 216.485 233.712 216.4 233.957 216.4C234.203 216.4 234.411 216.485 234.581 216.656C234.752 216.827 234.837 217.035 234.837 217.28C234.837 217.525 234.752 217.733 234.581 217.904Z" fill="white"/>
<defs>
<linearGradient id="paint0_linear" x1="150.422" y1="-1.3987" x2="152.243" y2="315.792" gradientUnits="userSpaceOnUse">
<stop stop-color="#05D8FC"/>
<stop offset="1" stop-color="#0597DD"/>
</linearGradient>
<linearGradient id="paint1_linear" x1="149.932" y1="29.1522" x2="151.368" y2="290.83" gradientUnits="userSpaceOnUse">
<stop stop-color="#05D8FC"/>
<stop offset="1" stop-color="#0597DD"/>
</linearGradient>
</defs>
</svg>
