<svg width="302" height="327" viewBox="0 0 302 327" fill="none" xmlns="http://www.w3.org/2000/svg">
<circle opacity="0.2" cx="151.18" cy="175.844" r="149" stroke="url(#paint0_linear)" stroke-width="3"/>
<circle cx="151.18" cy="175.844" r="128.96" fill="white"/>
<path d="M280.14 175.844C280.14 247.067 222.403 304.804 151.18 304.804C79.9572 304.804 22.2197 247.067 22.2197 175.844C22.2197 149.031 30.4026 124.129 44.4072 103.5C90.5 129 94.5421 82.8005 125.5 90C147 95 162.5 94 177 90C210.227 80.8339 198 115.5 262 109.853C273.521 129.159 280.14 151.728 280.14 175.844Z" fill="url(#paint1_linear)"/>
<path d="M65.5 32.4641C69.2128 30.3205 73.7872 30.3205 77.5 32.4641L97.976 44.2859C101.689 46.4295 103.976 50.391 103.976 54.6782V78.3218C103.976 82.609 101.689 86.5705 97.976 88.7141L77.5 100.536C73.7872 102.679 69.2128 102.679 65.5 100.536L45.024 88.7141C41.3112 86.5705 39.024 82.609 39.024 78.3218V54.6782C39.024 50.391 41.3112 46.4295 45.024 44.2859L65.5 32.4641Z" fill="#FF8A1E"/>
<path d="M67.2134 59.56C68.0934 59.56 68.8134 59.6933 69.3734 59.96C69.9468 60.2133 70.4534 60.5133 70.8934 60.86C71.1601 61.06 71.3601 61.0867 71.4934 60.94C71.6401 60.78 71.7401 60.4133 71.7934 59.84H72.2534C72.2268 60.36 72.2068 60.9933 72.1934 61.74C72.1801 62.4733 72.1734 63.4533 72.1734 64.68H71.7134C71.6468 64.0667 71.5601 63.5467 71.4534 63.12C71.3468 62.68 71.2001 62.2933 71.0134 61.96C70.8268 61.6267 70.5601 61.3267 70.2134 61.06C69.8801 60.7267 69.4934 60.48 69.0534 60.32C68.6134 60.16 68.1534 60.08 67.6734 60.08C66.9534 60.08 66.3401 60.2733 65.8334 60.66C65.3268 61.0333 64.9134 61.5467 64.5934 62.2C64.2868 62.8533 64.0601 63.5933 63.9134 64.42C63.7668 65.2333 63.6934 66.08 63.6934 66.96C63.6934 67.8533 63.7668 68.7133 63.9134 69.54C64.0734 70.3533 64.3134 71.08 64.6334 71.72C64.9668 72.36 65.3934 72.8667 65.9134 73.24C66.4334 73.6133 67.0468 73.8 67.7534 73.8C68.1934 73.8 68.6334 73.72 69.0734 73.56C69.5268 73.3867 69.9134 73.14 70.2334 72.82C70.7534 72.42 71.1068 71.9267 71.2934 71.34C71.4801 70.74 71.6201 69.9467 71.7134 68.96H72.1734C72.1734 70.2267 72.1801 71.2533 72.1934 72.04C72.2068 72.8133 72.2268 73.4667 72.2534 74H71.7934C71.7401 73.4267 71.6468 73.0667 71.5134 72.92C71.3934 72.7733 71.1868 72.7933 70.8934 72.98C70.4001 73.3267 69.8734 73.6333 69.3134 73.9C68.7668 74.1533 68.0601 74.28 67.1934 74.28C65.7801 74.28 64.5401 73.9933 63.4734 73.42C62.4201 72.8467 61.6001 72.02 61.0134 70.94C60.4268 69.86 60.1334 68.56 60.1334 67.04C60.1334 65.5467 60.4334 64.24 61.0334 63.12C61.6468 62 62.4801 61.1267 63.5334 60.5C64.6001 59.8733 65.8268 59.56 67.2134 59.56ZM76.495 74.14C75.6017 74.14 74.955 73.9067 74.555 73.44C74.155 72.9733 73.955 72.4067 73.955 71.74C73.955 71.1667 74.0817 70.7 74.335 70.34C74.6017 69.98 74.9417 69.6867 75.355 69.46C75.7683 69.22 76.2017 69.0267 76.655 68.88C77.1217 68.72 77.5617 68.5667 77.975 68.42C78.4017 68.26 78.7417 68.08 78.995 67.88C79.2617 67.68 79.395 67.4267 79.395 67.12V65.56C79.395 65.2133 79.335 64.9067 79.215 64.64C79.1083 64.36 78.935 64.1467 78.695 64C78.4683 63.8533 78.1683 63.78 77.795 63.78C77.5283 63.78 77.2617 63.82 76.995 63.9C76.7283 63.9667 76.5083 64.0867 76.335 64.26C76.7083 64.3933 76.995 64.6 77.195 64.88C77.4083 65.1467 77.515 65.4533 77.515 65.8C77.515 66.2533 77.355 66.6133 77.035 66.88C76.7283 67.1467 76.3617 67.28 75.935 67.28C75.455 67.28 75.0883 67.1333 74.835 66.84C74.595 66.5333 74.475 66.1667 74.475 65.74C74.475 65.3533 74.5683 65.0333 74.755 64.78C74.955 64.5267 75.2283 64.2867 75.575 64.06C75.9483 63.8467 76.395 63.68 76.915 63.56C77.4483 63.44 78.0217 63.38 78.635 63.38C79.2483 63.38 79.8017 63.4467 80.295 63.58C80.7883 63.7 81.2017 63.9267 81.535 64.26C81.8417 64.5667 82.0417 64.9467 82.135 65.4C82.2283 65.84 82.275 66.4 82.275 67.08V72.52C82.275 72.84 82.3083 73.0667 82.375 73.2C82.4417 73.3333 82.555 73.4 82.715 73.4C82.8483 73.4 82.975 73.3667 83.095 73.3C83.215 73.2333 83.3283 73.1533 83.435 73.06L83.635 73.4C83.355 73.64 83.0283 73.8267 82.655 73.96C82.295 74.08 81.8883 74.14 81.435 74.14C80.635 74.14 80.1017 73.98 79.835 73.66C79.5817 73.3267 79.4483 72.9467 79.435 72.52C79.1017 73.0667 78.6883 73.4733 78.195 73.74C77.715 74.0067 77.1483 74.14 76.495 74.14ZM78.035 72.86C78.2883 72.86 78.5217 72.8 78.735 72.68C78.9617 72.56 79.1817 72.3467 79.395 72.04V67.94C79.235 68.2067 79.0083 68.4333 78.715 68.62C78.435 68.7933 78.1417 68.9867 77.835 69.2C77.5417 69.4 77.295 69.66 77.095 69.98C76.895 70.3 76.795 70.7267 76.795 71.26C76.795 71.8333 76.915 72.2467 77.155 72.5C77.395 72.74 77.6883 72.86 78.035 72.86Z" fill="white"/>
<circle cx="151.5" cy="40.5" r="40.5" fill="#16B938"/>
<path d="M132.377 48V47.6C132.803 47.5733 133.123 47.52 133.337 47.44C133.55 47.36 133.69 47.2 133.757 46.96C133.837 46.72 133.877 46.36 133.877 45.88V35.96C133.877 35.4667 133.837 35.1067 133.757 34.88C133.69 34.64 133.543 34.48 133.317 34.4C133.103 34.3067 132.79 34.2533 132.377 34.24V33.84C132.737 33.8533 133.203 33.8667 133.777 33.88C134.363 33.8933 134.943 33.9 135.517 33.9C136.13 33.9 136.703 33.8933 137.237 33.88C137.783 33.8667 138.223 33.8533 138.557 33.84V34.24C138.13 34.2533 137.803 34.3067 137.577 34.4C137.363 34.48 137.223 34.64 137.157 34.88C137.09 35.1067 137.057 35.4667 137.057 35.96V45.88C137.057 46.36 137.09 46.72 137.157 46.96C137.237 47.2 137.383 47.36 137.597 47.44C137.81 47.52 138.13 47.5733 138.557 47.6V48C138.223 47.9733 137.783 47.96 137.237 47.96C136.703 47.9467 136.13 47.94 135.517 47.94C134.943 47.94 134.363 47.9467 133.777 47.96C133.203 47.96 132.737 47.9733 132.377 48ZM123.897 48V47.6C124.323 47.5733 124.643 47.52 124.857 47.44C125.07 47.36 125.21 47.2 125.277 46.96C125.357 46.72 125.397 46.36 125.397 45.88V35.96C125.397 35.4667 125.357 35.1067 125.277 34.88C125.21 34.64 125.063 34.48 124.837 34.4C124.623 34.3067 124.31 34.2533 123.897 34.24V33.84C124.243 33.8533 124.69 33.8667 125.237 33.88C125.797 33.8933 126.403 33.9 127.057 33.9C127.617 33.9 128.17 33.8933 128.717 33.88C129.263 33.8667 129.717 33.8533 130.077 33.84V34.24C129.65 34.2533 129.323 34.3067 129.097 34.4C128.883 34.48 128.743 34.64 128.677 34.88C128.61 35.1067 128.577 35.4667 128.577 35.96V45.88C128.577 46.36 128.61 46.72 128.677 46.96C128.757 47.2 128.903 47.36 129.117 47.44C129.33 47.52 129.65 47.5733 130.077 47.6V48C129.717 47.9733 129.263 47.96 128.717 47.96C128.17 47.9467 127.617 47.94 127.057 47.94C126.403 47.94 125.797 47.9467 125.237 47.96C124.69 47.96 124.243 47.9733 123.897 48ZM127.277 41.08V40.68H135.177V41.08H127.277ZM146.997 33.56C147.877 33.56 148.597 33.6933 149.157 33.96C149.73 34.2133 150.237 34.5133 150.677 34.86C150.943 35.06 151.143 35.0867 151.277 34.94C151.423 34.78 151.523 34.4133 151.577 33.84H152.037C152.01 34.36 151.99 34.9933 151.977 35.74C151.963 36.4733 151.957 37.4533 151.957 38.68H151.497C151.43 38.0667 151.343 37.5467 151.237 37.12C151.13 36.68 150.983 36.2933 150.797 35.96C150.61 35.6267 150.343 35.3267 149.997 35.06C149.663 34.7267 149.277 34.48 148.837 34.32C148.397 34.16 147.937 34.08 147.457 34.08C146.737 34.08 146.123 34.2733 145.617 34.66C145.11 35.0333 144.697 35.5467 144.377 36.2C144.07 36.8533 143.843 37.5933 143.697 38.42C143.55 39.2333 143.477 40.08 143.477 40.96C143.477 41.8533 143.55 42.7133 143.697 43.54C143.857 44.3533 144.097 45.08 144.417 45.72C144.75 46.36 145.177 46.8667 145.697 47.24C146.217 47.6133 146.83 47.8 147.537 47.8C147.977 47.8 148.417 47.72 148.857 47.56C149.31 47.3867 149.697 47.14 150.017 46.82C150.537 46.42 150.89 45.9267 151.077 45.34C151.263 44.74 151.403 43.9467 151.497 42.96H151.957C151.957 44.2267 151.963 45.2533 151.977 46.04C151.99 46.8133 152.01 47.4667 152.037 48H151.577C151.523 47.4267 151.43 47.0667 151.297 46.92C151.177 46.7733 150.97 46.7933 150.677 46.98C150.183 47.3267 149.657 47.6333 149.097 47.9C148.55 48.1533 147.843 48.28 146.977 48.28C145.563 48.28 144.323 47.9933 143.257 47.42C142.203 46.8467 141.383 46.02 140.797 44.94C140.21 43.86 139.917 42.56 139.917 41.04C139.917 39.5467 140.217 38.24 140.817 37.12C141.43 36 142.263 35.1267 143.317 34.5C144.383 33.8733 145.61 33.56 146.997 33.56ZM161.098 33.56C162.512 33.56 163.745 33.8467 164.798 34.42C165.865 34.9933 166.692 35.82 167.278 36.9C167.865 37.9667 168.158 39.2667 168.158 40.8C168.158 42.2933 167.858 43.6 167.258 44.72C166.658 45.84 165.818 46.7133 164.738 47.34C163.672 47.9667 162.452 48.28 161.078 48.28C159.665 48.28 158.425 47.9933 157.358 47.42C156.305 46.8467 155.485 46.02 154.898 44.94C154.312 43.86 154.018 42.56 154.018 41.04C154.018 39.5467 154.318 38.24 154.918 37.12C155.532 36 156.365 35.1267 157.418 34.5C158.485 33.8733 159.712 33.56 161.098 33.56ZM161.018 33.92C160.272 33.92 159.618 34.22 159.058 34.82C158.512 35.42 158.085 36.2467 157.778 37.3C157.485 38.3533 157.338 39.5733 157.338 40.96C157.338 42.3733 157.505 43.6067 157.838 44.66C158.185 45.7 158.645 46.5067 159.218 47.08C159.805 47.64 160.452 47.92 161.158 47.92C161.905 47.92 162.552 47.62 163.098 47.02C163.658 46.42 164.085 45.5933 164.378 44.54C164.685 43.4733 164.838 42.2533 164.838 40.88C164.838 39.4533 164.665 38.22 164.318 37.18C163.985 36.14 163.525 35.34 162.938 34.78C162.365 34.2067 161.725 33.92 161.018 33.92ZM173.938 37.38C174.924 37.38 175.738 37.5867 176.378 38C177.031 38.4 177.358 38.96 177.358 39.68C177.358 40.1867 177.191 40.66 176.858 41.1C176.538 41.54 176.071 41.9267 175.458 42.26C174.858 42.58 174.138 42.82 173.298 42.98C174.204 42.94 175.018 43.0333 175.738 43.26C176.458 43.4867 177.024 43.8333 177.438 44.3C177.864 44.7533 178.078 45.3267 178.078 46.02C178.078 46.7933 177.824 47.4867 177.318 48.1C176.824 48.7133 176.158 49.2333 175.318 49.66C174.491 50.1 173.578 50.4333 172.578 50.66C171.578 50.9 170.584 51.02 169.598 51.02V50.62C170.224 50.6067 170.858 50.4933 171.498 50.28C172.151 50.08 172.744 49.7867 173.278 49.4C173.824 49.0267 174.264 48.56 174.598 48C174.931 47.4267 175.098 46.7733 175.098 46.04C175.098 45.2533 174.911 44.6067 174.538 44.1C174.164 43.5933 173.651 43.3133 172.998 43.26C172.798 43.3533 172.618 43.4333 172.458 43.5C172.298 43.5533 172.138 43.58 171.978 43.58C171.724 43.58 171.598 43.4867 171.598 43.3C171.598 43.14 171.664 43.0267 171.798 42.96C171.931 42.8933 172.078 42.86 172.238 42.86C172.344 42.86 172.451 42.8733 172.558 42.9C172.678 42.9133 172.804 42.9267 172.938 42.94C173.511 42.54 173.911 42.1133 174.138 41.66C174.364 41.1933 174.478 40.7267 174.478 40.26C174.478 39.66 174.318 39.22 173.998 38.94C173.691 38.6467 173.258 38.5 172.698 38.5C172.178 38.5 171.691 38.6333 171.238 38.9C170.784 39.1533 170.404 39.54 170.098 40.06L169.738 39.88C169.978 39.44 170.278 39.0333 170.638 38.66C170.998 38.2733 171.444 37.9667 171.978 37.74C172.511 37.5 173.164 37.38 173.938 37.38Z" fill="white"/>
<rect x="190.702" y="66" width="59.4046" height="59.4046" rx="12" transform="rotate(-45 190.702 66)" fill="#FE4C40"/>
<path d="M236.163 59.84V60.24C235.737 60.2533 235.417 60.3067 235.203 60.4C234.99 60.48 234.843 60.64 234.763 60.88C234.697 61.1067 234.663 61.4667 234.663 61.96V71.88C234.663 72.36 234.697 72.72 234.763 72.96C234.843 73.2 234.99 73.36 235.203 73.44C235.417 73.52 235.737 73.5733 236.163 73.6V74C235.79 73.9733 235.317 73.96 234.743 73.96C234.183 73.9467 233.61 73.94 233.023 73.94C232.383 73.94 231.783 73.9467 231.223 73.96C230.663 73.96 230.21 73.9733 229.863 74V73.6C230.317 73.5733 230.657 73.52 230.883 73.44C231.123 73.36 231.283 73.2 231.363 72.96C231.443 72.72 231.483 72.36 231.483 71.88V61.06H231.623L226.663 74.02H226.343L220.943 61.14V70.72C220.943 71.4533 220.983 72.02 221.063 72.42C221.143 72.8067 221.317 73.0867 221.583 73.26C221.863 73.42 222.297 73.5333 222.883 73.6V74C222.63 73.9733 222.297 73.96 221.883 73.96C221.47 73.9467 221.083 73.94 220.723 73.94C220.417 73.94 220.103 73.9467 219.783 73.96C219.463 73.96 219.197 73.9733 218.983 74V73.6C219.41 73.5333 219.73 73.42 219.943 73.26C220.157 73.1 220.297 72.84 220.363 72.48C220.443 72.1067 220.483 71.6 220.483 70.96V61.96C220.483 61.4667 220.443 61.1067 220.363 60.88C220.297 60.64 220.15 60.48 219.923 60.4C219.71 60.3067 219.397 60.2533 218.983 60.24V59.84C219.197 59.8533 219.463 59.8667 219.783 59.88C220.103 59.8933 220.417 59.9 220.723 59.9C221.297 59.9 221.857 59.8933 222.403 59.88C222.963 59.8667 223.457 59.8533 223.883 59.84L228.083 69.98L227.583 70.44L231.603 59.9C231.83 59.9 232.063 59.9 232.303 59.9C232.543 59.9 232.783 59.9 233.023 59.9C233.61 59.9 234.183 59.8933 234.743 59.88C235.317 59.8667 235.79 59.8533 236.163 59.84ZM241.022 77.76C240.195 77.76 239.455 77.6867 238.802 77.54C238.162 77.4067 237.655 77.1933 237.282 76.9C236.922 76.62 236.742 76.2733 236.742 75.86C236.742 75.4467 236.929 75.0733 237.302 74.74C237.675 74.42 238.229 74.1667 238.962 73.98L239.142 74.3C238.889 74.5 238.702 74.7133 238.582 74.94C238.475 75.18 238.422 75.4267 238.422 75.68C238.422 76.24 238.675 76.6667 239.182 76.96C239.702 77.2667 240.402 77.42 241.282 77.42C241.882 77.42 242.415 77.34 242.882 77.18C243.362 77.02 243.735 76.78 244.002 76.46C244.282 76.14 244.422 75.7467 244.422 75.28C244.422 74.88 244.275 74.54 243.982 74.26C243.689 73.9933 243.102 73.86 242.222 73.86H240.982C240.435 73.86 239.955 73.8 239.542 73.68C239.142 73.56 238.829 73.3733 238.602 73.12C238.375 72.8533 238.262 72.52 238.262 72.12C238.262 71.56 238.482 71.0667 238.922 70.64C239.362 70.2133 240.015 69.8133 240.882 69.44L241.082 69.6C240.829 69.76 240.589 69.9333 240.362 70.12C240.149 70.2933 240.042 70.52 240.042 70.8C240.042 71.2267 240.309 71.44 240.842 71.44H243.022C244.129 71.44 245.049 71.6467 245.782 72.06C246.515 72.46 246.882 73.1333 246.882 74.08C246.882 74.7333 246.669 75.34 246.242 75.9C245.829 76.46 245.189 76.9067 244.322 77.24C243.455 77.5867 242.355 77.76 241.022 77.76ZM241.222 69.74C240.089 69.74 239.142 69.4867 238.382 68.98C237.622 68.46 237.242 67.6533 237.242 66.56C237.242 65.4533 237.622 64.6467 238.382 64.14C239.142 63.6333 240.089 63.38 241.222 63.38C242.369 63.38 243.315 63.6333 244.062 64.14C244.822 64.6467 245.202 65.4533 245.202 66.56C245.202 67.6533 244.822 68.46 244.062 68.98C243.315 69.4867 242.369 69.74 241.222 69.74ZM241.222 69.38C241.582 69.38 241.862 69.18 242.062 68.78C242.262 68.3667 242.362 67.6267 242.362 66.56C242.362 65.4933 242.262 64.76 242.062 64.36C241.862 63.9467 241.582 63.74 241.222 63.74C240.875 63.74 240.595 63.9467 240.382 64.36C240.182 64.76 240.082 65.4933 240.082 66.56C240.082 67.6267 240.182 68.3667 240.382 68.78C240.595 69.18 240.875 69.38 241.222 69.38ZM244.342 65.1L243.942 64.96C244.142 64.44 244.462 64.0067 244.902 63.66C245.355 63.3133 245.842 63.14 246.362 63.14C246.789 63.14 247.109 63.26 247.322 63.5C247.549 63.7267 247.662 64.0267 247.662 64.4C247.662 64.8 247.555 65.1 247.342 65.3C247.129 65.4867 246.889 65.58 246.622 65.58C246.395 65.58 246.182 65.5 245.982 65.34C245.795 65.18 245.689 64.94 245.662 64.62C245.635 64.2867 245.749 63.86 246.002 63.34L246.142 63.46C245.635 63.6467 245.255 63.8667 245.002 64.12C244.749 64.36 244.529 64.6867 244.342 65.1Z" fill="white"/>
<path d="M62.6197 140.28C63.5477 140.28 64.337 140.611 64.9877 141.272C65.649 141.933 65.9797 142.723 65.9797 143.64C65.9797 144.568 65.649 145.363 64.9877 146.024C64.337 146.675 63.5477 147 62.6197 147H58.4597V135.8H65.0197V136.856H59.5797V140.28H62.6197ZM62.6197 145.944C63.2384 145.944 63.7664 145.72 64.2037 145.272C64.641 144.824 64.8597 144.28 64.8597 143.64C64.8597 143.011 64.641 142.472 64.2037 142.024C63.7664 141.565 63.2384 141.336 62.6197 141.336H59.5797V145.944H62.6197ZM73.9066 139V147H72.8506V140.024H69.2346V143.592C69.2346 144.925 68.9786 145.843 68.4666 146.344C67.9652 146.845 67.2719 147.064 66.3866 147V146.008C66.9946 146.072 67.4426 145.928 67.7306 145.576C68.0292 145.224 68.1786 144.563 68.1786 143.592V139H73.9066ZM83.0234 139H84.0794V147H83.0234V145.432C82.2874 146.605 81.2101 147.192 79.7914 147.192C78.6501 147.192 77.6741 146.787 76.8634 145.976C76.0634 145.165 75.6634 144.173 75.6634 143C75.6634 141.827 76.0634 140.835 76.8634 140.024C77.6741 139.213 78.6501 138.808 79.7914 138.808C81.2101 138.808 82.2874 139.395 83.0234 140.568V139ZM77.6314 145.256C78.2394 145.864 78.9861 146.168 79.8714 146.168C80.7568 146.168 81.5034 145.864 82.1114 145.256C82.7194 144.637 83.0234 143.885 83.0234 143C83.0234 142.115 82.7194 141.368 82.1114 140.76C81.5034 140.141 80.7568 139.832 79.8714 139.832C78.9861 139.832 78.2394 140.141 77.6314 140.76C77.0234 141.368 76.7194 142.115 76.7194 143C76.7194 143.885 77.0234 144.637 77.6314 145.256ZM91.4353 139V140.024H87.3713V147H86.3153V139H91.4353ZM99.1131 145.992C98.3024 146.792 97.3104 147.192 96.1371 147.192C94.9637 147.192 93.9664 146.792 93.1451 145.992C92.3344 145.181 91.9291 144.184 91.9291 143C91.9291 141.816 92.3344 140.824 93.1451 140.024C93.9664 139.213 94.9637 138.808 96.1371 138.808C97.3104 138.808 98.3024 139.213 99.1131 140.024C99.9344 140.824 100.345 141.816 100.345 143C100.345 144.184 99.9344 145.181 99.1131 145.992ZM93.8971 145.256C94.5051 145.864 95.2517 146.168 96.1371 146.168C97.0224 146.168 97.7691 145.864 98.3771 145.256C98.9851 144.637 99.2891 143.885 99.2891 143C99.2891 142.115 98.9851 141.368 98.3771 140.76C97.7691 140.141 97.0224 139.832 96.1371 139.832C95.2517 139.832 94.5051 140.141 93.8971 140.76C93.2891 141.368 92.9851 142.115 92.9851 143C92.9851 143.885 93.2891 144.637 93.8971 145.256ZM108.52 145.976H109.64V149.144H108.584V147H102.056V149.144H101V145.976H101.976C102.52 145.261 102.792 144.253 102.792 142.952V139H108.52V145.976ZM103.256 145.976H107.464V140.024H103.848V142.952C103.848 144.179 103.65 145.187 103.256 145.976ZM117.805 139H118.861V147H117.805V145.432C117.069 146.605 115.991 147.192 114.573 147.192C113.431 147.192 112.455 146.787 111.645 145.976C110.845 145.165 110.445 144.173 110.445 143C110.445 141.827 110.845 140.835 111.645 140.024C112.455 139.213 113.431 138.808 114.573 138.808C115.991 138.808 117.069 139.395 117.805 140.568V139ZM112.413 145.256C113.021 145.864 113.767 146.168 114.653 146.168C115.538 146.168 116.285 145.864 116.893 145.256C117.501 144.637 117.805 143.885 117.805 143C117.805 142.115 117.501 141.368 116.893 140.76C116.285 140.141 115.538 139.832 114.653 139.832C113.767 139.832 113.021 140.141 112.413 140.76C111.805 141.368 111.501 142.115 111.501 143C111.501 143.885 111.805 144.637 112.413 145.256ZM125.385 138.808C126.526 138.808 127.497 139.213 128.297 140.024C129.107 140.835 129.513 141.827 129.513 143C129.513 144.173 129.107 145.165 128.297 145.976C127.497 146.787 126.526 147.192 125.385 147.192C123.966 147.192 122.889 146.605 122.153 145.432V150.2H121.097V139H122.153V140.568C122.889 139.395 123.966 138.808 125.385 138.808ZM123.065 145.256C123.673 145.864 124.419 146.168 125.305 146.168C126.19 146.168 126.937 145.864 127.545 145.256C128.153 144.637 128.457 143.885 128.457 143C128.457 142.115 128.153 141.368 127.545 140.76C126.937 140.141 126.19 139.832 125.305 139.832C124.419 139.832 123.673 140.141 123.065 140.76C122.457 141.368 122.153 142.115 122.153 143C122.153 143.885 122.457 144.637 123.065 145.256ZM136.716 139V147H135.66V143.928H134.284L131.82 147H130.476L133.004 143.896C132.364 143.8 131.836 143.533 131.42 143.096C131.004 142.659 130.796 142.12 130.796 141.48C130.796 140.755 131.052 140.163 131.564 139.704C132.087 139.235 132.721 139 133.468 139H136.716ZM133.468 142.936H135.66V140.024H133.468C133.02 140.024 132.636 140.157 132.316 140.424C132.007 140.691 131.852 141.043 131.852 141.48C131.852 141.917 132.007 142.269 132.316 142.536C132.636 142.803 133.02 142.936 133.468 142.936ZM148.716 139H149.836L146.412 147.736C146.103 148.525 145.66 149.144 145.084 149.592C144.519 150.051 143.884 150.253 143.18 150.2V149.208C144.14 149.315 144.871 148.76 145.372 147.544L145.58 147.048L141.996 139H143.116L146.124 145.704L148.716 139ZM156.776 139H157.832V147H156.776V143.512H152.168V147H151.112V139H152.168V142.488H156.776V139ZM165.889 139H166.785V147H165.729V140.84L160.961 147H160.065V139H161.121V145.16L165.889 139ZM175.482 147H174.074L170.074 143.144V147H169.018V139H170.074V142.536L173.882 139H175.322L171.194 142.84L175.482 147ZM183.008 139H184.064V147H183.008V145.432C182.272 146.605 181.194 147.192 179.776 147.192C178.634 147.192 177.658 146.787 176.848 145.976C176.048 145.165 175.648 144.173 175.648 143C175.648 141.827 176.048 140.835 176.848 140.024C177.658 139.213 178.634 138.808 179.776 138.808C181.194 138.808 182.272 139.395 183.008 140.568V139ZM177.616 145.256C178.224 145.864 178.97 146.168 179.856 146.168C180.741 146.168 181.488 145.864 182.096 145.256C182.704 144.637 183.008 143.885 183.008 143C183.008 142.115 182.704 141.368 182.096 140.76C181.488 140.141 180.741 139.832 179.856 139.832C178.97 139.832 178.224 140.141 177.616 140.76C177.008 141.368 176.704 142.115 176.704 143C176.704 143.885 177.008 144.637 177.616 145.256ZM192.86 139V147H191.804V140.024H188.188V143.592C188.188 144.925 187.932 145.843 187.42 146.344C186.918 146.845 186.225 147.064 185.34 147V146.008C185.948 146.072 186.396 145.928 186.684 145.576C186.982 145.224 187.132 144.563 187.132 143.592V139H192.86ZM198.345 142.04C199.091 142.04 199.721 142.275 200.233 142.744C200.755 143.203 201.017 143.795 201.017 144.52C201.017 145.245 200.755 145.843 200.233 146.312C199.721 146.771 199.091 147 198.345 147H195.097V139H196.153V142.04H198.345ZM198.345 145.976C198.793 145.976 199.171 145.843 199.481 145.576C199.801 145.309 199.961 144.957 199.961 144.52C199.961 144.083 199.801 143.731 199.481 143.464C199.171 143.197 198.793 143.064 198.345 143.064H196.153V145.976H198.345ZM208.276 139H209.332V147H208.276V143.512H203.668V147H202.612V139H203.668V142.488H208.276V139ZM218.269 145.992C217.459 146.792 216.467 147.192 215.293 147.192C214.12 147.192 213.123 146.792 212.301 145.992C211.491 145.181 211.085 144.184 211.085 143C211.085 141.816 211.491 140.824 212.301 140.024C213.123 139.213 214.12 138.808 215.293 138.808C216.467 138.808 217.459 139.213 218.269 140.024C219.091 140.824 219.501 141.816 219.501 143C219.501 144.184 219.091 145.181 218.269 145.992ZM213.053 145.256C213.661 145.864 214.408 146.168 215.293 146.168C216.179 146.168 216.925 145.864 217.533 145.256C218.141 144.637 218.445 143.885 218.445 143C218.445 142.115 218.141 141.368 217.533 140.76C216.925 140.141 216.179 139.832 215.293 139.832C214.408 139.832 213.661 140.141 213.053 140.76C212.445 141.368 212.141 142.115 212.141 143C212.141 143.885 212.445 144.637 213.053 145.256ZM224.996 147.192C223.791 147.192 222.788 146.792 221.988 145.992C221.188 145.181 220.788 144.184 220.788 143C220.788 141.816 221.188 140.824 221.988 140.024C222.788 139.213 223.791 138.808 224.996 138.808C225.786 138.808 226.495 139 227.124 139.384C227.754 139.757 228.212 140.264 228.5 140.904L227.636 141.4C227.423 140.92 227.076 140.541 226.596 140.264C226.127 139.976 225.594 139.832 224.996 139.832C224.111 139.832 223.364 140.141 222.756 140.76C222.148 141.368 221.844 142.115 221.844 143C221.844 143.885 222.148 144.637 222.756 145.256C223.364 145.864 224.111 146.168 224.996 146.168C225.594 146.168 226.127 146.029 226.596 145.752C227.066 145.464 227.434 145.08 227.7 144.6L228.58 145.112C228.25 145.752 227.764 146.259 227.124 146.632C226.484 147.005 225.775 147.192 224.996 147.192ZM235.7 139V140.024H232.868V147H231.812V140.024H228.98V139H235.7ZM242.811 139H243.707V147H242.651V140.84L237.883 147H236.987V139H238.043V145.16L242.811 139ZM78.2881 163V171H77.2321V164.616L74.4321 169.16H74.3041L71.5041 164.616V171H70.4481V163H71.6641L74.3681 167.384L77.0721 163H78.2881ZM84.2223 162.808C85.4063 162.808 86.3609 163.229 87.0863 164.072C87.8223 164.904 88.1903 165.891 88.1903 167.032C88.1903 167.149 88.1796 167.315 88.1583 167.528H81.1343C81.2409 168.339 81.5823 168.984 82.1583 169.464C82.7449 169.933 83.4649 170.168 84.3183 170.168C84.9263 170.168 85.4489 170.045 85.8863 169.8C86.3343 169.544 86.6703 169.213 86.8943 168.808L87.8223 169.352C87.4703 169.917 86.9903 170.365 86.3823 170.696C85.7743 171.027 85.0809 171.192 84.3023 171.192C83.0436 171.192 82.0196 170.797 81.2303 170.008C80.4409 169.219 80.0463 168.216 80.0463 167C80.0463 165.805 80.4356 164.808 81.2143 164.008C81.9929 163.208 82.9956 162.808 84.2223 162.808ZM84.2223 163.832C83.3903 163.832 82.6916 164.083 82.1263 164.584C81.5716 165.075 81.2409 165.715 81.1343 166.504H87.1023C86.9956 165.661 86.6703 165.005 86.1263 164.536C85.5823 164.067 84.9476 163.832 84.2223 163.832ZM93.598 171.192C92.3927 171.192 91.39 170.792 90.59 169.992C89.79 169.181 89.39 168.184 89.39 167C89.39 165.816 89.79 164.824 90.59 164.024C91.39 163.213 92.3927 162.808 93.598 162.808C94.3873 162.808 95.0967 163 95.726 163.384C96.3553 163.757 96.814 164.264 97.102 164.904L96.238 165.4C96.0247 164.92 95.678 164.541 95.198 164.264C94.7287 163.976 94.1953 163.832 93.598 163.832C92.7127 163.832 91.966 164.141 91.358 164.76C90.75 165.368 90.446 166.115 90.446 167C90.446 167.885 90.75 168.637 91.358 169.256C91.966 169.864 92.7127 170.168 93.598 170.168C94.1953 170.168 94.7287 170.029 95.198 169.752C95.6673 169.464 96.0353 169.08 96.302 168.6L97.182 169.112C96.8513 169.752 96.366 170.259 95.726 170.632C95.086 171.005 94.3767 171.192 93.598 171.192ZM104.302 163V164.024H101.47V171H100.414V164.024H97.5819V163H104.302ZM112.156 163H113.212V171H112.156V169.432C111.42 170.605 110.343 171.192 108.924 171.192C107.783 171.192 106.807 170.787 105.996 169.976C105.196 169.165 104.796 168.173 104.796 167C104.796 165.827 105.196 164.835 105.996 164.024C106.807 163.213 107.783 162.808 108.924 162.808C110.343 162.808 111.42 163.395 112.156 164.568V163ZM106.764 169.256C107.372 169.864 108.119 170.168 109.004 170.168C109.89 170.168 110.636 169.864 111.244 169.256C111.852 168.637 112.156 167.885 112.156 167C112.156 166.115 111.852 165.368 111.244 164.76C110.636 164.141 109.89 163.832 109.004 163.832C108.119 163.832 107.372 164.141 106.764 164.76C106.156 165.368 105.852 166.115 105.852 167C105.852 167.885 106.156 168.637 106.764 169.256ZM121.208 169.64L120.248 173.24H119.288L119.928 169.64H121.208ZM132.38 166.888C133.255 167.208 133.692 167.832 133.692 168.76C133.692 169.411 133.473 169.949 133.036 170.376C132.609 170.792 131.991 171 131.18 171H127.292V163H130.86C131.639 163 132.241 163.203 132.668 163.608C133.095 164.003 133.308 164.515 133.308 165.144C133.308 165.944 132.999 166.525 132.38 166.888ZM130.86 164.024H128.348V166.456H130.86C131.788 166.456 132.252 166.04 132.252 165.208C132.252 164.835 132.129 164.547 131.884 164.344C131.649 164.131 131.308 164.024 130.86 164.024ZM131.18 169.976C131.649 169.976 132.007 169.864 132.252 169.64C132.508 169.416 132.636 169.101 132.636 168.696C132.636 168.323 132.508 168.029 132.252 167.816C132.007 167.592 131.649 167.48 131.18 167.48H128.348V169.976H131.18ZM141.996 169.992C141.185 170.792 140.193 171.192 139.02 171.192C137.847 171.192 136.849 170.792 136.028 169.992C135.217 169.181 134.812 168.184 134.812 167C134.812 165.816 135.217 164.824 136.028 164.024C136.849 163.213 137.847 162.808 139.02 162.808C140.193 162.808 141.185 163.213 141.996 164.024C142.817 164.824 143.228 165.816 143.228 167C143.228 168.184 142.817 169.181 141.996 169.992ZM136.78 169.256C137.388 169.864 138.135 170.168 139.02 170.168C139.905 170.168 140.652 169.864 141.26 169.256C141.868 168.637 142.172 167.885 142.172 167C142.172 166.115 141.868 165.368 141.26 164.76C140.652 164.141 139.905 163.832 139.02 163.832C138.135 163.832 137.388 164.141 136.78 164.76C136.172 165.368 135.868 166.115 135.868 167C135.868 167.885 136.172 168.637 136.78 169.256ZM151.403 169.976H152.523V173.144H151.467V171H144.939V173.144H143.883V169.976H144.859C145.402 169.261 145.674 168.253 145.674 166.952V163H151.403V169.976ZM146.139 169.976H150.347V164.024H146.731V166.952C146.731 168.179 146.533 169.187 146.139 169.976ZM160.688 163H161.744V171H160.688V169.432C159.952 170.605 158.874 171.192 157.456 171.192C156.314 171.192 155.338 170.787 154.528 169.976C153.728 169.165 153.328 168.173 153.328 167C153.328 165.827 153.728 164.835 154.528 164.024C155.338 163.213 156.314 162.808 157.456 162.808C158.874 162.808 159.952 163.395 160.688 164.568V163ZM155.296 169.256C155.904 169.864 156.65 170.168 157.536 170.168C158.421 170.168 159.168 169.864 159.776 169.256C160.384 168.637 160.688 167.885 160.688 167C160.688 166.115 160.384 165.368 159.776 164.76C159.168 164.141 158.421 163.832 157.536 163.832C156.65 163.832 155.904 164.141 155.296 164.76C154.688 165.368 154.384 166.115 154.384 167C154.384 167.885 154.688 168.637 155.296 169.256ZM171.051 163.176L169.291 166.056L171.051 168.936H169.739L167.979 166.056L169.739 163.176H171.051ZM173.611 163.176L171.851 166.056L173.611 168.936H172.299L170.539 166.056L172.299 163.176H173.611ZM181.746 159.8H182.898L179.17 168.552C178.796 169.448 178.322 170.093 177.746 170.488C177.17 170.883 176.455 171.053 175.602 171V169.976C176.199 170.04 176.69 169.955 177.074 169.72C177.468 169.475 177.794 169.053 178.049 168.456L178.274 167.928L174.418 159.8H175.57L178.802 166.68L181.746 159.8ZM187.514 166.888C188.442 167.24 188.906 167.88 188.906 168.808C188.906 169.469 188.644 170.035 188.122 170.504C187.61 170.963 186.874 171.192 185.914 171.192C184.303 171.192 183.247 170.552 182.746 169.272L183.642 168.744C183.972 169.693 184.73 170.168 185.914 170.168C186.532 170.168 187.007 170.035 187.338 169.768C187.679 169.501 187.85 169.16 187.85 168.744C187.85 168.371 187.711 168.067 187.434 167.832C187.156 167.597 186.783 167.48 186.314 167.48H185.146V166.456H185.994C186.452 166.456 186.81 166.344 187.066 166.12C187.332 165.885 187.466 165.565 187.466 165.16C187.466 164.776 187.311 164.461 187.002 164.216C186.692 163.96 186.276 163.832 185.754 163.832C184.751 163.832 184.084 164.232 183.754 165.032L182.874 164.52C183.407 163.379 184.367 162.808 185.754 162.808C186.596 162.808 187.268 163.032 187.77 163.48C188.271 163.917 188.522 164.456 188.522 165.096C188.522 165.917 188.186 166.515 187.514 166.888ZM198.351 163V171H197.295V164.616L194.495 169.16H194.367L191.567 164.616V171H190.511V163H191.727L194.431 167.384L197.135 163H198.351ZM204.285 162.808C205.469 162.808 206.423 163.229 207.149 164.072C207.885 164.904 208.253 165.891 208.253 167.032C208.253 167.149 208.242 167.315 208.221 167.528H201.197C201.303 168.339 201.645 168.984 202.221 169.464C202.807 169.933 203.527 170.168 204.381 170.168C204.989 170.168 205.511 170.045 205.949 169.8C206.397 169.544 206.733 169.213 206.957 168.808L207.885 169.352C207.533 169.917 207.053 170.365 206.445 170.696C205.837 171.027 205.143 171.192 204.365 171.192C203.106 171.192 202.082 170.797 201.293 170.008C200.503 169.219 200.109 168.216 200.109 167C200.109 165.805 200.498 164.808 201.277 164.008C202.055 163.208 203.058 162.808 204.285 162.808ZM204.285 163.832C203.453 163.832 202.754 164.083 202.189 164.584C201.634 165.075 201.303 165.715 201.197 166.504H207.165C207.058 165.661 206.733 165.005 206.189 164.536C205.645 164.067 205.01 163.832 204.285 163.832ZM215.597 163H216.653V171H215.597V167.512H210.989V171H209.933V163H210.989V166.488H215.597V163ZM222.134 166.04C222.88 166.04 223.51 166.275 224.022 166.744C224.544 167.203 224.806 167.795 224.806 168.52C224.806 169.245 224.544 169.843 224.022 170.312C223.51 170.771 222.88 171 222.134 171H218.886V163H219.942V166.04H222.134ZM222.134 169.976C222.582 169.976 222.96 169.843 223.27 169.576C223.59 169.309 223.75 168.957 223.75 168.52C223.75 168.083 223.59 167.731 223.27 167.464C222.96 167.197 222.582 167.064 222.134 167.064H219.942V169.976H222.134ZM227.229 163.176L228.989 166.056L227.229 168.936H225.917L227.677 166.056L225.917 163.176H227.229ZM229.789 163.176L231.549 166.056L229.789 168.936H228.477L230.237 166.056L228.477 163.176H229.789ZM64.7224 193.992C63.9118 194.792 62.9198 195.192 61.7464 195.192C60.5731 195.192 59.5758 194.792 58.7544 193.992C57.9438 193.181 57.5384 192.184 57.5384 191C57.5384 189.816 57.9438 188.824 58.7544 188.024C59.5758 187.213 60.5731 186.808 61.7464 186.808C62.9198 186.808 63.9118 187.213 64.7224 188.024C65.5438 188.824 65.9544 189.816 65.9544 191C65.9544 192.184 65.5438 193.181 64.7224 193.992ZM59.5064 193.256C60.1144 193.864 60.8611 194.168 61.7464 194.168C62.6318 194.168 63.3784 193.864 63.9864 193.256C64.5944 192.637 64.8984 191.885 64.8984 191C64.8984 190.115 64.5944 189.368 63.9864 188.76C63.3784 188.141 62.6318 187.832 61.7464 187.832C60.8611 187.832 60.1144 188.141 59.5064 188.76C58.8984 189.368 58.5944 190.115 58.5944 191C58.5944 191.885 58.8984 192.637 59.5064 193.256ZM71.2736 195.192C70.1216 195.192 69.1616 194.813 68.3936 194.056C67.6256 193.288 67.2416 192.296 67.2416 191.08C67.2416 189.715 67.4442 188.669 67.8496 187.944C68.2549 187.208 69.0762 186.541 70.3136 185.944C70.5482 185.827 70.8576 185.688 71.2416 185.528C71.6362 185.368 71.9296 185.24 72.1216 185.144C72.3242 185.048 72.5429 184.925 72.7776 184.776C73.0122 184.616 73.1882 184.44 73.3056 184.248C73.4229 184.056 73.4976 183.827 73.5296 183.56L74.3616 184.04C74.3189 184.296 74.2336 184.536 74.1056 184.76C73.9776 184.984 73.8442 185.165 73.7056 185.304C73.5776 185.443 73.3696 185.597 73.0816 185.768C72.8042 185.928 72.5856 186.045 72.4256 186.12C72.2762 186.184 72.0096 186.296 71.6256 186.456C71.2522 186.616 71.0016 186.723 70.8736 186.776C70.1269 187.096 69.5776 187.432 69.2256 187.784C68.8736 188.125 68.6229 188.573 68.4736 189.128C68.8362 188.648 69.2949 188.296 69.8496 188.072C70.4149 187.837 70.9642 187.72 71.4976 187.72C72.5642 187.72 73.4442 188.072 74.1376 188.776C74.8416 189.469 75.1936 190.36 75.1936 191.448C75.1936 192.525 74.8202 193.421 74.0736 194.136C73.3376 194.84 72.4042 195.192 71.2736 195.192ZM71.2736 194.136C72.1056 194.136 72.7882 193.885 73.3216 193.384C73.8656 192.872 74.1376 192.227 74.1376 191.448C74.1376 190.659 73.8816 190.013 73.3696 189.512C72.8682 189 72.1962 188.744 71.3536 188.744C70.5962 188.744 69.9082 188.984 69.2896 189.464C68.6709 189.933 68.3616 190.563 68.3616 191.352C68.3616 192.163 68.6389 192.829 69.1936 193.352C69.7589 193.875 70.4522 194.136 71.2736 194.136ZM83.0472 187V195H81.9912V188.024H78.3752V191.592C78.3752 192.925 78.1192 193.843 77.6072 194.344C77.1059 194.845 76.4125 195.064 75.5272 195V194.008C76.1352 194.072 76.5832 193.928 76.8712 193.576C77.1699 193.224 77.3192 192.563 77.3192 191.592V187H83.0472ZM92.1641 187H93.2201V195H92.1641V193.432C91.4281 194.605 90.3507 195.192 88.9321 195.192C87.7907 195.192 86.8147 194.787 86.0041 193.976C85.2041 193.165 84.8041 192.173 84.8041 191C84.8041 189.827 85.2041 188.835 86.0041 188.024C86.8147 187.213 87.7907 186.808 88.9321 186.808C90.3507 186.808 91.4281 187.395 92.1641 188.568V187ZM86.7721 193.256C87.3801 193.864 88.1267 194.168 89.0121 194.168C89.8974 194.168 90.6441 193.864 91.2521 193.256C91.8601 192.637 92.1641 191.885 92.1641 191C92.1641 190.115 91.8601 189.368 91.2521 188.76C90.6441 188.141 89.8974 187.832 89.0121 187.832C88.1267 187.832 87.3801 188.141 86.7721 188.76C86.1641 189.368 85.8601 190.115 85.8601 191C85.8601 191.885 86.1641 192.637 86.7721 193.256ZM102.176 193.976H103.296V197.144H102.24V195H95.7119V197.144H94.6559V193.976H95.6319C96.1759 193.261 96.4479 192.253 96.4479 190.952V187H102.176V193.976ZM96.9119 193.976H101.12V188.024H97.5039V190.952C97.5039 192.179 97.3066 193.187 96.9119 193.976ZM111.461 187H112.517V195H111.461V193.432C110.725 194.605 109.648 195.192 108.229 195.192C107.088 195.192 106.112 194.787 105.301 193.976C104.501 193.165 104.101 192.173 104.101 191C104.101 189.827 104.501 188.835 105.301 188.024C106.112 187.213 107.088 186.808 108.229 186.808C109.648 186.808 110.725 187.395 111.461 188.568V187ZM106.069 193.256C106.677 193.864 107.424 194.168 108.309 194.168C109.194 194.168 109.941 193.864 110.549 193.256C111.157 192.637 111.461 191.885 111.461 191C111.461 190.115 111.157 189.368 110.549 188.76C109.941 188.141 109.194 187.832 108.309 187.832C107.424 187.832 106.677 188.141 106.069 188.76C105.461 189.368 105.157 190.115 105.157 191C105.157 191.885 105.461 192.637 106.069 193.256ZM118.449 186.808C119.633 186.808 120.587 187.229 121.313 188.072C122.049 188.904 122.417 189.891 122.417 191.032C122.417 191.149 122.406 191.315 122.385 191.528H115.361C115.467 192.339 115.809 192.984 116.385 193.464C116.971 193.933 117.691 194.168 118.545 194.168C119.153 194.168 119.675 194.045 120.113 193.8C120.561 193.544 120.897 193.213 121.121 192.808L122.049 193.352C121.697 193.917 121.217 194.365 120.609 194.696C120.001 195.027 119.307 195.192 118.529 195.192C117.27 195.192 116.246 194.797 115.457 194.008C114.667 193.219 114.273 192.216 114.273 191C114.273 189.805 114.662 188.808 115.441 188.008C116.219 187.208 117.222 186.808 118.449 186.808ZM118.449 187.832C117.617 187.832 116.918 188.083 116.353 188.584C115.798 189.075 115.467 189.715 115.361 190.504H121.329C121.222 189.661 120.897 189.005 120.353 188.536C119.809 188.067 119.174 187.832 118.449 187.832ZM129.544 187V188.024H126.712V195H125.656V188.024H122.824V187H129.544ZM142.671 187V195H141.615V188.616L138.815 193.16H138.687L135.887 188.616V195H134.831V187H136.047L138.751 191.384L141.455 187H142.671ZM150.669 187V195H149.613V191.928H148.237L145.773 195H144.429L146.957 191.896C146.317 191.8 145.789 191.533 145.373 191.096C144.957 190.659 144.749 190.12 144.749 189.48C144.749 188.755 145.005 188.163 145.517 187.704C146.04 187.235 146.674 187 147.421 187H150.669ZM147.421 190.936H149.613V188.024H147.421C146.973 188.024 146.589 188.157 146.269 188.424C145.96 188.691 145.805 189.043 145.805 189.48C145.805 189.917 145.96 190.269 146.269 190.536C146.589 190.803 146.973 190.936 147.421 190.936ZM158.029 187V188.024H153.965V195H152.909V187H158.029ZM165.779 195H164.371L160.371 191.144V195H159.315V187H160.371V190.536L164.179 187H165.619L161.491 190.84L165.779 195ZM173.046 187H173.942V195H172.886V188.84L168.118 195H167.222V187H168.278V193.16L173.046 187ZM184.015 187V195H182.959V188.616L180.159 193.16H180.031L177.231 188.616V195H176.175V187H177.391L180.095 191.384L182.799 187H184.015ZM195.341 190.888C196.215 191.208 196.653 191.832 196.653 192.76C196.653 193.411 196.434 193.949 195.997 194.376C195.57 194.792 194.951 195 194.141 195H190.253V187H193.821C194.599 187 195.202 187.203 195.629 187.608C196.055 188.003 196.269 188.515 196.269 189.144C196.269 189.944 195.959 190.525 195.341 190.888ZM193.821 188.024H191.309V190.456H193.821C194.749 190.456 195.213 190.04 195.213 189.208C195.213 188.835 195.09 188.547 194.845 188.344C194.61 188.131 194.269 188.024 193.821 188.024ZM194.141 193.976C194.61 193.976 194.967 193.864 195.213 193.64C195.469 193.416 195.597 193.101 195.597 192.696C195.597 192.323 195.469 192.029 195.213 191.816C194.967 191.592 194.61 191.48 194.141 191.48H191.309V193.976H194.141ZM204.717 195H203.309L199.309 191.144V195H198.253V187H199.309V190.536L203.117 187H204.557L200.429 190.84L204.717 195ZM211.607 187H212.727L209.303 195.736C208.993 196.525 208.551 197.144 207.975 197.592C207.409 198.051 206.775 198.253 206.071 198.2V197.208C207.031 197.315 207.761 196.76 208.263 195.544L208.471 195.048L204.887 187H206.007L209.015 193.704L211.607 187ZM217.418 195.192C216.213 195.192 215.21 194.792 214.41 193.992C213.61 193.181 213.21 192.184 213.21 191C213.21 189.816 213.61 188.824 214.41 188.024C215.21 187.213 216.213 186.808 217.418 186.808C218.208 186.808 218.917 187 219.546 187.384C220.176 187.757 220.634 188.264 220.922 188.904L220.058 189.4C219.845 188.92 219.498 188.541 219.018 188.264C218.549 187.976 218.016 187.832 217.418 187.832C216.533 187.832 215.786 188.141 215.178 188.76C214.57 189.368 214.266 190.115 214.266 191C214.266 191.885 214.57 192.637 215.178 193.256C215.786 193.864 216.533 194.168 217.418 194.168C218.016 194.168 218.549 194.029 219.018 193.752C219.488 193.464 219.856 193.08 220.122 192.6L221.002 193.112C220.672 193.752 220.186 194.259 219.546 194.632C218.906 195.005 218.197 195.192 217.418 195.192ZM229.144 193.992C228.334 194.792 227.342 195.192 226.168 195.192C224.995 195.192 223.998 194.792 223.176 193.992C222.366 193.181 221.96 192.184 221.96 191C221.96 189.816 222.366 188.824 223.176 188.024C223.998 187.213 224.995 186.808 226.168 186.808C227.342 186.808 228.334 187.213 229.144 188.024C229.966 188.824 230.376 189.816 230.376 191C230.376 192.184 229.966 193.181 229.144 193.992ZM223.928 193.256C224.536 193.864 225.283 194.168 226.168 194.168C227.054 194.168 227.8 193.864 228.408 193.256C229.016 192.637 229.32 191.885 229.32 191C229.32 190.115 229.016 189.368 228.408 188.76C227.8 188.141 227.054 187.832 226.168 187.832C225.283 187.832 224.536 188.141 223.928 188.76C223.32 189.368 223.016 190.115 223.016 191C223.016 191.885 223.32 192.637 223.928 193.256ZM239.983 187V195H238.927V188.616L236.127 193.16H235.999L233.199 188.616V195H232.143V187H233.359L236.063 191.384L238.767 187H239.983ZM58.5924 211H59.4884V219H58.4324V212.84L53.6644 219H52.7684V211H53.8244V217.16L58.5924 211ZM72.4256 217.992C71.6149 218.792 70.6229 219.192 69.4496 219.192C68.2762 219.192 67.2789 218.792 66.4576 217.992C65.6469 217.181 65.2416 216.184 65.2416 215C65.2416 213.816 65.6469 212.824 66.4576 212.024C67.2789 211.213 68.2762 210.808 69.4496 210.808C70.6229 210.808 71.6149 211.213 72.4256 212.024C73.2469 212.824 73.6576 213.816 73.6576 215C73.6576 216.184 73.2469 217.181 72.4256 217.992ZM67.2096 217.256C67.8176 217.864 68.5642 218.168 69.4496 218.168C70.3349 218.168 71.0816 217.864 71.6896 217.256C72.2976 216.637 72.6016 215.885 72.6016 215C72.6016 214.115 72.2976 213.368 71.6896 212.76C71.0816 212.141 70.3349 211.832 69.4496 211.832C68.5642 211.832 67.8176 212.141 67.2096 212.76C66.6016 213.368 66.2976 214.115 66.2976 215C66.2976 215.885 66.6016 216.637 67.2096 217.256ZM78.9767 219.192C77.8247 219.192 76.8647 218.813 76.0967 218.056C75.3287 217.288 74.9447 216.296 74.9447 215.08C74.9447 213.715 75.1474 212.669 75.5527 211.944C75.958 211.208 76.7794 210.541 78.0167 209.944C78.2514 209.827 78.5607 209.688 78.9447 209.528C79.3394 209.368 79.6327 209.24 79.8247 209.144C80.0274 209.048 80.246 208.925 80.4807 208.776C80.7154 208.616 80.8914 208.44 81.0087 208.248C81.126 208.056 81.2007 207.827 81.2327 207.56L82.0647 208.04C82.022 208.296 81.9367 208.536 81.8087 208.76C81.6807 208.984 81.5474 209.165 81.4087 209.304C81.2807 209.443 81.0727 209.597 80.7847 209.768C80.5074 209.928 80.2887 210.045 80.1287 210.12C79.9794 210.184 79.7127 210.296 79.3287 210.456C78.9554 210.616 78.7047 210.723 78.5767 210.776C77.83 211.096 77.2807 211.432 76.9287 211.784C76.5767 212.125 76.326 212.573 76.1767 213.128C76.5394 212.648 76.998 212.296 77.5527 212.072C78.118 211.837 78.6674 211.72 79.2007 211.72C80.2674 211.72 81.1474 212.072 81.8407 212.776C82.5447 213.469 82.8967 214.36 82.8967 215.448C82.8967 216.525 82.5234 217.421 81.7767 218.136C81.0407 218.84 80.1074 219.192 78.9767 219.192ZM78.9767 218.136C79.8087 218.136 80.4914 217.885 81.0247 217.384C81.5687 216.872 81.8407 216.227 81.8407 215.448C81.8407 214.659 81.5847 214.013 81.0727 213.512C80.5714 213 79.8994 212.744 79.0567 212.744C78.2994 212.744 77.6114 212.984 76.9927 213.464C76.374 213.933 76.0647 214.563 76.0647 215.352C76.0647 216.163 76.342 216.829 76.8967 217.352C77.462 217.875 78.1554 218.136 78.9767 218.136ZM91.2068 217.992C90.3961 218.792 89.4041 219.192 88.2308 219.192C87.0575 219.192 86.0601 218.792 85.2388 217.992C84.4281 217.181 84.0228 216.184 84.0228 215C84.0228 213.816 84.4281 212.824 85.2388 212.024C86.0601 211.213 87.0575 210.808 88.2308 210.808C89.4041 210.808 90.3961 211.213 91.2068 212.024C92.0281 212.824 92.4388 213.816 92.4388 215C92.4388 216.184 92.0281 217.181 91.2068 217.992ZM85.9908 217.256C86.5988 217.864 87.3455 218.168 88.2308 218.168C89.1161 218.168 89.8628 217.864 90.4708 217.256C91.0788 216.637 91.3828 215.885 91.3828 215C91.3828 214.115 91.0788 213.368 90.4708 212.76C89.8628 212.141 89.1161 211.832 88.2308 211.832C87.3455 211.832 86.5988 212.141 85.9908 212.76C85.3828 213.368 85.0788 214.115 85.0788 215C85.0788 215.885 85.3828 216.637 85.9908 217.256ZM99.3259 211V212.024H95.2619V219H94.2059V211H99.3259ZM107.18 211H108.236V219H107.18V217.432C106.444 218.605 105.366 219.192 103.948 219.192C102.806 219.192 101.83 218.787 101.02 217.976C100.22 217.165 99.8197 216.173 99.8197 215C99.8197 213.827 100.22 212.835 101.02 212.024C101.83 211.213 102.806 210.808 103.948 210.808C105.366 210.808 106.444 211.395 107.18 212.568V211ZM101.788 217.256C102.396 217.864 103.142 218.168 104.028 218.168C104.913 218.168 105.66 217.864 106.268 217.256C106.876 216.637 107.18 215.885 107.18 215C107.18 214.115 106.876 213.368 106.268 212.76C105.66 212.141 104.913 211.832 104.028 211.832C103.142 211.832 102.396 212.141 101.788 212.76C101.18 213.368 100.876 214.115 100.876 215C100.876 215.885 101.18 216.637 101.788 217.256ZM121.192 217.976H122.312V221.144H121.256V219H110.472V211H111.528V217.976H115.304V211H116.36V217.976H120.136V211H121.192V217.976ZM127.293 210.808C128.477 210.808 129.431 211.229 130.157 212.072C130.893 212.904 131.261 213.891 131.261 215.032C131.261 215.149 131.25 215.315 131.229 215.528H124.205C124.311 216.339 124.653 216.984 125.229 217.464C125.815 217.933 126.535 218.168 127.389 218.168C127.997 218.168 128.519 218.045 128.957 217.8C129.405 217.544 129.741 217.213 129.965 216.808L130.893 217.352C130.541 217.917 130.061 218.365 129.453 218.696C128.845 219.027 128.151 219.192 127.373 219.192C126.114 219.192 125.09 218.797 124.301 218.008C123.511 217.219 123.117 216.216 123.117 215C123.117 213.805 123.506 212.808 124.285 212.008C125.063 211.208 126.066 210.808 127.293 210.808ZM127.293 211.832C126.461 211.832 125.762 212.083 125.197 212.584C124.642 213.075 124.311 213.715 124.205 214.504H130.173C130.066 213.661 129.741 213.005 129.197 212.536C128.653 212.067 128.018 211.832 127.293 211.832ZM138.604 211H139.66V219H138.604V215.512H133.996V219H132.94V211H133.996V214.488H138.604V211ZM148.773 211H149.829V219H148.773V217.432C148.037 218.605 146.96 219.192 145.541 219.192C144.4 219.192 143.424 218.787 142.613 217.976C141.813 217.165 141.413 216.173 141.413 215C141.413 213.827 141.813 212.835 142.613 212.024C143.424 211.213 144.4 210.808 145.541 210.808C146.96 210.808 148.037 211.395 148.773 212.568V211ZM143.381 217.256C143.989 217.864 144.736 218.168 145.621 218.168C146.507 218.168 147.253 217.864 147.861 217.256C148.469 216.637 148.773 215.885 148.773 215C148.773 214.115 148.469 213.368 147.861 212.76C147.253 212.141 146.507 211.832 145.621 211.832C144.736 211.832 143.989 212.141 143.381 212.76C142.773 213.368 142.469 214.115 142.469 215C142.469 215.885 142.773 216.637 143.381 217.256ZM162.785 211V219H161.729V212.024H157.121V219H156.065V211H162.785ZM169.306 210.808C170.448 210.808 171.418 211.213 172.218 212.024C173.029 212.835 173.434 213.827 173.434 215C173.434 216.173 173.029 217.165 172.218 217.976C171.418 218.787 170.448 219.192 169.306 219.192C167.888 219.192 166.81 218.605 166.074 217.432V222.2H165.018V211H166.074V212.568C166.81 211.395 167.888 210.808 169.306 210.808ZM166.986 217.256C167.594 217.864 168.341 218.168 169.226 218.168C170.112 218.168 170.858 217.864 171.466 217.256C172.074 216.637 172.378 215.885 172.378 215C172.378 214.115 172.074 213.368 171.466 212.76C170.858 212.141 170.112 211.832 169.226 211.832C168.341 211.832 167.594 212.141 166.986 212.76C166.378 213.368 166.074 214.115 166.074 215C166.074 215.885 166.378 216.637 166.986 217.256ZM181.014 211H181.91V219H180.854V212.84L176.086 219H175.19V211H176.246V217.16L181.014 211ZM188.431 210.808C189.573 210.808 190.543 211.213 191.343 212.024C192.154 212.835 192.559 213.827 192.559 215C192.559 216.173 192.154 217.165 191.343 217.976C190.543 218.787 189.573 219.192 188.431 219.192C187.013 219.192 185.935 218.605 185.199 217.432V222.2H184.143V211H185.199V212.568C185.935 211.395 187.013 210.808 188.431 210.808ZM186.111 217.256C186.719 217.864 187.466 218.168 188.351 218.168C189.237 218.168 189.983 217.864 190.591 217.256C191.199 216.637 191.503 215.885 191.503 215C191.503 214.115 191.199 213.368 190.591 212.76C189.983 212.141 189.237 211.832 188.351 211.832C187.466 211.832 186.719 212.141 186.111 212.76C185.503 213.368 185.199 214.115 185.199 215C185.199 215.885 185.503 216.637 186.111 217.256ZM201.019 217.992C200.209 218.792 199.217 219.192 198.043 219.192C196.87 219.192 195.873 218.792 195.051 217.992C194.241 217.181 193.835 216.184 193.835 215C193.835 213.816 194.241 212.824 195.051 212.024C195.873 211.213 196.87 210.808 198.043 210.808C199.217 210.808 200.209 211.213 201.019 212.024C201.841 212.824 202.251 213.816 202.251 215C202.251 216.184 201.841 217.181 201.019 217.992ZM195.803 217.256C196.411 217.864 197.158 218.168 198.043 218.168C198.929 218.168 199.675 217.864 200.283 217.256C200.891 216.637 201.195 215.885 201.195 215C201.195 214.115 200.891 213.368 200.283 212.76C199.675 212.141 198.929 211.832 198.043 211.832C197.158 211.832 196.411 212.141 195.803 212.76C195.195 213.368 194.891 214.115 194.891 215C194.891 215.885 195.195 216.637 195.803 217.256ZM210.426 217.976H211.546V221.144H210.49V219H203.962V221.144H202.906V217.976H203.882C204.426 217.261 204.698 216.253 204.698 214.952V211H210.426V217.976ZM205.162 217.976H209.37V212.024H205.754V214.952C205.754 216.179 205.557 217.187 205.162 217.976ZM218.807 211H219.863V219H218.807V215.512H214.199V219H213.143V211H214.199V214.488H218.807V211ZM225.345 214.04C226.091 214.04 226.721 214.275 227.233 214.744C227.755 215.203 228.017 215.795 228.017 216.52C228.017 217.245 227.755 217.843 227.233 218.312C226.721 218.771 226.091 219 225.345 219H222.097V211H223.153V214.04H225.345ZM229.137 211H230.193V219H229.137V211ZM225.345 217.976C225.793 217.976 226.171 217.843 226.481 217.576C226.801 217.309 226.961 216.957 226.961 216.52C226.961 216.083 226.801 215.731 226.481 215.464C226.171 215.197 225.793 215.064 225.345 215.064H223.153V217.976H225.345ZM240.28 211V219H239.224V212.616L236.424 217.16H236.296L233.496 212.616V219H232.44V211H233.656L236.36 215.384L239.064 211H240.28ZM248.342 211H249.238V219H248.182V212.84L243.414 219H242.518V211H243.574V217.16L248.342 211ZM89.4053 235V243H88.3493V236.616L85.5493 241.16H85.4213L82.6213 236.616V243H81.5653V235H82.7813L85.4853 239.384L88.1893 235H89.4053ZM97.4674 235H98.3634V243H97.3074V236.84L92.5394 243H91.6434V235H92.6994V241.16L97.4674 235ZM107.061 243H105.653L101.653 239.144V243H100.597V235H101.653V238.536L105.461 235H106.901L102.773 238.84L107.061 243ZM112.791 234.808C113.932 234.808 114.903 235.213 115.703 236.024C116.513 236.835 116.919 237.827 116.919 239C116.919 240.173 116.513 241.165 115.703 241.976C114.903 242.787 113.932 243.192 112.791 243.192C111.372 243.192 110.295 242.605 109.559 241.432V246.2H108.503V235H109.559V236.568C110.295 235.395 111.372 234.808 112.791 234.808ZM110.471 241.256C111.079 241.864 111.825 242.168 112.711 242.168C113.596 242.168 114.343 241.864 114.951 241.256C115.559 240.637 115.863 239.885 115.863 239C115.863 238.115 115.559 237.368 114.951 236.76C114.343 236.141 113.596 235.832 112.711 235.832C111.825 235.832 111.079 236.141 110.471 236.76C109.863 237.368 109.559 238.115 109.559 239C109.559 239.885 109.863 240.637 110.471 241.256ZM125.379 241.992C124.568 242.792 123.576 243.192 122.403 243.192C121.229 243.192 120.232 242.792 119.411 241.992C118.6 241.181 118.195 240.184 118.195 239C118.195 237.816 118.6 236.824 119.411 236.024C120.232 235.213 121.229 234.808 122.403 234.808C123.576 234.808 124.568 235.213 125.379 236.024C126.2 236.824 126.611 237.816 126.611 239C126.611 240.184 126.2 241.181 125.379 241.992ZM120.163 241.256C120.771 241.864 121.517 242.168 122.403 242.168C123.288 242.168 124.035 241.864 124.643 241.256C125.251 240.637 125.555 239.885 125.555 239C125.555 238.115 125.251 237.368 124.643 236.76C124.035 236.141 123.288 235.832 122.403 235.832C121.517 235.832 120.771 236.141 120.163 236.76C119.555 237.368 119.251 238.115 119.251 239C119.251 239.885 119.555 240.637 120.163 241.256ZM131.07 234.808C132.275 234.808 133.246 235.208 133.982 236.008C134.718 236.797 135.086 237.795 135.086 239C135.086 240.205 134.712 241.208 133.966 242.008C133.23 242.797 132.254 243.192 131.038 243.192C130.174 243.192 129.422 243.005 128.782 242.632C128.152 242.248 127.699 241.731 127.422 241.08L128.334 240.552C128.515 241.043 128.84 241.437 129.31 241.736C129.779 242.024 130.355 242.168 131.038 242.168C131.838 242.168 132.504 241.923 133.038 241.432C133.571 240.931 133.891 240.291 133.998 239.512H130.014V238.488H133.998C133.902 237.709 133.587 237.075 133.054 236.584C132.531 236.083 131.87 235.832 131.07 235.832C130.462 235.832 129.923 235.976 129.454 236.264C128.984 236.552 128.638 236.941 128.414 237.432L127.486 236.904C127.806 236.253 128.28 235.741 128.91 235.368C129.55 234.995 130.27 234.808 131.07 234.808ZM143.094 235V243H142.038V236.024H138.422V239.592C138.422 240.925 138.166 241.843 137.654 242.344C137.153 242.845 136.459 243.064 135.574 243V242.008C136.182 242.072 136.63 241.928 136.918 241.576C137.217 241.224 137.366 240.563 137.366 239.592V235H143.094ZM149.027 234.808C150.211 234.808 151.166 235.229 151.891 236.072C152.627 236.904 152.995 237.891 152.995 239.032C152.995 239.149 152.984 239.315 152.963 239.528H145.939C146.046 240.339 146.387 240.984 146.963 241.464C147.55 241.933 148.27 242.168 149.123 242.168C149.731 242.168 150.254 242.045 150.691 241.8C151.139 241.544 151.475 241.213 151.699 240.808L152.627 241.352C152.275 241.917 151.795 242.365 151.187 242.696C150.579 243.027 149.886 243.192 149.107 243.192C147.848 243.192 146.824 242.797 146.035 242.008C145.246 241.219 144.851 240.216 144.851 239C144.851 237.805 145.24 236.808 146.019 236.008C146.798 235.208 147.8 234.808 149.027 234.808ZM149.027 235.832C148.195 235.832 147.496 236.083 146.931 236.584C146.376 237.075 146.046 237.715 145.939 238.504H151.907C151.8 237.661 151.475 237.005 150.931 236.536C150.387 236.067 149.752 235.832 149.027 235.832ZM162.515 235V243H161.459V236.616L158.659 241.16H158.531L155.731 236.616V243H154.675V235H155.891L158.595 239.384L161.299 235H162.515ZM168.449 234.808C169.633 234.808 170.587 235.229 171.313 236.072C172.049 236.904 172.417 237.891 172.417 239.032C172.417 239.149 172.406 239.315 172.385 239.528H165.361C165.467 240.339 165.809 240.984 166.385 241.464C166.971 241.933 167.691 242.168 168.545 242.168C169.153 242.168 169.675 242.045 170.113 241.8C170.561 241.544 170.897 241.213 171.121 240.808L172.049 241.352C171.697 241.917 171.217 242.365 170.609 242.696C170.001 243.027 169.307 243.192 168.529 243.192C167.27 243.192 166.246 242.797 165.457 242.008C164.667 241.219 164.273 240.216 164.273 239C164.273 237.805 164.662 236.808 165.441 236.008C166.219 235.208 167.222 234.808 168.449 234.808ZM168.449 235.832C167.617 235.832 166.918 236.083 166.353 236.584C165.798 237.075 165.467 237.715 165.361 238.504H171.329C171.222 237.661 170.897 237.005 170.353 236.536C169.809 236.067 169.174 235.832 168.449 235.832ZM179.761 235H180.817V243H179.761V239.512H175.153V243H174.097V235H175.153V238.488H179.761V235ZM188.81 235V236.024H185.978V243H184.922V236.024H182.09V235H188.81ZM196.664 235H197.72V243H196.664V241.432C195.928 242.605 194.851 243.192 193.432 243.192C192.291 243.192 191.315 242.787 190.504 241.976C189.704 241.165 189.304 240.173 189.304 239C189.304 237.827 189.704 236.835 190.504 236.024C191.315 235.213 192.291 234.808 193.432 234.808C194.851 234.808 195.928 235.395 196.664 236.568V235ZM191.272 241.256C191.88 241.864 192.627 242.168 193.512 242.168C194.397 242.168 195.144 241.864 195.752 241.256C196.36 240.637 196.664 239.885 196.664 239C196.664 238.115 196.36 237.368 195.752 236.76C195.144 236.141 194.397 235.832 193.512 235.832C192.627 235.832 191.88 236.141 191.272 236.76C190.664 237.368 190.36 238.115 190.36 239C190.36 239.885 190.664 240.637 191.272 241.256ZM207.796 235V243H206.74V236.616L203.94 241.16H203.812L201.012 236.616V243H199.956V235H201.172L203.876 239.384L206.58 235H207.796ZM215.858 235H216.754V243H215.698V236.84L210.93 243H210.034V235H211.09V241.16L215.858 235ZM220.331 242.904C220.161 243.075 219.953 243.16 219.707 243.16C219.462 243.16 219.254 243.075 219.083 242.904C218.913 242.733 218.827 242.525 218.827 242.28C218.827 242.035 218.913 241.827 219.083 241.656C219.254 241.485 219.462 241.4 219.707 241.4C219.953 241.4 220.161 241.485 220.331 241.656C220.502 241.827 220.587 242.035 220.587 242.28C220.587 242.525 220.502 242.733 220.331 242.904Z" fill="white"/>
<defs>
<linearGradient id="paint0_linear" x1="151.101" y1="8.94505" x2="152.923" y2="326.136" gradientUnits="userSpaceOnUse">
<stop stop-color="#05D8FC"/>
<stop offset="1" stop-color="#0597DD"/>
</linearGradient>
<linearGradient id="paint1_linear" x1="151.113" y1="76.6607" x2="152.211" y2="304.657" gradientUnits="userSpaceOnUse">
<stop stop-color="#05D8FC"/>
<stop offset="1" stop-color="#0597DD"/>
</linearGradient>
</defs>
</svg>
