<svg width="301" height="340" viewBox="0 0 301 340" fill="none" xmlns="http://www.w3.org/2000/svg">
<circle opacity="0.2" cx="150.5" cy="189.5" r="149" stroke="url(#paint0_linear)" stroke-width="3"/>
<mask id="mask0" mask-type="alpha" maskUnits="userSpaceOnUse" x="20" y="62" width="260" height="254">
<path d="M280 185C280 256.797 221.797 315 150 315C78.203 315 20 256.797 20 185C20 141.357 41.5066 102.736 74.5 79.1588C105.5 60.5 149.978 59.832 191.5 65.0001C206.785 66.9025 215.5 73.0001 225.5 79.1588C258.493 102.736 280 141.357 280 185Z" fill="white"/>
</mask>
<g mask="url(#mask0)">
<path d="M280 185C280 256.797 221.797 315 150 315C78.203 315 20 256.797 20 185C20 141.357 41.5066 102.736 74.5 79.1588C102 90.5 105.054 71.2052 105.5 72.0001C117 92.5 136.406 76.2188 136.5 72.0001C142 84 160 89.9999 167.5 72.5C177 92 194 82.5 196.5 72.0001C200 79.1588 207 83.5 225.5 79.1588C258.493 102.736 280 141.357 280 185Z" fill="url(#paint1_linear)"/>
<path d="M76 77C94.5 93 105.5 76.0265 105.5 76.0265C113.5 88 133.225 82.2859 137 76.0265C139 80 155 91.5 167 76.0265C176.444 93.5874 193.5 82 196.5 76.0265C201 82 216 88 224.5 77.5" stroke="white" stroke-width="5"/>
</g>
<path fill-rule="evenodd" clip-rule="evenodd" d="M116.089 17.2993L110 6L103.911 17.2993L91.6152 13.6152L95.2993 25.9108L84 32L95.2993 38.0892L91.6152 50.3848L103.911 46.7007L110 58L116.089 46.7007L128.385 50.3848L124.701 38.0892L136 32L124.701 25.9108L128.385 13.6152L116.089 17.2993ZM110.5 42C115.747 42 120 37.7467 120 32.5C120 27.2533 115.747 23 110.5 23C105.253 23 101 27.2533 101 32.5C101 37.7467 105.253 42 110.5 42Z" fill="white"/>
<path d="M189.5 4.00001C182.238 -0.739936 179.095 1.11653 173.5 4.50001V8.50001C179.636 4.59955 183.098 3.17446 189.5 8.50001C195.756 3.71266 199.244 3.14341 205.5 8.50001V4.00001C198.125 -1.70735 194.97 0.0528905 189.5 4.00001Z" fill="white"/>
<path d="M203 22.5828C193.01 16.6524 189.009 18.8187 182 23.0736V27C190.054 23.1713 194.597 21.7725 203 27C211.21 22.3008 215.789 21.742 224 27V22.5828C214.32 16.9805 210.179 18.7084 203 22.5828Z" fill="white"/>
<path d="M94.7862 150.512C93.6662 151.632 92.2955 152.192 90.6742 152.192C89.0529 152.192 87.6822 151.632 86.5622 150.512C85.4422 149.381 84.8822 148.011 84.8822 146.4C84.8822 144.789 85.4422 143.424 86.5622 142.304C87.6822 141.173 89.0529 140.608 90.6742 140.608C92.2955 140.608 93.6662 141.173 94.7862 142.304C95.9062 143.424 96.4662 144.789 96.4662 146.4C96.4662 148.011 95.9062 149.381 94.7862 150.512ZM87.3462 149.744C88.2422 150.651 89.3515 151.104 90.6742 151.104C91.9969 151.104 93.1062 150.651 94.0022 149.744C94.8982 148.827 95.3462 147.712 95.3462 146.4C95.3462 145.088 94.8982 143.979 94.0022 143.072C93.1062 142.155 91.9969 141.696 90.6742 141.696C89.3515 141.696 88.2422 142.155 87.3462 143.072C86.4502 143.979 86.0022 145.088 86.0022 146.4C86.0022 147.712 86.4502 148.827 87.3462 149.744ZM103.982 144V145.024H101.15V152H100.094V145.024H97.2616V144H103.982ZM108.684 152.192C107.479 152.192 106.476 151.792 105.676 150.992C104.876 150.181 104.476 149.184 104.476 148C104.476 146.816 104.876 145.824 105.676 145.024C106.476 144.213 107.479 143.808 108.684 143.808C109.473 143.808 110.183 144 110.812 144.384C111.441 144.757 111.9 145.264 112.188 145.904L111.324 146.4C111.111 145.92 110.764 145.541 110.284 145.264C109.815 144.976 109.281 144.832 108.684 144.832C107.799 144.832 107.052 145.141 106.444 145.76C105.836 146.368 105.532 147.115 105.532 148C105.532 148.885 105.836 149.637 106.444 150.256C107.052 150.864 107.799 151.168 108.684 151.168C109.281 151.168 109.815 151.029 110.284 150.752C110.753 150.464 111.121 150.08 111.388 149.6L112.268 150.112C111.937 150.752 111.452 151.259 110.812 151.632C110.172 152.005 109.463 152.192 108.684 152.192ZM119.388 144V145.024H116.556V152H115.5V145.024H112.668V144H119.388ZM126.435 144H127.555L124.131 152.736C123.821 153.525 123.379 154.144 122.803 154.592C122.237 155.051 121.603 155.253 120.899 155.2V154.208C121.859 154.315 122.589 153.76 123.091 152.544L123.299 152.048L119.715 144H120.835L123.843 150.704L126.435 144ZM135.551 144V152H134.495V145.024H129.887V152H128.831V144H135.551ZM144.664 144H145.72V152H144.664V150.432C143.928 151.605 142.851 152.192 141.432 152.192C140.291 152.192 139.315 151.787 138.504 150.976C137.704 150.165 137.304 149.173 137.304 148C137.304 146.827 137.704 145.835 138.504 145.024C139.315 144.213 140.291 143.808 141.432 143.808C142.851 143.808 143.928 144.395 144.664 145.568V144ZM139.272 150.256C139.88 150.864 140.627 151.168 141.512 151.168C142.397 151.168 143.144 150.864 143.752 150.256C144.36 149.637 144.664 148.885 144.664 148C144.664 147.115 144.36 146.368 143.752 145.76C143.144 145.141 142.397 144.832 141.512 144.832C140.627 144.832 139.88 145.141 139.272 145.76C138.664 146.368 138.36 147.115 138.36 148C138.36 148.885 138.664 149.637 139.272 150.256ZM153.716 144V152H152.66V148.928H151.284L148.82 152H147.476L150.004 148.896C149.364 148.8 148.836 148.533 148.42 148.096C148.004 147.659 147.796 147.12 147.796 146.48C147.796 145.755 148.052 145.163 148.564 144.704C149.087 144.235 149.721 144 150.468 144H153.716ZM150.468 147.936H152.66V145.024H150.468C150.02 145.024 149.636 145.157 149.316 145.424C149.007 145.691 148.852 146.043 148.852 146.48C148.852 146.917 149.007 147.269 149.316 147.536C149.636 147.803 150.02 147.936 150.468 147.936ZM157.716 150.64L156.756 154.24H155.796L156.436 150.64H157.716ZM170.36 144V152H169.304V145.024H165.688V148.592C165.688 149.925 165.432 150.843 164.92 151.344C164.418 151.845 163.725 152.064 162.84 152V151.008C163.448 151.072 163.896 150.928 164.184 150.576C164.482 150.224 164.632 149.563 164.632 148.592V144H170.36ZM176.293 143.808C177.477 143.808 178.431 144.229 179.157 145.072C179.893 145.904 180.261 146.891 180.261 148.032C180.261 148.149 180.25 148.315 180.229 148.528H173.205C173.311 149.339 173.653 149.984 174.229 150.464C174.815 150.933 175.535 151.168 176.389 151.168C176.997 151.168 177.519 151.045 177.957 150.8C178.405 150.544 178.741 150.213 178.965 149.808L179.893 150.352C179.541 150.917 179.061 151.365 178.453 151.696C177.845 152.027 177.151 152.192 176.373 152.192C175.114 152.192 174.09 151.797 173.301 151.008C172.511 150.219 172.117 149.216 172.117 148C172.117 146.805 172.506 145.808 173.285 145.008C174.063 144.208 175.066 143.808 176.293 143.808ZM176.293 144.832C175.461 144.832 174.762 145.083 174.197 145.584C173.642 146.075 173.311 146.715 173.205 147.504H179.173C179.066 146.661 178.741 146.005 178.197 145.536C177.653 145.067 177.018 144.832 176.293 144.832ZM188.348 150.976H189.468V154.144H188.412V152H181.884V154.144H180.828V150.976H181.804C182.348 150.261 182.62 149.253 182.62 147.952V144H188.348V150.976ZM183.084 150.976H187.292V145.024H183.676V147.952C183.676 149.179 183.478 150.187 183.084 150.976ZM196.729 144H197.785V152H196.729V148.512H192.121V152H191.065V144H192.121V147.488H196.729V144ZM205.842 144H206.738V152H205.682V145.84L200.914 152H200.018V144H201.074V150.16L205.842 144ZM215.436 152H214.028L210.028 148.144V152H208.972V144H210.028V147.536L213.836 144H215.276L211.148 147.84L215.436 152ZM82.1668 168H83.2228V176H82.1668V172.512H77.5588V176H76.5028V168H77.5588V171.488H82.1668V168ZM92.3359 168H93.3919V176H92.3359V174.432C91.5999 175.605 90.5226 176.192 89.1039 176.192C87.9626 176.192 86.9866 175.787 86.1759 174.976C85.3759 174.165 84.9759 173.173 84.9759 172C84.9759 170.827 85.3759 169.835 86.1759 169.024C86.9866 168.213 87.9626 167.808 89.1039 167.808C90.5226 167.808 91.5999 168.395 92.3359 169.568V168ZM86.9439 174.256C87.5519 174.864 88.2986 175.168 89.1839 175.168C90.0693 175.168 90.8159 174.864 91.4239 174.256C92.0319 173.637 92.3359 172.885 92.3359 172C92.3359 171.115 92.0319 170.368 91.4239 169.76C90.8159 169.141 90.0693 168.832 89.1839 168.832C88.2986 168.832 87.5519 169.141 86.9439 169.76C86.3359 170.368 86.0319 171.115 86.0319 172C86.0319 172.885 86.3359 173.637 86.9439 174.256ZM100.748 168V169.024H96.6838V176H95.6278V168H100.748ZM106.322 167.808C107.463 167.808 108.434 168.213 109.234 169.024C110.045 169.835 110.45 170.827 110.45 172C110.45 173.173 110.045 174.165 109.234 174.976C108.434 175.787 107.463 176.192 106.322 176.192C104.903 176.192 103.826 175.605 103.09 174.432V179.2H102.034V168H103.09V169.568C103.826 168.395 104.903 167.808 106.322 167.808ZM104.002 174.256C104.61 174.864 105.357 175.168 106.242 175.168C107.127 175.168 107.874 174.864 108.482 174.256C109.09 173.637 109.394 172.885 109.394 172C109.394 171.115 109.09 170.368 108.482 169.76C107.874 169.141 107.127 168.832 106.242 168.832C105.357 168.832 104.61 169.141 104.002 169.76C103.394 170.368 103.09 171.115 103.09 172C103.09 172.885 103.394 173.637 104.002 174.256ZM118.91 174.992C118.099 175.792 117.107 176.192 115.934 176.192C114.761 176.192 113.763 175.792 112.942 174.992C112.131 174.181 111.726 173.184 111.726 172C111.726 170.816 112.131 169.824 112.942 169.024C113.763 168.213 114.761 167.808 115.934 167.808C117.107 167.808 118.099 168.213 118.91 169.024C119.731 169.824 120.142 170.816 120.142 172C120.142 173.184 119.731 174.181 118.91 174.992ZM113.694 174.256C114.302 174.864 115.049 175.168 115.934 175.168C116.819 175.168 117.566 174.864 118.174 174.256C118.782 173.637 119.086 172.885 119.086 172C119.086 171.115 118.782 170.368 118.174 169.76C117.566 169.141 116.819 168.832 115.934 168.832C115.049 168.832 114.302 169.141 113.694 169.76C113.086 170.368 112.782 171.115 112.782 172C112.782 172.885 113.086 173.637 113.694 174.256ZM129.749 168V176H128.693V169.616L125.893 174.16H125.765L122.965 169.616V176H121.909V168H123.125L125.829 172.384L128.533 168H129.749ZM138.691 174.992C137.881 175.792 136.889 176.192 135.715 176.192C134.542 176.192 133.545 175.792 132.723 174.992C131.913 174.181 131.507 173.184 131.507 172C131.507 170.816 131.913 169.824 132.723 169.024C133.545 168.213 134.542 167.808 135.715 167.808C136.889 167.808 137.881 168.213 138.691 169.024C139.513 169.824 139.923 170.816 139.923 172C139.923 173.184 139.513 174.181 138.691 174.992ZM133.475 174.256C134.083 174.864 134.83 175.168 135.715 175.168C136.601 175.168 137.347 174.864 137.955 174.256C138.563 173.637 138.867 172.885 138.867 172C138.867 171.115 138.563 170.368 137.955 169.76C137.347 169.141 136.601 168.832 135.715 168.832C134.83 168.832 134.083 169.141 133.475 169.76C132.867 170.368 132.563 171.115 132.563 172C132.563 172.885 132.867 173.637 133.475 174.256ZM145.506 171.888C146.434 172.24 146.898 172.88 146.898 173.808C146.898 174.469 146.636 175.035 146.114 175.504C145.602 175.963 144.866 176.192 143.906 176.192C142.295 176.192 141.239 175.552 140.738 174.272L141.634 173.744C141.964 174.693 142.722 175.168 143.906 175.168C144.524 175.168 144.999 175.035 145.33 174.768C145.671 174.501 145.842 174.16 145.842 173.744C145.842 173.371 145.703 173.067 145.426 172.832C145.148 172.597 144.775 172.48 144.306 172.48H143.138V171.456H143.986C144.444 171.456 144.802 171.344 145.058 171.12C145.324 170.885 145.458 170.565 145.458 170.16C145.458 169.776 145.303 169.461 144.994 169.216C144.684 168.96 144.268 168.832 143.746 168.832C142.743 168.832 142.076 169.232 141.746 170.032L140.866 169.52C141.399 168.379 142.359 167.808 143.746 167.808C144.588 167.808 145.26 168.032 145.762 168.48C146.263 168.917 146.514 169.456 146.514 170.096C146.514 170.917 146.178 171.515 145.506 171.888ZM155.067 174.976H156.187V178.144H155.131V176H148.603V178.144H147.547V174.976H148.523C149.067 174.261 149.339 173.253 149.339 171.952V168H155.067V174.976ZM149.803 174.976H154.011V169.024H150.395V171.952C150.395 173.179 150.197 174.187 149.803 174.976ZM163.608 168H164.504V176H163.448V169.84L158.68 176H157.784V168H158.84V174.16L163.608 168ZM173.297 168V176H172.241V169.024H168.625V172.592C168.625 173.925 168.369 174.843 167.857 175.344C167.356 175.845 166.663 176.064 165.777 176V175.008C166.385 175.072 166.833 174.928 167.121 174.576C167.42 174.224 167.569 173.563 167.569 172.592V168H173.297ZM186.254 176H184.99L182.494 172.704L179.998 176H178.734L181.87 171.856L178.942 168H180.206L182.494 171.024L184.782 168H186.046L183.134 171.856L186.254 176ZM193.832 174.992C193.021 175.792 192.029 176.192 190.856 176.192C189.682 176.192 188.685 175.792 187.864 174.992C187.053 174.181 186.648 173.184 186.648 172C186.648 170.816 187.053 169.824 187.864 169.024C188.685 168.213 189.682 167.808 190.856 167.808C192.029 167.808 193.021 168.213 193.832 169.024C194.653 169.824 195.064 170.816 195.064 172C195.064 173.184 194.653 174.181 193.832 174.992ZM188.616 174.256C189.224 174.864 189.97 175.168 190.856 175.168C191.741 175.168 192.488 174.864 193.096 174.256C193.704 173.637 194.008 172.885 194.008 172C194.008 171.115 193.704 170.368 193.096 169.76C192.488 169.141 191.741 168.832 190.856 168.832C189.97 168.832 189.224 169.141 188.616 169.76C188.008 170.368 187.704 171.115 187.704 172C187.704 172.885 188.008 173.637 188.616 174.256ZM203.078 168V176H202.022V169.024H198.406V172.592C198.406 173.925 198.15 174.843 197.638 175.344C197.137 175.845 196.444 176.064 195.558 176V175.008C196.166 175.072 196.614 174.928 196.902 174.576C197.201 174.224 197.35 173.563 197.35 172.592V168H203.078ZM213.155 168V176H212.099V169.616L209.299 174.16H209.171L206.371 169.616V176H205.315V168H206.531L209.235 172.384L211.939 168H213.155ZM218.641 171.04C219.388 171.04 220.017 171.275 220.529 171.744C221.052 172.203 221.313 172.795 221.313 173.52C221.313 174.245 221.052 174.843 220.529 175.312C220.017 175.771 219.388 176 218.641 176H215.393V168H216.449V171.04H218.641ZM222.433 168H223.489V176H222.433V168ZM218.641 174.976C219.089 174.976 219.468 174.843 219.777 174.576C220.097 174.309 220.257 173.957 220.257 173.52C220.257 173.083 220.097 172.731 219.777 172.464C219.468 172.197 219.089 172.064 218.641 172.064H216.449V174.976H218.641ZM49.3708 194.192C49.9148 194.427 50.3468 194.784 50.6668 195.264C50.9975 195.733 51.1628 196.272 51.1628 196.88C51.1628 197.744 50.8588 198.48 50.2508 199.088C49.6428 199.696 48.9068 200 48.0428 200H43.1628V188.8H47.6748C48.5068 188.8 49.2161 189.099 49.8028 189.696C50.3895 190.283 50.6828 190.987 50.6828 191.808C50.6828 192.853 50.2455 193.648 49.3708 194.192ZM47.6748 189.856H44.2828V193.76H47.6748C48.1975 193.76 48.6401 193.573 49.0028 193.2C49.3761 192.816 49.5628 192.352 49.5628 191.808C49.5628 191.275 49.3761 190.816 49.0028 190.432C48.6401 190.048 48.1975 189.856 47.6748 189.856ZM48.0428 198.944C48.5975 198.944 49.0668 198.747 49.4508 198.352C49.8455 197.947 50.0428 197.456 50.0428 196.88C50.0428 196.315 49.8455 195.829 49.4508 195.424C49.0668 195.019 48.5975 194.816 48.0428 194.816H44.2828V198.944H48.0428ZM59.6287 198.992C58.818 199.792 57.826 200.192 56.6527 200.192C55.4794 200.192 54.482 199.792 53.6607 198.992C52.85 198.181 52.4447 197.184 52.4447 196C52.4447 194.816 52.85 193.824 53.6607 193.024C54.482 192.213 55.4794 191.808 56.6527 191.808C57.826 191.808 58.818 192.213 59.6287 193.024C60.45 193.824 60.8607 194.816 60.8607 196C60.8607 197.184 60.45 198.181 59.6287 198.992ZM54.4127 198.256C55.0207 198.864 55.7674 199.168 56.6527 199.168C57.538 199.168 58.2847 198.864 58.8927 198.256C59.5007 197.637 59.8047 196.885 59.8047 196C59.8047 195.115 59.5007 194.368 58.8927 193.76C58.2847 193.141 57.538 192.832 56.6527 192.832C55.7674 192.832 55.0207 193.141 54.4127 193.76C53.8047 194.368 53.5007 195.115 53.5007 196C53.5007 196.885 53.8047 197.637 54.4127 198.256ZM68.8753 192V200H67.8193V193.024H64.2033V196.592C64.2033 197.925 63.9473 198.843 63.4353 199.344C62.934 199.845 62.2406 200.064 61.3553 200V199.008C61.9633 199.072 62.4113 198.928 62.6993 198.576C62.998 198.224 63.1473 197.563 63.1473 196.592V192H68.8753ZM77.8322 198.976H78.9522V202.144H77.8962V200H71.3682V202.144H70.3122V198.976H71.2882C71.8322 198.261 72.1042 197.253 72.1042 195.952V192H77.8322V198.976ZM72.5682 198.976H76.7762V193.024H73.1602V195.952C73.1602 197.179 72.9629 198.187 72.5682 198.976ZM87.1172 192H88.1732V200H87.1172V198.432C86.3812 199.605 85.3039 200.192 83.8852 200.192C82.7439 200.192 81.7679 199.787 80.9572 198.976C80.1572 198.165 79.7572 197.173 79.7572 196C79.7572 194.827 80.1572 193.835 80.9572 193.024C81.7679 192.213 82.7439 191.808 83.8852 191.808C85.3039 191.808 86.3812 192.395 87.1172 193.568V192ZM81.7252 198.256C82.3332 198.864 83.0799 199.168 83.9652 199.168C84.8505 199.168 85.5972 198.864 86.2052 198.256C86.8132 197.637 87.1172 196.885 87.1172 196C87.1172 195.115 86.8132 194.368 86.2052 193.76C85.5972 193.141 84.8505 192.832 83.9652 192.832C83.0799 192.832 82.3332 193.141 81.7252 193.76C81.1172 194.368 80.8132 195.115 80.8132 196C80.8132 196.885 81.1172 197.637 81.7252 198.256ZM91.6891 190.72V189.792H95.8491V190.72H91.6891ZM96.2331 192H97.1291V200H96.0731V193.84L91.3051 200H90.4091V192H91.4651V198.16L96.2331 192ZM103.09 200.192C101.885 200.192 100.882 199.792 100.082 198.992C99.2822 198.181 98.8822 197.184 98.8822 196C98.8822 194.816 99.2822 193.824 100.082 193.024C100.882 192.213 101.885 191.808 103.09 191.808C103.88 191.808 104.589 192 105.218 192.384C105.848 192.757 106.306 193.264 106.594 193.904L105.73 194.4C105.517 193.92 105.17 193.541 104.69 193.264C104.221 192.976 103.688 192.832 103.09 192.832C102.205 192.832 101.458 193.141 100.85 193.76C100.242 194.368 99.9382 195.115 99.9382 196C99.9382 196.885 100.242 197.637 100.85 198.256C101.458 198.864 102.205 199.168 103.09 199.168C103.688 199.168 104.221 199.029 104.69 198.752C105.16 198.464 105.528 198.08 105.794 197.6L106.674 198.112C106.344 198.752 105.858 199.259 105.218 199.632C104.578 200.005 103.869 200.192 103.09 200.192ZM114.654 200H113.246L109.246 196.144V200H108.19V192H109.246V195.536L113.054 192H114.494L110.366 195.84L114.654 200ZM122.004 198.992C121.193 199.792 120.201 200.192 119.028 200.192C117.854 200.192 116.857 199.792 116.036 198.992C115.225 198.181 114.82 197.184 114.82 196C114.82 194.816 115.225 193.824 116.036 193.024C116.857 192.213 117.854 191.808 119.028 191.808C120.201 191.808 121.193 192.213 122.004 193.024C122.825 193.824 123.236 194.816 123.236 196C123.236 197.184 122.825 198.181 122.004 198.992ZM116.788 198.256C117.396 198.864 118.142 199.168 119.028 199.168C119.913 199.168 120.66 198.864 121.268 198.256C121.876 197.637 122.18 196.885 122.18 196C122.18 195.115 121.876 194.368 121.268 193.76C120.66 193.141 119.913 192.832 119.028 192.832C118.142 192.832 117.396 193.141 116.788 193.76C116.18 194.368 115.876 195.115 115.876 196C115.876 196.885 116.18 197.637 116.788 198.256ZM126.283 190.72V189.792H130.443V190.72H126.283ZM130.827 192H131.723V200H130.667V193.84L125.899 200H125.003V192H126.059V198.16L130.827 192ZM143.044 195.888C143.919 196.208 144.356 196.832 144.356 197.76C144.356 198.411 144.137 198.949 143.7 199.376C143.273 199.792 142.655 200 141.844 200H137.956V192H141.524C142.303 192 142.905 192.203 143.332 192.608C143.759 193.003 143.972 193.515 143.972 194.144C143.972 194.944 143.663 195.525 143.044 195.888ZM141.524 193.024H139.012V195.456H141.524C142.452 195.456 142.916 195.04 142.916 194.208C142.916 193.835 142.793 193.547 142.548 193.344C142.313 193.131 141.972 193.024 141.524 193.024ZM141.844 198.976C142.313 198.976 142.671 198.864 142.916 198.64C143.172 198.416 143.3 198.101 143.3 197.696C143.3 197.323 143.172 197.029 142.916 196.816C142.671 196.592 142.313 196.48 141.844 196.48H139.012V198.976H141.844ZM152.66 198.992C151.849 199.792 150.857 200.192 149.684 200.192C148.511 200.192 147.513 199.792 146.692 198.992C145.881 198.181 145.476 197.184 145.476 196C145.476 194.816 145.881 193.824 146.692 193.024C147.513 192.213 148.511 191.808 149.684 191.808C150.857 191.808 151.849 192.213 152.66 193.024C153.481 193.824 153.892 194.816 153.892 196C153.892 197.184 153.481 198.181 152.66 198.992ZM147.444 198.256C148.052 198.864 148.799 199.168 149.684 199.168C150.569 199.168 151.316 198.864 151.924 198.256C152.532 197.637 152.836 196.885 152.836 196C152.836 195.115 152.532 194.368 151.924 193.76C151.316 193.141 150.569 192.832 149.684 192.832C148.799 192.832 148.052 193.141 147.444 193.76C146.836 194.368 146.532 195.115 146.532 196C146.532 196.885 146.836 197.637 147.444 198.256ZM159.475 195.888C160.403 196.24 160.867 196.88 160.867 197.808C160.867 198.469 160.605 199.035 160.083 199.504C159.571 199.963 158.835 200.192 157.875 200.192C156.264 200.192 155.208 199.552 154.707 198.272L155.603 197.744C155.933 198.693 156.691 199.168 157.875 199.168C158.493 199.168 158.968 199.035 159.299 198.768C159.64 198.501 159.811 198.16 159.811 197.744C159.811 197.371 159.672 197.067 159.395 196.832C159.117 196.597 158.744 196.48 158.275 196.48H157.107V195.456H157.955C158.413 195.456 158.771 195.344 159.027 195.12C159.293 194.885 159.427 194.565 159.427 194.16C159.427 193.776 159.272 193.461 158.963 193.216C158.653 192.96 158.237 192.832 157.715 192.832C156.712 192.832 156.045 193.232 155.715 194.032L154.835 193.52C155.368 192.379 156.328 191.808 157.715 191.808C158.557 191.808 159.229 192.032 159.731 192.48C160.232 192.917 160.483 193.456 160.483 194.096C160.483 194.917 160.147 195.515 159.475 195.888ZM167.56 195.888C168.434 196.208 168.872 196.832 168.872 197.76C168.872 198.411 168.653 198.949 168.216 199.376C167.789 199.792 167.17 200 166.36 200H162.472V192H166.04C166.818 192 167.421 192.203 167.848 192.608C168.274 193.003 168.488 193.515 168.488 194.144C168.488 194.944 168.178 195.525 167.56 195.888ZM166.04 193.024H163.528V195.456H166.04C166.968 195.456 167.432 195.04 167.432 194.208C167.432 193.835 167.309 193.547 167.064 193.344C166.829 193.131 166.488 193.024 166.04 193.024ZM166.36 198.976C166.829 198.976 167.186 198.864 167.432 198.64C167.688 198.416 167.816 198.101 167.816 197.696C167.816 197.323 167.688 197.029 167.432 196.816C167.186 196.592 166.829 196.48 166.36 196.48H163.528V198.976H166.36ZM173.72 195.04C174.466 195.04 175.096 195.275 175.608 195.744C176.13 196.203 176.392 196.795 176.392 197.52C176.392 198.245 176.13 198.843 175.608 199.312C175.096 199.771 174.466 200 173.72 200H170.472V192H171.528V195.04H173.72ZM177.512 192H178.568V200H177.512V192ZM173.72 198.976C174.168 198.976 174.546 198.843 174.856 198.576C175.176 198.309 175.336 197.957 175.336 197.52C175.336 197.083 175.176 196.731 174.856 196.464C174.546 196.197 174.168 196.064 173.72 196.064H171.528V198.976H173.72ZM190.479 192H191.535V200H180.815V192H181.871V198.976H185.647V192H186.703V198.976H190.479V192ZM197.464 191.808C198.648 191.808 199.603 192.229 200.328 193.072C201.064 193.904 201.432 194.891 201.432 196.032C201.432 196.149 201.422 196.315 201.4 196.528H194.376C194.483 197.339 194.824 197.984 195.4 198.464C195.987 198.933 196.707 199.168 197.56 199.168C198.168 199.168 198.691 199.045 199.128 198.8C199.576 198.544 199.912 198.213 200.136 197.808L201.064 198.352C200.712 198.917 200.232 199.365 199.624 199.696C199.016 200.027 198.323 200.192 197.544 200.192C196.286 200.192 195.262 199.797 194.472 199.008C193.683 198.219 193.288 197.216 193.288 196C193.288 194.805 193.678 193.808 194.456 193.008C195.235 192.208 196.238 191.808 197.464 191.808ZM197.464 192.832C196.632 192.832 195.934 193.083 195.368 193.584C194.814 194.075 194.483 194.715 194.376 195.504H200.344C200.238 194.661 199.912 194.005 199.368 193.536C198.824 193.067 198.19 192.832 197.464 192.832ZM208.776 192H209.832V200H208.776V196.512H204.168V200H203.112V192H204.168V195.488H208.776V192ZM217.729 192H218.785V200H217.729V196.512H213.121V200H212.065V192H213.121V195.488H217.729V192ZM227.722 198.992C226.912 199.792 225.92 200.192 224.746 200.192C223.573 200.192 222.576 199.792 221.754 198.992C220.944 198.181 220.538 197.184 220.538 196C220.538 194.816 220.944 193.824 221.754 193.024C222.576 192.213 223.573 191.808 224.746 191.808C225.92 191.808 226.912 192.213 227.722 193.024C228.544 193.824 228.954 194.816 228.954 196C228.954 197.184 228.544 198.181 227.722 198.992ZM222.506 198.256C223.114 198.864 223.861 199.168 224.746 199.168C225.632 199.168 226.378 198.864 226.986 198.256C227.594 197.637 227.898 196.885 227.898 196C227.898 195.115 227.594 194.368 226.986 193.76C226.378 193.141 225.632 192.832 224.746 192.832C223.861 192.832 223.114 193.141 222.506 193.76C221.898 194.368 221.594 195.115 221.594 196C221.594 196.885 221.898 197.637 222.506 198.256ZM234.45 200.192C233.244 200.192 232.242 199.792 231.442 198.992C230.642 198.181 230.242 197.184 230.242 196C230.242 194.816 230.642 193.824 231.442 193.024C232.242 192.213 233.244 191.808 234.45 191.808C235.239 191.808 235.948 192 236.578 192.384C237.207 192.757 237.666 193.264 237.954 193.904L237.09 194.4C236.876 193.92 236.53 193.541 236.05 193.264C235.58 192.976 235.047 192.832 234.45 192.832C233.564 192.832 232.818 193.141 232.21 193.76C231.602 194.368 231.298 195.115 231.298 196C231.298 196.885 231.602 197.637 232.21 198.256C232.818 198.864 233.564 199.168 234.45 199.168C235.047 199.168 235.58 199.029 236.05 198.752C236.519 198.464 236.887 198.08 237.154 197.6L238.034 198.112C237.703 198.752 237.218 199.259 236.578 199.632C235.938 200.005 235.228 200.192 234.45 200.192ZM245.153 192V193.024H242.321V200H241.265V193.024H238.433V192H245.153ZM252.264 192H253.16V200H252.104V193.84L247.336 200H246.44V192H247.496V198.16L252.264 192ZM257.153 198.64L256.193 202.24H255.233L255.873 198.64H257.153ZM56.4119 216V217.024H52.3479V224H51.2919V216H56.4119ZM63.9338 222.976H65.0538V226.144H63.9978V224H57.4698V226.144H56.4138V222.976H57.3898C57.9337 222.261 58.2057 221.253 58.2057 219.952V216H63.9338V222.976ZM58.6698 222.976H62.8778V217.024H59.2618V219.952C59.2618 221.179 59.0644 222.187 58.6698 222.976ZM70.0348 215.808C71.2188 215.808 72.1734 216.229 72.8988 217.072C73.6348 217.904 74.0028 218.891 74.0028 220.032C74.0028 220.149 73.9921 220.315 73.9708 220.528H66.9468C67.0534 221.339 67.3948 221.984 67.9708 222.464C68.5574 222.933 69.2774 223.168 70.1308 223.168C70.7388 223.168 71.2614 223.045 71.6988 222.8C72.1468 222.544 72.4828 222.213 72.7068 221.808L73.6348 222.352C73.2828 222.917 72.8028 223.365 72.1948 223.696C71.5868 224.027 70.8934 224.192 70.1148 224.192C68.8561 224.192 67.8321 223.797 67.0428 223.008C66.2534 222.219 65.8588 221.216 65.8588 220C65.8588 218.805 66.2481 217.808 67.0268 217.008C67.8054 216.208 68.8081 215.808 70.0348 215.808ZM70.0348 216.832C69.2028 216.832 68.5041 217.083 67.9388 217.584C67.3841 218.075 67.0534 218.715 66.9468 219.504H72.9148C72.8081 218.661 72.4828 218.005 71.9388 217.536C71.3948 217.067 70.7601 216.832 70.0348 216.832ZM85.3465 216H86.4025V224H85.3465V220.512H80.7385V224H79.6825V216H80.7385V219.488H85.3465V216ZM95.5156 216H96.5716V224H95.5156V222.432C94.7796 223.605 93.7023 224.192 92.2836 224.192C91.1423 224.192 90.1663 223.787 89.3556 222.976C88.5556 222.165 88.1556 221.173 88.1556 220C88.1556 218.827 88.5556 217.835 89.3556 217.024C90.1663 216.213 91.1423 215.808 92.2836 215.808C93.7023 215.808 94.7796 216.395 95.5156 217.568V216ZM90.1236 222.256C90.7316 222.864 91.4783 223.168 92.3636 223.168C93.249 223.168 93.9956 222.864 94.6036 222.256C95.2116 221.637 95.5156 220.885 95.5156 220C95.5156 219.115 95.2116 218.368 94.6036 217.76C93.9956 217.141 93.249 216.832 92.3636 216.832C91.4783 216.832 90.7316 217.141 90.1236 217.76C89.5156 218.368 89.2116 219.115 89.2116 220C89.2116 220.885 89.5156 221.637 90.1236 222.256ZM105.528 224H104.264L101.768 220.704L99.2715 224H98.0075L101.144 219.856L98.2155 216H99.4795L101.768 219.024L104.056 216H105.32L102.408 219.856L105.528 224ZM113.105 222.992C112.295 223.792 111.303 224.192 110.129 224.192C108.956 224.192 107.959 223.792 107.137 222.992C106.327 222.181 105.921 221.184 105.921 220C105.921 218.816 106.327 217.824 107.137 217.024C107.959 216.213 108.956 215.808 110.129 215.808C111.303 215.808 112.295 216.213 113.105 217.024C113.927 217.824 114.337 218.816 114.337 220C114.337 221.184 113.927 222.181 113.105 222.992ZM107.889 222.256C108.497 222.864 109.244 223.168 110.129 223.168C111.015 223.168 111.761 222.864 112.369 222.256C112.977 221.637 113.281 220.885 113.281 220C113.281 219.115 112.977 218.368 112.369 217.76C111.761 217.141 111.015 216.832 110.129 216.832C109.244 216.832 108.497 217.141 107.889 217.76C107.281 218.368 106.977 219.115 106.977 220C106.977 220.885 107.281 221.637 107.889 222.256ZM122.512 222.976H123.632V226.144H122.576V224H116.048V226.144H114.992V222.976H115.968C116.512 222.261 116.784 221.253 116.784 219.952V216H122.512V222.976ZM117.248 222.976H121.456V217.024H117.84V219.952C117.84 221.179 117.643 222.187 117.248 222.976ZM131.053 216H131.949V224H130.893V217.84L126.125 224H125.229V216H126.285V222.16L131.053 216ZM139.943 216V217.024H137.111V224H136.055V217.024H133.223V216H139.943ZM144.645 224.192C143.44 224.192 142.437 223.792 141.637 222.992C140.837 222.181 140.437 221.184 140.437 220C140.437 218.816 140.837 217.824 141.637 217.024C142.437 216.213 143.44 215.808 144.645 215.808C145.434 215.808 146.144 216 146.773 216.384C147.402 216.757 147.861 217.264 148.149 217.904L147.285 218.4C147.072 217.92 146.725 217.541 146.245 217.264C145.776 216.976 145.242 216.832 144.645 216.832C143.76 216.832 143.013 217.141 142.405 217.76C141.797 218.368 141.493 219.115 141.493 220C141.493 220.885 141.797 221.637 142.405 222.256C143.013 222.864 143.76 223.168 144.645 223.168C145.242 223.168 145.776 223.029 146.245 222.752C146.714 222.464 147.082 222.08 147.349 221.6L148.229 222.112C147.898 222.752 147.413 223.259 146.773 223.632C146.133 224.005 145.424 224.192 144.645 224.192ZM155.349 216V224H154.293V220.928H152.917L150.453 224H149.109L151.637 220.896C150.997 220.8 150.469 220.533 150.053 220.096C149.637 219.659 149.429 219.12 149.429 218.48C149.429 217.755 149.685 217.163 150.197 216.704C150.719 216.235 151.354 216 152.101 216H155.349ZM152.101 219.936H154.293V217.024H152.101C151.653 217.024 151.269 217.157 150.949 217.424C150.639 217.691 150.485 218.043 150.485 218.48C150.485 218.917 150.639 219.269 150.949 219.536C151.269 219.803 151.653 219.936 152.101 219.936ZM165.717 219.888C166.645 220.24 167.109 220.88 167.109 221.808C167.109 222.469 166.847 223.035 166.325 223.504C165.813 223.963 165.077 224.192 164.117 224.192C162.506 224.192 161.45 223.552 160.949 222.272L161.845 221.744C162.175 222.693 162.933 223.168 164.117 223.168C164.735 223.168 165.21 223.035 165.541 222.768C165.882 222.501 166.053 222.16 166.053 221.744C166.053 221.371 165.914 221.067 165.637 220.832C165.359 220.597 164.986 220.48 164.517 220.48H163.349V219.456H164.197C164.655 219.456 165.013 219.344 165.269 219.12C165.535 218.885 165.669 218.565 165.669 218.16C165.669 217.776 165.514 217.461 165.205 217.216C164.895 216.96 164.479 216.832 163.957 216.832C162.954 216.832 162.287 217.232 161.957 218.032L161.077 217.52C161.61 216.379 162.57 215.808 163.957 215.808C164.799 215.808 165.471 216.032 165.973 216.48C166.474 216.917 166.725 217.456 166.725 218.096C166.725 218.917 166.389 219.515 165.717 219.888ZM174.378 216H175.434V224H174.378V220.512H169.77V224H168.714V216H169.77V219.488H174.378V216ZM184.547 216H185.603V224H184.547V222.432C183.811 223.605 182.734 224.192 181.315 224.192C180.174 224.192 179.198 223.787 178.387 222.976C177.587 222.165 177.187 221.173 177.187 220C177.187 218.827 177.587 217.835 178.387 217.024C179.198 216.213 180.174 215.808 181.315 215.808C182.734 215.808 183.811 216.395 184.547 217.568V216ZM179.155 222.256C179.763 222.864 180.51 223.168 181.395 223.168C182.28 223.168 183.027 222.864 183.635 222.256C184.243 221.637 184.547 220.885 184.547 220C184.547 219.115 184.243 218.368 183.635 217.76C183.027 217.141 182.28 216.832 181.395 216.832C180.51 216.832 179.763 217.141 179.155 217.76C178.547 218.368 178.243 219.115 178.243 220C178.243 220.885 178.547 221.637 179.155 222.256ZM195.679 216V224H194.623V217.616L191.823 222.16H191.695L188.895 217.616V224H187.839V216H189.055L191.759 220.384L194.463 216H195.679ZM201.613 215.808C202.797 215.808 203.752 216.229 204.477 217.072C205.213 217.904 205.581 218.891 205.581 220.032C205.581 220.149 205.57 220.315 205.549 220.528H198.525C198.632 221.339 198.973 221.984 199.549 222.464C200.136 222.933 200.856 223.168 201.709 223.168C202.317 223.168 202.84 223.045 203.277 222.8C203.725 222.544 204.061 222.213 204.285 221.808L205.213 222.352C204.861 222.917 204.381 223.365 203.773 223.696C203.165 224.027 202.472 224.192 201.693 224.192C200.434 224.192 199.41 223.797 198.621 223.008C197.832 222.219 197.437 221.216 197.437 220C197.437 218.805 197.826 217.808 198.605 217.008C199.384 216.208 200.386 215.808 201.613 215.808ZM201.613 216.832C200.781 216.832 200.082 217.083 199.517 217.584C198.962 218.075 198.632 218.715 198.525 219.504H204.493C204.386 218.661 204.061 218.005 203.517 217.536C202.973 217.067 202.338 216.832 201.613 216.832ZM212.925 216H213.981V224H212.925V220.512H208.317V224H207.261V216H208.317V219.488H212.925V216ZM222.038 216H222.934V224H221.878V217.84L217.11 224H216.214V216H217.27V222.16L222.038 216ZM230.927 216V217.024H228.095V224H227.039V217.024H224.207V216H230.927ZM238.605 222.992C237.795 223.792 236.803 224.192 235.629 224.192C234.456 224.192 233.459 223.792 232.637 222.992C231.827 222.181 231.421 221.184 231.421 220C231.421 218.816 231.827 217.824 232.637 217.024C233.459 216.213 234.456 215.808 235.629 215.808C236.803 215.808 237.795 216.213 238.605 217.024C239.427 217.824 239.837 218.816 239.837 220C239.837 221.184 239.427 222.181 238.605 222.992ZM233.389 222.256C233.997 222.864 234.744 223.168 235.629 223.168C236.515 223.168 237.261 222.864 237.869 222.256C238.477 221.637 238.781 220.885 238.781 220C238.781 219.115 238.477 218.368 237.869 217.76C237.261 217.141 236.515 216.832 235.629 216.832C234.744 216.832 233.997 217.141 233.389 217.76C232.781 218.368 232.477 219.115 232.477 220C232.477 220.885 232.781 221.637 233.389 222.256ZM245.3 215.808C246.484 215.808 247.439 216.229 248.164 217.072C248.9 217.904 249.268 218.891 249.268 220.032C249.268 220.149 249.258 220.315 249.236 220.528H242.212C242.319 221.339 242.66 221.984 243.236 222.464C243.823 222.933 244.543 223.168 245.396 223.168C246.004 223.168 246.527 223.045 246.964 222.8C247.412 222.544 247.748 222.213 247.972 221.808L248.9 222.352C248.548 222.917 248.068 223.365 247.46 223.696C246.852 224.027 246.159 224.192 245.38 224.192C244.122 224.192 243.098 223.797 242.308 223.008C241.519 222.219 241.124 221.216 241.124 220C241.124 218.805 241.514 217.808 242.292 217.008C243.071 216.208 244.074 215.808 245.3 215.808ZM245.3 216.832C244.468 216.832 243.77 217.083 243.204 217.584C242.65 218.075 242.319 218.715 242.212 219.504H248.18C248.074 218.661 247.748 218.005 247.204 217.536C246.66 217.067 246.026 216.832 245.3 216.832ZM99.3162 246.992C98.5055 247.792 97.5135 248.192 96.3402 248.192C95.1669 248.192 94.1695 247.792 93.3482 246.992C92.5375 246.181 92.1322 245.184 92.1322 244C92.1322 242.816 92.5375 241.824 93.3482 241.024C94.1695 240.213 95.1669 239.808 96.3402 239.808C97.5135 239.808 98.5055 240.213 99.3162 241.024C100.138 241.824 100.548 242.816 100.548 244C100.548 245.184 100.138 246.181 99.3162 246.992ZM94.1002 246.256C94.7082 246.864 95.4549 247.168 96.3402 247.168C97.2255 247.168 97.9722 246.864 98.5802 246.256C99.1882 245.637 99.4922 244.885 99.4922 244C99.4922 243.115 99.1882 242.368 98.5802 241.76C97.9722 241.141 97.2255 240.832 96.3402 240.832C95.4549 240.832 94.7082 241.141 94.1002 241.76C93.4922 242.368 93.1882 243.115 93.1882 244C93.1882 244.885 93.4922 245.637 94.1002 246.256ZM106.131 243.888C107.059 244.24 107.523 244.88 107.523 245.808C107.523 246.469 107.261 247.035 106.739 247.504C106.227 247.963 105.491 248.192 104.531 248.192C102.92 248.192 101.864 247.552 101.363 246.272L102.259 245.744C102.589 246.693 103.347 247.168 104.531 247.168C105.149 247.168 105.624 247.035 105.955 246.768C106.296 246.501 106.467 246.16 106.467 245.744C106.467 245.371 106.328 245.067 106.051 244.832C105.773 244.597 105.4 244.48 104.931 244.48H103.763V243.456H104.611C105.069 243.456 105.427 243.344 105.683 243.12C105.949 242.885 106.083 242.565 106.083 242.16C106.083 241.776 105.928 241.461 105.619 241.216C105.309 240.96 104.893 240.832 104.371 240.832C103.368 240.832 102.701 241.232 102.371 242.032L101.491 241.52C102.024 240.379 102.984 239.808 104.371 239.808C105.213 239.808 105.885 240.032 106.387 240.48C106.888 240.917 107.139 241.456 107.139 242.096C107.139 242.917 106.803 243.515 106.131 243.888ZM112.824 239.808C114.008 239.808 114.962 240.229 115.688 241.072C116.424 241.904 116.792 242.891 116.792 244.032C116.792 244.149 116.781 244.315 116.76 244.528H109.736C109.842 245.339 110.184 245.984 110.76 246.464C111.346 246.933 112.066 247.168 112.92 247.168C113.528 247.168 114.05 247.045 114.488 246.8C114.936 246.544 115.272 246.213 115.496 245.808L116.424 246.352C116.072 246.917 115.592 247.365 114.984 247.696C114.376 248.027 113.682 248.192 112.904 248.192C111.645 248.192 110.621 247.797 109.832 247.008C109.042 246.219 108.648 245.216 108.648 244C108.648 242.805 109.037 241.808 109.816 241.008C110.594 240.208 111.597 239.808 112.824 239.808ZM112.824 240.832C111.992 240.832 111.293 241.083 110.728 241.584C110.173 242.075 109.842 242.715 109.736 243.504H115.704C115.597 242.661 115.272 242.005 114.728 241.536C114.184 241.067 113.549 240.832 112.824 240.832ZM122.76 239.808C123.901 239.808 124.872 240.213 125.672 241.024C126.482 241.835 126.888 242.827 126.888 244C126.888 245.173 126.482 246.165 125.672 246.976C124.872 247.787 123.901 248.192 122.76 248.192C121.341 248.192 120.264 247.605 119.528 246.432V251.2H118.472V240H119.528V241.568C120.264 240.395 121.341 239.808 122.76 239.808ZM120.44 246.256C121.048 246.864 121.794 247.168 122.68 247.168C123.565 247.168 124.312 246.864 124.92 246.256C125.528 245.637 125.832 244.885 125.832 244C125.832 243.115 125.528 242.368 124.92 241.76C124.312 241.141 123.565 240.832 122.68 240.832C121.794 240.832 121.048 241.141 120.44 241.76C119.832 242.368 119.528 243.115 119.528 244C119.528 244.885 119.832 245.637 120.44 246.256ZM135.347 246.992C134.537 247.792 133.545 248.192 132.371 248.192C131.198 248.192 130.201 247.792 129.379 246.992C128.569 246.181 128.163 245.184 128.163 244C128.163 242.816 128.569 241.824 129.379 241.024C130.201 240.213 131.198 239.808 132.371 239.808C133.545 239.808 134.537 240.213 135.347 241.024C136.169 241.824 136.579 242.816 136.579 244C136.579 245.184 136.169 246.181 135.347 246.992ZM130.131 246.256C130.739 246.864 131.486 247.168 132.371 247.168C133.257 247.168 134.003 246.864 134.611 246.256C135.219 245.637 135.523 244.885 135.523 244C135.523 243.115 135.219 242.368 134.611 241.76C134.003 241.141 133.257 240.832 132.371 240.832C131.486 240.832 130.739 241.141 130.131 241.76C129.523 242.368 129.219 243.115 129.219 244C129.219 244.885 129.523 245.637 130.131 246.256ZM147.739 248.192C146.043 248.192 144.64 247.632 143.531 246.512C142.421 245.392 141.867 244.021 141.867 242.4C141.867 240.779 142.421 239.408 143.531 238.288C144.64 237.168 146.043 236.608 147.739 236.608C148.773 236.608 149.723 236.859 150.587 237.36C151.451 237.851 152.117 238.517 152.587 239.36L151.595 239.936C151.243 239.253 150.72 238.709 150.027 238.304C149.333 237.899 148.571 237.696 147.739 237.696C146.341 237.696 145.2 238.149 144.315 239.056C143.429 239.963 142.987 241.077 142.987 242.4C142.987 243.723 143.429 244.837 144.315 245.744C145.2 246.651 146.341 247.104 147.739 247.104C148.571 247.104 149.333 246.901 150.027 246.496C150.72 246.091 151.243 245.547 151.595 244.864L152.587 245.424C152.128 246.267 151.461 246.939 150.587 247.44C149.723 247.941 148.773 248.192 147.739 248.192ZM157.886 239.808C159.07 239.808 160.025 240.229 160.75 241.072C161.486 241.904 161.854 242.891 161.854 244.032C161.854 244.149 161.844 244.315 161.822 244.528H154.798C154.905 245.339 155.246 245.984 155.822 246.464C156.409 246.933 157.129 247.168 157.982 247.168C158.59 247.168 159.113 247.045 159.55 246.8C159.998 246.544 160.334 246.213 160.558 245.808L161.486 246.352C161.134 246.917 160.654 247.365 160.046 247.696C159.438 248.027 158.745 248.192 157.966 248.192C156.708 248.192 155.684 247.797 154.894 247.008C154.105 246.219 153.71 245.216 153.71 244C153.71 242.805 154.1 241.808 154.878 241.008C155.657 240.208 156.66 239.808 157.886 239.808ZM157.886 240.832C157.054 240.832 156.356 241.083 155.79 241.584C155.236 242.075 154.905 242.715 154.798 243.504H160.766C160.66 242.661 160.334 242.005 159.79 241.536C159.246 241.067 158.612 240.832 157.886 240.832ZM169.782 240V248H168.726V241.024H165.11V244.592C165.11 245.925 164.854 246.843 164.342 247.344C163.84 247.845 163.147 248.064 162.262 248V247.008C162.87 247.072 163.318 246.928 163.606 246.576C163.904 246.224 164.054 245.563 164.054 244.592V240H169.782ZM177.842 240H178.738V248H177.682V241.84L172.914 248H172.018V240H173.074V246.16L177.842 240ZM186.092 240V241.024H182.028V248H180.972V240H186.092ZM190.761 239.808C191.945 239.808 192.9 240.229 193.625 241.072C194.361 241.904 194.729 242.891 194.729 244.032C194.729 244.149 194.719 244.315 194.697 244.528H187.673C187.78 245.339 188.121 245.984 188.697 246.464C189.284 246.933 190.004 247.168 190.857 247.168C191.465 247.168 191.988 247.045 192.425 246.8C192.873 246.544 193.209 246.213 193.433 245.808L194.361 246.352C194.009 246.917 193.529 247.365 192.921 247.696C192.313 248.027 191.62 248.192 190.841 248.192C189.583 248.192 188.559 247.797 187.769 247.008C186.98 246.219 186.585 245.216 186.585 244C186.585 242.805 186.975 241.808 187.753 241.008C188.532 240.208 189.535 239.808 190.761 239.808ZM190.761 240.832C189.929 240.832 189.231 241.083 188.665 241.584C188.111 242.075 187.78 242.715 187.673 243.504H193.641C193.535 242.661 193.209 242.005 192.665 241.536C192.121 241.067 191.487 240.832 190.761 240.832ZM200.697 239.808C201.838 239.808 202.809 240.213 203.609 241.024C204.42 241.835 204.825 242.827 204.825 244C204.825 245.173 204.42 246.165 203.609 246.976C202.809 247.787 201.838 248.192 200.697 248.192C199.278 248.192 198.201 247.605 197.465 246.432V251.2H196.409V240H197.465V241.568C198.201 240.395 199.278 239.808 200.697 239.808ZM198.377 246.256C198.985 246.864 199.732 247.168 200.617 247.168C201.502 247.168 202.249 246.864 202.857 246.256C203.465 245.637 203.769 244.885 203.769 244C203.769 243.115 203.465 242.368 202.857 241.76C202.249 241.141 201.502 240.832 200.617 240.832C199.732 240.832 198.985 241.141 198.377 241.76C197.769 242.368 197.465 243.115 197.465 244C197.465 244.885 197.769 245.637 198.377 246.256ZM207.284 247.904C207.114 248.075 206.906 248.16 206.66 248.16C206.415 248.16 206.207 248.075 206.036 247.904C205.866 247.733 205.78 247.525 205.78 247.28C205.78 247.035 205.866 246.827 206.036 246.656C206.207 246.485 206.415 246.4 206.66 246.4C206.906 246.4 207.114 246.485 207.284 246.656C207.455 246.827 207.54 247.035 207.54 247.28C207.54 247.525 207.455 247.733 207.284 247.904Z" fill="white"/>
<defs>
<linearGradient id="paint0_linear" x1="150.422" y1="22.6013" x2="152.243" y2="339.792" gradientUnits="userSpaceOnUse">
<stop stop-color="#05D8FC"/>
<stop offset="1" stop-color="#0597DD"/>
</linearGradient>
<linearGradient id="paint1_linear" x1="149.932" y1="58.736" x2="151.307" y2="314.834" gradientUnits="userSpaceOnUse">
<stop stop-color="#05D8FC"/>
<stop offset="1" stop-color="#0597DD"/>
</linearGradient>
</defs>
</svg>
