<svg width="301" height="316" viewBox="0 0 301 316" fill="none" xmlns="http://www.w3.org/2000/svg">
<circle opacity="0.2" cx="150.5" cy="165.5" r="149" stroke="url(#paint0_linear)" stroke-width="3"/>
<mask id="mask0" mask-type="alpha" maskUnits="userSpaceOnUse" x="20" y="38" width="260" height="254">
<path d="M280 161C280 232.797 221.797 291 150 291C78.203 291 20 232.797 20 161C20 117.357 41.5066 78.7362 74.5 55.1588C105.5 36.5 149.978 35.832 191.5 41.0001C206.785 42.9025 215.5 49.0001 225.5 55.1588C258.493 78.7362 280 117.357 280 161Z" fill="white"/>
</mask>
<g mask="url(#mask0)">
<path d="M280 161C280 232.797 221.797 291 150 291C78.203 291 20 232.797 20 161C20 117.357 41.5066 78.7362 74.5 55.1588C87 54.5001 111.924 37.128 124.5 44.5C139 53 134.89 66.8688 147.141 65.1184C154.141 64.1184 172.16 61.9322 177.199 62.1979C182.719 62.4889 183.005 42.6917 189.5 43.5002C204.785 45.4026 210 52.0001 225.5 55.1588C258.493 78.7362 280 117.357 280 161Z" fill="url(#paint1_linear)"/>
</g>
<path d="M144.5 50.2048V5.5H157.5V51.1359L151.083 57.1752L144.5 50.2048Z" stroke="white" stroke-width="4"/>
<path d="M139.5 14L138.5 9L164 18.5L160.5 22.5L139.5 14Z" fill="white"/>
<path d="M139 24L138 19L163.5 28.5L160 32.5L139 24Z" fill="white"/>
<path d="M139 34L138 29L163.5 38.5L160 42.5L139 34Z" fill="white"/>
<path d="M139 44L138 39L163.5 48.5L160 52.5L139 44Z" fill="white"/>
<path d="M72.5114 121.192C73.0554 121.427 73.4874 121.784 73.8074 122.264C74.1381 122.733 74.3034 123.272 74.3034 123.88C74.3034 124.744 73.9994 125.48 73.3914 126.088C72.7834 126.696 72.0474 127 71.1834 127H66.3034V115.8H70.8154C71.6474 115.8 72.3568 116.099 72.9434 116.696C73.5301 117.283 73.8234 117.987 73.8234 118.808C73.8234 119.853 73.3861 120.648 72.5114 121.192ZM70.8154 116.856H67.4234V120.76H70.8154C71.3381 120.76 71.7808 120.573 72.1434 120.2C72.5168 119.816 72.7034 119.352 72.7034 118.808C72.7034 118.275 72.5168 117.816 72.1434 117.432C71.7808 117.048 71.3381 116.856 70.8154 116.856ZM71.1834 125.944C71.7381 125.944 72.2074 125.747 72.5914 125.352C72.9861 124.947 73.1834 124.456 73.1834 123.88C73.1834 123.315 72.9861 122.829 72.5914 122.424C72.2074 122.019 71.7381 121.816 71.1834 121.816H67.4234V125.944H71.1834ZM86.7853 119V127H85.7293V120.024H81.1213V127H80.0653V119H86.7853ZM93.3064 118.808C94.4478 118.808 95.4184 119.213 96.2184 120.024C97.0291 120.835 97.4344 121.827 97.4344 123C97.4344 124.173 97.0291 125.165 96.2184 125.976C95.4184 126.787 94.4478 127.192 93.3064 127.192C91.8878 127.192 90.8104 126.605 90.0744 125.432V130.2H89.0184V119H90.0744V120.568C90.8104 119.395 91.8878 118.808 93.3064 118.808ZM90.9864 125.256C91.5944 125.864 92.3411 126.168 93.2264 126.168C94.1118 126.168 94.8584 125.864 95.4664 125.256C96.0744 124.637 96.3784 123.885 96.3784 123C96.3784 122.115 96.0744 121.368 95.4664 120.76C94.8584 120.141 94.1118 119.832 93.2264 119.832C92.3411 119.832 91.5944 120.141 90.9864 120.76C90.3784 121.368 90.0744 122.115 90.0744 123C90.0744 123.885 90.3784 124.637 90.9864 125.256ZM102.886 118.808C104.07 118.808 105.025 119.229 105.75 120.072C106.486 120.904 106.854 121.891 106.854 123.032C106.854 123.149 106.844 123.315 106.822 123.528H99.7983C99.905 124.339 100.246 124.984 100.822 125.464C101.409 125.933 102.129 126.168 102.982 126.168C103.59 126.168 104.113 126.045 104.55 125.8C104.998 125.544 105.334 125.213 105.558 124.808L106.486 125.352C106.134 125.917 105.654 126.365 105.046 126.696C104.438 127.027 103.745 127.192 102.966 127.192C101.708 127.192 100.684 126.797 99.8943 126.008C99.105 125.219 98.7103 124.216 98.7103 123C98.7103 121.805 99.0996 120.808 99.8783 120.008C100.657 119.208 101.66 118.808 102.886 118.808ZM102.886 119.832C102.054 119.832 101.356 120.083 100.79 120.584C100.236 121.075 99.905 121.715 99.7983 122.504H105.766C105.66 121.661 105.334 121.005 104.79 120.536C104.246 120.067 103.612 119.832 102.886 119.832ZM114.942 125.976H116.062V129.144H115.006V127H108.478V129.144H107.422V125.976H108.398C108.942 125.261 109.214 124.253 109.214 122.952V119H114.942V125.976ZM109.678 125.976H113.886V120.024H110.27V122.952C110.27 124.179 110.072 125.187 109.678 125.976ZM121.043 118.808C122.227 118.808 123.181 119.229 123.907 120.072C124.643 120.904 125.011 121.891 125.011 123.032C125.011 123.149 125 123.315 124.979 123.528H117.955C118.061 124.339 118.403 124.984 118.979 125.464C119.565 125.933 120.285 126.168 121.139 126.168C121.747 126.168 122.269 126.045 122.707 125.8C123.155 125.544 123.491 125.213 123.715 124.808L124.643 125.352C124.291 125.917 123.811 126.365 123.203 126.696C122.595 127.027 121.901 127.192 121.123 127.192C119.864 127.192 118.84 126.797 118.051 126.008C117.261 125.219 116.867 124.216 116.867 123C116.867 121.805 117.256 120.808 118.035 120.008C118.813 119.208 119.816 118.808 121.043 118.808ZM121.043 119.832C120.211 119.832 119.512 120.083 118.947 120.584C118.392 121.075 118.061 121.715 117.955 122.504H123.923C123.816 121.661 123.491 121.005 122.947 120.536C122.403 120.067 121.768 119.832 121.043 119.832ZM132.938 119V127H131.882V120.024H128.266V123.592C128.266 124.925 128.01 125.843 127.498 126.344C126.996 126.845 126.303 127.064 125.418 127V126.008C126.026 126.072 126.474 125.928 126.762 125.576C127.06 125.224 127.21 124.563 127.21 123.592V119H132.938ZM142.055 119H143.111V127H142.055V125.432C141.319 126.605 140.241 127.192 138.823 127.192C137.681 127.192 136.705 126.787 135.895 125.976C135.095 125.165 134.695 124.173 134.695 123C134.695 121.827 135.095 120.835 135.895 120.024C136.705 119.213 137.681 118.808 138.823 118.808C140.241 118.808 141.319 119.395 142.055 120.568V119ZM136.663 125.256C137.271 125.864 138.017 126.168 138.903 126.168C139.788 126.168 140.535 125.864 141.143 125.256C141.751 124.637 142.055 123.885 142.055 123C142.055 122.115 141.751 121.368 141.143 120.76C140.535 120.141 139.788 119.832 138.903 119.832C138.017 119.832 137.271 120.141 136.663 120.76C136.055 121.368 135.751 122.115 135.751 123C135.751 123.885 136.055 124.637 136.663 125.256ZM152.067 127H150.803L148.307 123.704L145.811 127H144.547L147.683 122.856L144.755 119H146.019L148.307 122.024L150.595 119H151.859L148.947 122.856L152.067 127ZM162.591 122.888C163.465 123.208 163.903 123.832 163.903 124.76C163.903 125.411 163.684 125.949 163.247 126.376C162.82 126.792 162.201 127 161.391 127H157.503V119H161.071C161.849 119 162.452 119.203 162.879 119.608C163.305 120.003 163.519 120.515 163.519 121.144C163.519 121.944 163.209 122.525 162.591 122.888ZM161.071 120.024H158.559V122.456H161.071C161.999 122.456 162.463 122.04 162.463 121.208C162.463 120.835 162.34 120.547 162.095 120.344C161.86 120.131 161.519 120.024 161.071 120.024ZM161.391 125.976C161.86 125.976 162.217 125.864 162.463 125.64C162.719 125.416 162.847 125.101 162.847 124.696C162.847 124.323 162.719 124.029 162.463 123.816C162.217 123.592 161.86 123.48 161.391 123.48H158.559V125.976H161.391ZM172.207 125.992C171.396 126.792 170.404 127.192 169.231 127.192C168.057 127.192 167.06 126.792 166.239 125.992C165.428 125.181 165.023 124.184 165.023 123C165.023 121.816 165.428 120.824 166.239 120.024C167.06 119.213 168.057 118.808 169.231 118.808C170.404 118.808 171.396 119.213 172.207 120.024C173.028 120.824 173.439 121.816 173.439 123C173.439 124.184 173.028 125.181 172.207 125.992ZM166.991 125.256C167.599 125.864 168.345 126.168 169.231 126.168C170.116 126.168 170.863 125.864 171.471 125.256C172.079 124.637 172.383 123.885 172.383 123C172.383 122.115 172.079 121.368 171.471 120.76C170.863 120.141 170.116 119.832 169.231 119.832C168.345 119.832 167.599 120.141 166.991 120.76C166.383 121.368 166.079 122.115 166.079 123C166.079 123.885 166.383 124.637 166.991 125.256ZM178.934 127.192C177.729 127.192 176.726 126.792 175.926 125.992C175.126 125.181 174.726 124.184 174.726 123C174.726 121.816 175.126 120.824 175.926 120.024C176.726 119.213 177.729 118.808 178.934 118.808C179.723 118.808 180.433 119 181.062 119.384C181.691 119.757 182.15 120.264 182.438 120.904L181.574 121.4C181.361 120.92 181.014 120.541 180.534 120.264C180.065 119.976 179.531 119.832 178.934 119.832C178.049 119.832 177.302 120.141 176.694 120.76C176.086 121.368 175.782 122.115 175.782 123C175.782 123.885 176.086 124.637 176.694 125.256C177.302 125.864 178.049 126.168 178.934 126.168C179.531 126.168 180.065 126.029 180.534 125.752C181.003 125.464 181.371 125.08 181.638 124.6L182.518 125.112C182.187 125.752 181.702 126.259 181.062 126.632C180.422 127.005 179.713 127.192 178.934 127.192ZM189.638 119V120.024H186.806V127H185.75V120.024H182.918V119H189.638ZM197.316 125.992C196.506 126.792 195.514 127.192 194.34 127.192C193.167 127.192 192.17 126.792 191.348 125.992C190.538 125.181 190.132 124.184 190.132 123C190.132 121.816 190.538 120.824 191.348 120.024C192.17 119.213 193.167 118.808 194.34 118.808C195.514 118.808 196.506 119.213 197.316 120.024C198.138 120.824 198.548 121.816 198.548 123C198.548 124.184 198.138 125.181 197.316 125.992ZM192.1 125.256C192.708 125.864 193.455 126.168 194.34 126.168C195.226 126.168 195.972 125.864 196.58 125.256C197.188 124.637 197.492 123.885 197.492 123C197.492 122.115 197.188 121.368 196.58 120.76C195.972 120.141 195.226 119.832 194.34 119.832C193.455 119.832 192.708 120.141 192.1 120.76C191.492 121.368 191.188 122.115 191.188 123C191.188 123.885 191.492 124.637 192.1 125.256ZM205.343 119H206.399V127H205.343V123.96C204.724 124.28 203.962 124.44 203.055 124.44C202.01 124.44 201.21 124.2 200.655 123.72C200.111 123.229 199.839 122.509 199.839 121.56V119H200.895V121.56C200.895 122.232 201.071 122.717 201.423 123.016C201.775 123.304 202.308 123.448 203.023 123.448C203.855 123.448 204.628 123.293 205.343 122.984V119ZM214.307 119H215.363V127H214.307V123.512H209.699V127H208.643V119H209.699V122.488H214.307V119ZM220.845 122.04C221.591 122.04 222.221 122.275 222.733 122.744C223.255 123.203 223.517 123.795 223.517 124.52C223.517 125.245 223.255 125.843 222.733 126.312C222.221 126.771 221.591 127 220.845 127H217.597V119H218.653V122.04H220.845ZM224.637 119H225.693V127H224.637V119ZM220.845 125.976C221.293 125.976 221.671 125.843 221.981 125.576C222.301 125.309 222.461 124.957 222.461 124.52C222.461 124.083 222.301 123.731 221.981 123.464C221.671 123.197 221.293 123.064 220.845 123.064H218.653V125.976H220.845ZM234.66 127H233.396L230.9 123.704L228.404 127H227.14L230.276 122.856L227.348 119H228.612L230.9 122.024L233.188 119H234.452L231.54 122.856L234.66 127ZM75.4099 149.992C74.5993 150.792 73.6073 151.192 72.4339 151.192C71.2606 151.192 70.2633 150.792 69.4419 149.992C68.6313 149.181 68.2259 148.184 68.2259 147C68.2259 145.816 68.6313 144.824 69.4419 144.024C70.2633 143.213 71.2606 142.808 72.4339 142.808C73.6073 142.808 74.5993 143.213 75.4099 144.024C76.2313 144.824 76.6419 145.816 76.6419 147C76.6419 148.184 76.2313 149.181 75.4099 149.992ZM70.1939 149.256C70.8019 149.864 71.5486 150.168 72.4339 150.168C73.3193 150.168 74.0659 149.864 74.6739 149.256C75.2819 148.637 75.5859 147.885 75.5859 147C75.5859 146.115 75.2819 145.368 74.6739 144.76C74.0659 144.141 73.3193 143.832 72.4339 143.832C71.5486 143.832 70.8019 144.141 70.1939 144.76C69.5859 145.368 69.2819 146.115 69.2819 147C69.2819 147.885 69.5859 148.637 70.1939 149.256ZM82.1371 151.192C80.9317 151.192 79.9291 150.792 79.1291 149.992C78.3291 149.181 77.9291 148.184 77.9291 147C77.9291 145.816 78.3291 144.824 79.1291 144.024C79.9291 143.213 80.9317 142.808 82.1371 142.808C82.9264 142.808 83.6357 143 84.2651 143.384C84.8944 143.757 85.3531 144.264 85.6411 144.904L84.7771 145.4C84.5637 144.92 84.2171 144.541 83.7371 144.264C83.2677 143.976 82.7344 143.832 82.1371 143.832C81.2517 143.832 80.5051 144.141 79.8971 144.76C79.2891 145.368 78.9851 146.115 78.9851 147C78.9851 147.885 79.2891 148.637 79.8971 149.256C80.5051 149.864 81.2517 150.168 82.1371 150.168C82.7344 150.168 83.2677 150.029 83.7371 149.752C84.2064 149.464 84.5744 149.08 84.8411 148.6L85.7211 149.112C85.3904 149.752 84.9051 150.259 84.2651 150.632C83.6251 151.005 82.9157 151.192 82.1371 151.192ZM92.8409 143V144.024H90.0089V151H88.9529V144.024H86.1209V143H92.8409ZM98.4158 142.808C99.5571 142.808 100.528 143.213 101.328 144.024C102.138 144.835 102.544 145.827 102.544 147C102.544 148.173 102.138 149.165 101.328 149.976C100.528 150.787 99.5571 151.192 98.4158 151.192C96.9971 151.192 95.9198 150.605 95.1838 149.432V154.2H94.1278V143H95.1838V144.568C95.9198 143.395 96.9971 142.808 98.4158 142.808ZM96.0958 149.256C96.7038 149.864 97.4505 150.168 98.3358 150.168C99.2211 150.168 99.9678 149.864 100.576 149.256C101.184 148.637 101.488 147.885 101.488 147C101.488 146.115 101.184 145.368 100.576 144.76C99.9678 144.141 99.2211 143.832 98.3358 143.832C97.4505 143.832 96.7038 144.141 96.0958 144.76C95.4878 145.368 95.1838 146.115 95.1838 147C95.1838 147.885 95.4878 148.637 96.0958 149.256ZM111.004 149.992C110.193 150.792 109.201 151.192 108.028 151.192C106.854 151.192 105.857 150.792 105.036 149.992C104.225 149.181 103.82 148.184 103.82 147C103.82 145.816 104.225 144.824 105.036 144.024C105.857 143.213 106.854 142.808 108.028 142.808C109.201 142.808 110.193 143.213 111.004 144.024C111.825 144.824 112.236 145.816 112.236 147C112.236 148.184 111.825 149.181 111.004 149.992ZM105.788 149.256C106.396 149.864 107.142 150.168 108.028 150.168C108.913 150.168 109.66 149.864 110.268 149.256C110.876 148.637 111.18 147.885 111.18 147C111.18 146.115 110.876 145.368 110.268 144.76C109.66 144.141 108.913 143.832 108.028 143.832C107.142 143.832 106.396 144.141 105.788 144.76C105.18 145.368 104.876 146.115 104.876 147C104.876 147.885 105.18 148.637 105.788 149.256ZM119.123 143V144.024H115.059V151H114.003V143H119.123ZM126.801 149.992C125.99 150.792 124.998 151.192 123.825 151.192C122.651 151.192 121.654 150.792 120.833 149.992C120.022 149.181 119.617 148.184 119.617 147C119.617 145.816 120.022 144.824 120.833 144.024C121.654 143.213 122.651 142.808 123.825 142.808C124.998 142.808 125.99 143.213 126.801 144.024C127.622 144.824 128.033 145.816 128.033 147C128.033 148.184 127.622 149.181 126.801 149.992ZM121.585 149.256C122.193 149.864 122.939 150.168 123.825 150.168C124.71 150.168 125.457 149.864 126.065 149.256C126.673 148.637 126.977 147.885 126.977 147C126.977 146.115 126.673 145.368 126.065 144.76C125.457 144.141 124.71 143.832 123.825 143.832C122.939 143.832 122.193 144.141 121.585 144.76C120.977 145.368 120.673 146.115 120.673 147C120.673 147.885 120.977 148.637 121.585 149.256ZM134.888 146.888C135.762 147.208 136.2 147.832 136.2 148.76C136.2 149.411 135.981 149.949 135.544 150.376C135.117 150.792 134.498 151 133.688 151H129.8V143H133.368C134.146 143 134.749 143.203 135.176 143.608C135.602 144.003 135.816 144.515 135.816 145.144C135.816 145.944 135.506 146.525 134.888 146.888ZM133.368 144.024H130.856V146.456H133.368C134.296 146.456 134.76 146.04 134.76 145.208C134.76 144.835 134.637 144.547 134.392 144.344C134.157 144.131 133.816 144.024 133.368 144.024ZM133.688 149.976C134.157 149.976 134.514 149.864 134.76 149.64C135.016 149.416 135.144 149.101 135.144 148.696C135.144 148.323 135.016 148.029 134.76 147.816C134.514 147.592 134.157 147.48 133.688 147.48H130.856V149.976H133.688ZM148.168 145.192C148.712 145.427 149.144 145.784 149.464 146.264C149.794 146.733 149.96 147.272 149.96 147.88C149.96 148.744 149.656 149.48 149.048 150.088C148.44 150.696 147.704 151 146.84 151H141.96V139.8H146.472C147.304 139.8 148.013 140.099 148.6 140.696C149.186 141.283 149.48 141.987 149.48 142.808C149.48 143.853 149.042 144.648 148.168 145.192ZM146.472 140.856H143.08V144.76H146.472C146.994 144.76 147.437 144.573 147.8 144.2C148.173 143.816 148.36 143.352 148.36 142.808C148.36 142.275 148.173 141.816 147.8 141.432C147.437 141.048 146.994 140.856 146.472 140.856ZM146.84 149.944C147.394 149.944 147.864 149.747 148.248 149.352C148.642 148.947 148.84 148.456 148.84 147.88C148.84 147.315 148.642 146.829 148.248 146.424C147.864 146.019 147.394 145.816 146.84 145.816H143.08V149.944H146.84ZM158.602 143H159.658V151H158.602V149.432C157.866 150.605 156.788 151.192 155.37 151.192C154.228 151.192 153.252 150.787 152.442 149.976C151.642 149.165 151.242 148.173 151.242 147C151.242 145.827 151.642 144.835 152.442 144.024C153.252 143.213 154.228 142.808 155.37 142.808C156.788 142.808 157.866 143.395 158.602 144.568V143ZM153.21 149.256C153.818 149.864 154.564 150.168 155.45 150.168C156.335 150.168 157.082 149.864 157.69 149.256C158.298 148.637 158.602 147.885 158.602 147C158.602 146.115 158.298 145.368 157.69 144.76C157.082 144.141 156.335 143.832 155.45 143.832C154.564 143.832 153.818 144.141 153.21 144.76C152.602 145.368 152.298 146.115 152.298 147C152.298 147.885 152.602 148.637 153.21 149.256ZM168.453 143V151H167.397V144.024H163.781V147.592C163.781 148.925 163.525 149.843 163.013 150.344C162.512 150.845 161.819 151.064 160.933 151V150.008C161.541 150.072 161.989 149.928 162.277 149.576C162.576 149.224 162.725 148.563 162.725 147.592V143H168.453ZM177.41 149.976H178.53V153.144H177.474V151H170.946V153.144H169.89V149.976H170.866C171.41 149.261 171.682 148.253 171.682 146.952V143H177.41V149.976ZM172.146 149.976H176.354V144.024H172.738V146.952C172.738 148.179 172.541 149.187 172.146 149.976ZM186.695 143H187.751V151H186.695V149.432C185.959 150.605 184.882 151.192 183.463 151.192C182.322 151.192 181.346 150.787 180.535 149.976C179.735 149.165 179.335 148.173 179.335 147C179.335 145.827 179.735 144.835 180.535 144.024C181.346 143.213 182.322 142.808 183.463 142.808C184.882 142.808 185.959 143.395 186.695 144.568V143ZM181.303 149.256C181.911 149.864 182.658 150.168 183.543 150.168C184.429 150.168 185.175 149.864 185.783 149.256C186.391 148.637 186.695 147.885 186.695 147C186.695 146.115 186.391 145.368 185.783 144.76C185.175 144.141 184.429 143.832 183.543 143.832C182.658 143.832 181.911 144.141 181.303 144.76C180.695 145.368 180.391 146.115 180.391 147C180.391 147.885 180.695 148.637 181.303 149.256ZM191.267 141.72V140.792H195.427V141.72H191.267ZM195.811 143H196.707V151H195.651V144.84L190.883 151H189.987V143H191.043V149.16L195.811 143ZM202.668 151.192C201.463 151.192 200.46 150.792 199.66 149.992C198.86 149.181 198.46 148.184 198.46 147C198.46 145.816 198.86 144.824 199.66 144.024C200.46 143.213 201.463 142.808 202.668 142.808C203.458 142.808 204.167 143 204.796 143.384C205.426 143.757 205.884 144.264 206.172 144.904L205.308 145.4C205.095 144.92 204.748 144.541 204.268 144.264C203.799 143.976 203.266 143.832 202.668 143.832C201.783 143.832 201.036 144.141 200.428 144.76C199.82 145.368 199.516 146.115 199.516 147C199.516 147.885 199.82 148.637 200.428 149.256C201.036 149.864 201.783 150.168 202.668 150.168C203.266 150.168 203.799 150.029 204.268 149.752C204.738 149.464 205.106 149.08 205.372 148.6L206.252 149.112C205.922 149.752 205.436 150.259 204.796 150.632C204.156 151.005 203.447 151.192 202.668 151.192ZM214.232 151H212.824L208.824 147.144V151H207.768V143H208.824V146.536L212.632 143H214.072L209.944 146.84L214.232 151ZM221.582 149.992C220.771 150.792 219.779 151.192 218.606 151.192C217.432 151.192 216.435 150.792 215.614 149.992C214.803 149.181 214.398 148.184 214.398 147C214.398 145.816 214.803 144.824 215.614 144.024C216.435 143.213 217.432 142.808 218.606 142.808C219.779 142.808 220.771 143.213 221.582 144.024C222.403 144.824 222.814 145.816 222.814 147C222.814 148.184 222.403 149.181 221.582 149.992ZM216.366 149.256C216.974 149.864 217.72 150.168 218.606 150.168C219.491 150.168 220.238 149.864 220.846 149.256C221.454 148.637 221.758 147.885 221.758 147C221.758 146.115 221.454 145.368 220.846 144.76C220.238 144.141 219.491 143.832 218.606 143.832C217.72 143.832 216.974 144.141 216.366 144.76C215.758 145.368 215.454 146.115 215.454 147C215.454 147.885 215.758 148.637 216.366 149.256ZM225.861 141.72V140.792H230.021V141.72H225.861ZM230.405 143H231.301V151H230.245V144.84L225.477 151H224.581V143H225.637V149.16L230.405 143ZM87.4502 170.888C88.3249 171.208 88.7622 171.832 88.7622 172.76C88.7622 173.411 88.5435 173.949 88.1062 174.376C87.6795 174.792 87.0609 175 86.2502 175H82.3622V167H85.9302C86.7089 167 87.3115 167.203 87.7382 167.608C88.1649 168.003 88.3782 168.515 88.3782 169.144C88.3782 169.944 88.0689 170.525 87.4502 170.888ZM85.9302 168.024H83.4182V170.456H85.9302C86.8582 170.456 87.3222 170.04 87.3222 169.208C87.3222 168.835 87.1995 168.547 86.9542 168.344C86.7195 168.131 86.3782 168.024 85.9302 168.024ZM86.2502 173.976C86.7195 173.976 87.0769 173.864 87.3222 173.64C87.5782 173.416 87.7062 173.101 87.7062 172.696C87.7062 172.323 87.5782 172.029 87.3222 171.816C87.0769 171.592 86.7195 171.48 86.2502 171.48H83.4182V173.976H86.2502ZM97.0662 173.992C96.2555 174.792 95.2635 175.192 94.0902 175.192C92.9169 175.192 91.9195 174.792 91.0982 173.992C90.2875 173.181 89.8822 172.184 89.8822 171C89.8822 169.816 90.2875 168.824 91.0982 168.024C91.9195 167.213 92.9169 166.808 94.0902 166.808C95.2635 166.808 96.2555 167.213 97.0662 168.024C97.8875 168.824 98.2982 169.816 98.2982 171C98.2982 172.184 97.8875 173.181 97.0662 173.992ZM91.8502 173.256C92.4582 173.864 93.2049 174.168 94.0902 174.168C94.9755 174.168 95.7222 173.864 96.3302 173.256C96.9382 172.637 97.2422 171.885 97.2422 171C97.2422 170.115 96.9382 169.368 96.3302 168.76C95.7222 168.141 94.9755 167.832 94.0902 167.832C93.2049 167.832 92.4582 168.141 91.8502 168.76C91.2422 169.368 90.9382 170.115 90.9382 171C90.9382 171.885 91.2422 172.637 91.8502 173.256ZM103.881 170.888C104.809 171.24 105.273 171.88 105.273 172.808C105.273 173.469 105.011 174.035 104.489 174.504C103.977 174.963 103.241 175.192 102.281 175.192C100.67 175.192 99.6141 174.552 99.1128 173.272L100.009 172.744C100.339 173.693 101.097 174.168 102.281 174.168C102.899 174.168 103.374 174.035 103.705 173.768C104.046 173.501 104.217 173.16 104.217 172.744C104.217 172.371 104.078 172.067 103.801 171.832C103.523 171.597 103.15 171.48 102.681 171.48H101.513V170.456H102.361C102.819 170.456 103.177 170.344 103.433 170.12C103.699 169.885 103.833 169.565 103.833 169.16C103.833 168.776 103.678 168.461 103.369 168.216C103.059 167.96 102.643 167.832 102.121 167.832C101.118 167.832 100.451 168.232 100.121 169.032L99.2408 168.52C99.7741 167.379 100.734 166.808 102.121 166.808C102.963 166.808 103.635 167.032 104.137 167.48C104.638 167.917 104.889 168.456 104.889 169.096C104.889 169.917 104.553 170.515 103.881 170.888ZM111.966 170.888C112.84 171.208 113.278 171.832 113.278 172.76C113.278 173.411 113.059 173.949 112.622 174.376C112.195 174.792 111.576 175 110.766 175H106.878V167H110.446C111.224 167 111.827 167.203 112.254 167.608C112.68 168.003 112.894 168.515 112.894 169.144C112.894 169.944 112.584 170.525 111.966 170.888ZM110.446 168.024H107.934V170.456H110.446C111.374 170.456 111.838 170.04 111.838 169.208C111.838 168.835 111.715 168.547 111.47 168.344C111.235 168.131 110.894 168.024 110.446 168.024ZM110.766 173.976C111.235 173.976 111.592 173.864 111.838 173.64C112.094 173.416 112.222 173.101 112.222 172.696C112.222 172.323 112.094 172.029 111.838 171.816C111.592 171.592 111.235 171.48 110.766 171.48H107.934V173.976H110.766ZM118.126 170.04C118.872 170.04 119.502 170.275 120.014 170.744C120.536 171.203 120.798 171.795 120.798 172.52C120.798 173.245 120.536 173.843 120.014 174.312C119.502 174.771 118.872 175 118.126 175H114.878V167H115.934V170.04H118.126ZM121.918 167H122.974V175H121.918V167ZM118.126 173.976C118.574 173.976 118.952 173.843 119.262 173.576C119.582 173.309 119.742 172.957 119.742 172.52C119.742 172.083 119.582 171.731 119.262 171.464C118.952 171.197 118.574 171.064 118.126 171.064H115.934V173.976H118.126ZM134.886 167H135.942V175H125.222V167H126.278V173.976H130.054V167H131.11V173.976H134.886V167ZM141.871 166.808C143.055 166.808 144.009 167.229 144.735 168.072C145.471 168.904 145.839 169.891 145.839 171.032C145.839 171.149 145.828 171.315 145.807 171.528H138.783C138.889 172.339 139.231 172.984 139.807 173.464C140.393 173.933 141.113 174.168 141.967 174.168C142.575 174.168 143.097 174.045 143.535 173.8C143.983 173.544 144.319 173.213 144.543 172.808L145.471 173.352C145.119 173.917 144.639 174.365 144.031 174.696C143.423 175.027 142.729 175.192 141.951 175.192C140.692 175.192 139.668 174.797 138.879 174.008C138.089 173.219 137.695 172.216 137.695 171C137.695 169.805 138.084 168.808 138.863 168.008C139.641 167.208 140.644 166.808 141.871 166.808ZM141.871 167.832C141.039 167.832 140.34 168.083 139.775 168.584C139.22 169.075 138.889 169.715 138.783 170.504H144.751C144.644 169.661 144.319 169.005 143.775 168.536C143.231 168.067 142.596 167.832 141.871 167.832ZM153.182 167H154.238V175H153.182V171.512H148.574V175H147.518V167H148.574V170.488H153.182V167ZM162.136 167H163.192V175H162.136V171.512H157.528V175H156.472V167H157.528V170.488H162.136V167ZM172.129 173.992C171.318 174.792 170.326 175.192 169.153 175.192C167.979 175.192 166.982 174.792 166.161 173.992C165.35 173.181 164.945 172.184 164.945 171C164.945 169.816 165.35 168.824 166.161 168.024C166.982 167.213 167.979 166.808 169.153 166.808C170.326 166.808 171.318 167.213 172.129 168.024C172.95 168.824 173.361 169.816 173.361 171C173.361 172.184 172.95 173.181 172.129 173.992ZM166.913 173.256C167.521 173.864 168.267 174.168 169.153 174.168C170.038 174.168 170.785 173.864 171.393 173.256C172.001 172.637 172.305 171.885 172.305 171C172.305 170.115 172.001 169.368 171.393 168.76C170.785 168.141 170.038 167.832 169.153 167.832C168.267 167.832 167.521 168.141 166.913 168.76C166.305 169.368 166.001 170.115 166.001 171C166.001 171.885 166.305 172.637 166.913 173.256ZM178.856 175.192C177.65 175.192 176.648 174.792 175.848 173.992C175.048 173.181 174.648 172.184 174.648 171C174.648 169.816 175.048 168.824 175.848 168.024C176.648 167.213 177.65 166.808 178.856 166.808C179.645 166.808 180.354 167 180.984 167.384C181.613 167.757 182.072 168.264 182.36 168.904L181.496 169.4C181.282 168.92 180.936 168.541 180.456 168.264C179.986 167.976 179.453 167.832 178.856 167.832C177.97 167.832 177.224 168.141 176.616 168.76C176.008 169.368 175.704 170.115 175.704 171C175.704 171.885 176.008 172.637 176.616 173.256C177.224 173.864 177.97 174.168 178.856 174.168C179.453 174.168 179.986 174.029 180.456 173.752C180.925 173.464 181.293 173.08 181.56 172.6L182.44 173.112C182.109 173.752 181.624 174.259 180.984 174.632C180.344 175.005 179.634 175.192 178.856 175.192ZM189.56 167V168.024H186.728V175H185.672V168.024H182.84V167H189.56ZM196.671 167H197.567V175H196.511V168.84L191.743 175H190.847V167H191.903V173.16L196.671 167ZM209.624 167H210.52V175H209.464V168.84L204.696 175H203.8V167H204.856V173.16L209.624 167ZM216.881 170.888C217.809 171.24 218.273 171.88 218.273 172.808C218.273 173.469 218.011 174.035 217.489 174.504C216.977 174.963 216.241 175.192 215.281 175.192C213.67 175.192 212.614 174.552 212.113 173.272L213.009 172.744C213.339 173.693 214.097 174.168 215.281 174.168C215.899 174.168 216.374 174.035 216.705 173.768C217.046 173.501 217.217 173.16 217.217 172.744C217.217 172.371 217.078 172.067 216.801 171.832C216.523 171.597 216.15 171.48 215.681 171.48H214.513V170.456H215.361C215.819 170.456 216.177 170.344 216.433 170.12C216.699 169.885 216.833 169.565 216.833 169.16C216.833 168.776 216.678 168.461 216.369 168.216C216.059 167.96 215.643 167.832 215.121 167.832C214.118 167.832 213.451 168.232 213.121 169.032L212.241 168.52C212.774 167.379 213.734 166.808 215.121 166.808C215.963 166.808 216.635 167.032 217.137 167.48C217.638 167.917 217.889 168.456 217.889 169.096C217.889 169.917 217.553 170.515 216.881 170.888ZM66.1562 191H67.2123V199H66.1562V197.432C65.4203 198.605 64.3429 199.192 62.9243 199.192C61.7829 199.192 60.8069 198.787 59.9963 197.976C59.1963 197.165 58.7963 196.173 58.7963 195C58.7963 193.827 59.1963 192.835 59.9963 192.024C60.8069 191.213 61.7829 190.808 62.9243 190.808C64.3429 190.808 65.4203 191.395 66.1562 192.568V191ZM60.7643 197.256C61.3723 197.864 62.1189 198.168 63.0043 198.168C63.8896 198.168 64.6363 197.864 65.2443 197.256C65.8523 196.637 66.1562 195.885 66.1562 195C66.1562 194.115 65.8523 193.368 65.2443 192.76C64.6363 192.141 63.8896 191.832 63.0043 191.832C62.1189 191.832 61.3723 192.141 60.7643 192.76C60.1563 193.368 59.8523 194.115 59.8523 195C59.8523 195.885 60.1563 196.637 60.7643 197.256ZM73.7361 190.808C74.8775 190.808 75.8481 191.213 76.6481 192.024C77.4588 192.835 77.8641 193.827 77.8641 195C77.8641 196.173 77.4588 197.165 76.6481 197.976C75.8481 198.787 74.8775 199.192 73.7361 199.192C72.3175 199.192 71.2401 198.605 70.5041 197.432V202.2H69.4481V191H70.5041V192.568C71.2401 191.395 72.3175 190.808 73.7361 190.808ZM71.4161 197.256C72.0241 197.864 72.7708 198.168 73.6561 198.168C74.5415 198.168 75.2881 197.864 75.8961 197.256C76.5041 196.637 76.8081 195.885 76.8081 195C76.8081 194.115 76.5041 193.368 75.8961 192.76C75.2881 192.141 74.5415 191.832 73.6561 191.832C72.7708 191.832 72.0241 192.141 71.4161 192.76C70.8081 193.368 70.5041 194.115 70.5041 195C70.5041 195.885 70.8081 196.637 71.4161 197.256ZM85.0675 191V192.024H82.2355V199H81.1795V192.024H78.3475V191H85.0675ZM89.7379 190.808C90.9219 190.808 91.8765 191.229 92.6019 192.072C93.3379 192.904 93.7059 193.891 93.7059 195.032C93.7059 195.149 93.6952 195.315 93.6739 195.528H86.6499C86.7565 196.339 87.0979 196.984 87.6739 197.464C88.2605 197.933 88.9805 198.168 89.8339 198.168C90.4419 198.168 90.9645 198.045 91.4019 197.8C91.8499 197.544 92.1859 197.213 92.4099 196.808L93.3379 197.352C92.9859 197.917 92.5059 198.365 91.8979 198.696C91.2899 199.027 90.5965 199.192 89.8179 199.192C88.5592 199.192 87.5352 198.797 86.7459 198.008C85.9565 197.219 85.5619 196.216 85.5619 195C85.5619 193.805 85.9512 192.808 86.7299 192.008C87.5085 191.208 88.5112 190.808 89.7379 190.808ZM89.7379 191.832C88.9059 191.832 88.2072 192.083 87.6419 192.584C87.0872 193.075 86.7565 193.715 86.6499 194.504H92.6179C92.5112 193.661 92.1859 193.005 91.6419 192.536C91.0979 192.067 90.4632 191.832 89.7379 191.832ZM99.3574 194.888C100.285 195.24 100.749 195.88 100.749 196.808C100.749 197.469 100.488 198.035 99.9654 198.504C99.4534 198.963 98.7174 199.192 97.7574 199.192C96.1467 199.192 95.0907 198.552 94.5894 197.272L95.4854 196.744C95.816 197.693 96.5734 198.168 97.7574 198.168C98.376 198.168 98.8507 198.035 99.1814 197.768C99.5227 197.501 99.6934 197.16 99.6934 196.744C99.6934 196.371 99.5547 196.067 99.2774 195.832C99 195.597 98.6267 195.48 98.1574 195.48H96.9894V194.456H97.8374C98.296 194.456 98.6534 194.344 98.9094 194.12C99.176 193.885 99.3094 193.565 99.3094 193.16C99.3094 192.776 99.1547 192.461 98.8454 192.216C98.536 191.96 98.12 191.832 97.5974 191.832C96.5947 191.832 95.928 192.232 95.5974 193.032L94.7174 192.52C95.2507 191.379 96.2107 190.808 97.5974 190.808C98.44 190.808 99.112 191.032 99.6134 191.48C100.115 191.917 100.365 192.456 100.365 193.096C100.365 193.917 100.029 194.515 99.3574 194.888ZM108.178 191H109.074V199H108.018V192.84L103.25 199H102.354V191H103.41V197.16L108.178 191ZM118.188 191H119.244V199H118.188V197.432C117.452 198.605 116.374 199.192 114.956 199.192C113.814 199.192 112.838 198.787 112.028 197.976C111.228 197.165 110.828 196.173 110.828 195C110.828 193.827 111.228 192.835 112.028 192.024C112.838 191.213 113.814 190.808 114.956 190.808C116.374 190.808 117.452 191.395 118.188 192.568V191ZM112.796 197.256C113.404 197.864 114.15 198.168 115.036 198.168C115.921 198.168 116.668 197.864 117.276 197.256C117.884 196.637 118.188 195.885 118.188 195C118.188 194.115 117.884 193.368 117.276 192.76C116.668 192.141 115.921 191.832 115.036 191.832C114.15 191.832 113.404 192.141 112.796 192.76C112.188 193.368 111.884 194.115 111.884 195C111.884 195.885 112.188 196.637 112.796 197.256ZM127.143 191H128.199V199H127.143V195.512H122.535V199H121.479V191H122.535V194.488H127.143V191ZM134.161 199.192C132.955 199.192 131.953 198.792 131.153 197.992C130.353 197.181 129.953 196.184 129.953 195C129.953 193.816 130.353 192.824 131.153 192.024C131.953 191.213 132.955 190.808 134.161 190.808C134.95 190.808 135.659 191 136.289 191.384C136.918 191.757 137.377 192.264 137.665 192.904L136.801 193.4C136.587 192.92 136.241 192.541 135.761 192.264C135.291 191.976 134.758 191.832 134.161 191.832C133.275 191.832 132.529 192.141 131.921 192.76C131.313 193.368 131.009 194.115 131.009 195C131.009 195.885 131.313 196.637 131.921 197.256C132.529 197.864 133.275 198.168 134.161 198.168C134.758 198.168 135.291 198.029 135.761 197.752C136.23 197.464 136.598 197.08 136.865 196.6L137.745 197.112C137.414 197.752 136.929 198.259 136.289 198.632C135.649 199.005 134.939 199.192 134.161 199.192ZM145.725 199H144.317L140.317 195.144V199H139.261V191H140.317V194.536L144.125 191H145.565L141.437 194.84L145.725 199ZM153.074 197.992C152.263 198.792 151.271 199.192 150.098 199.192C148.925 199.192 147.927 198.792 147.106 197.992C146.295 197.181 145.89 196.184 145.89 195C145.89 193.816 146.295 192.824 147.106 192.024C147.927 191.213 148.925 190.808 150.098 190.808C151.271 190.808 152.263 191.213 153.074 192.024C153.895 192.824 154.306 193.816 154.306 195C154.306 196.184 153.895 197.181 153.074 197.992ZM147.858 197.256C148.466 197.864 149.213 198.168 150.098 198.168C150.983 198.168 151.73 197.864 152.338 197.256C152.946 196.637 153.25 195.885 153.25 195C153.25 194.115 152.946 193.368 152.338 192.76C151.73 192.141 150.983 191.832 150.098 191.832C149.213 191.832 148.466 192.141 147.858 192.76C147.25 193.368 146.946 194.115 146.946 195C146.946 195.885 147.25 196.637 147.858 197.256ZM157.353 189.72V188.792H161.513V189.72H157.353ZM161.897 191H162.793V199H161.737V192.84L156.969 199H156.073V191H157.129V197.16L161.897 191ZM172.754 199.192C171.549 199.192 170.546 198.792 169.746 197.992C168.946 197.181 168.546 196.184 168.546 195C168.546 193.816 168.946 192.824 169.746 192.024C170.546 191.213 171.549 190.808 172.754 190.808C173.544 190.808 174.253 191 174.882 191.384C175.512 191.757 175.97 192.264 176.258 192.904L175.394 193.4C175.181 192.92 174.834 192.541 174.354 192.264C173.885 191.976 173.352 191.832 172.754 191.832C171.869 191.832 171.122 192.141 170.514 192.76C169.906 193.368 169.602 194.115 169.602 195C169.602 195.885 169.906 196.637 170.514 197.256C171.122 197.864 171.869 198.168 172.754 198.168C173.352 198.168 173.885 198.029 174.354 197.752C174.824 197.464 175.192 197.08 175.458 196.6L176.338 197.112C176.008 197.752 175.522 198.259 174.882 198.632C174.242 199.005 173.533 199.192 172.754 199.192ZM184.318 199H182.91L178.91 195.144V199H177.854V191H178.91V194.536L182.718 191H184.158L180.03 194.84L184.318 199ZM190.849 194.888C191.723 195.208 192.161 195.832 192.161 196.76C192.161 197.411 191.942 197.949 191.505 198.376C191.078 198.792 190.459 199 189.649 199H185.761V191H189.329C190.107 191 190.71 191.203 191.137 191.608C191.563 192.003 191.777 192.515 191.777 193.144C191.777 193.944 191.467 194.525 190.849 194.888ZM189.329 192.024H186.817V194.456H189.329C190.257 194.456 190.721 194.04 190.721 193.208C190.721 192.835 190.598 192.547 190.353 192.344C190.118 192.131 189.777 192.024 189.329 192.024ZM189.649 197.976C190.118 197.976 190.475 197.864 190.721 197.64C190.977 197.416 191.105 197.101 191.105 196.696C191.105 196.323 190.977 196.029 190.721 195.816C190.475 195.592 190.118 195.48 189.649 195.48H186.817V197.976H189.649ZM200.641 191H201.697V199H200.641V197.432C199.905 198.605 198.827 199.192 197.409 199.192C196.267 199.192 195.291 198.787 194.481 197.976C193.681 197.165 193.281 196.173 193.281 195C193.281 193.827 193.681 192.835 194.481 192.024C195.291 191.213 196.267 190.808 197.409 190.808C198.827 190.808 199.905 191.395 200.641 192.568V191ZM195.249 197.256C195.857 197.864 196.603 198.168 197.489 198.168C198.374 198.168 199.121 197.864 199.729 197.256C200.337 196.637 200.641 195.885 200.641 195C200.641 194.115 200.337 193.368 199.729 192.76C199.121 192.141 198.374 191.832 197.489 191.832C196.603 191.832 195.857 192.141 195.249 192.76C194.641 193.368 194.337 194.115 194.337 195C194.337 195.885 194.641 196.637 195.249 197.256ZM213.277 199H211.997L208.733 195.144V199H207.677V195.144L204.413 199H203.133L206.717 194.84L203.293 191H204.573L207.677 194.552V191H208.733V194.552L211.837 191H213.117L209.693 194.84L213.277 199ZM220.538 191H221.434V199H220.378V192.84L215.61 199H214.714V191H215.77V197.16L220.538 191ZM229.331 191H230.387V199H229.331V195.512H224.723V199H223.667V191H224.723V194.488H229.331V191ZM235.868 194.04C236.615 194.04 237.244 194.275 237.756 194.744C238.279 195.203 238.54 195.795 238.54 196.52C238.54 197.245 238.279 197.843 237.756 198.312C237.244 198.771 236.615 199 235.868 199H232.62V191H233.676V194.04H235.868ZM239.66 191H240.716V199H239.66V191ZM235.868 197.976C236.316 197.976 236.695 197.843 237.004 197.576C237.324 197.309 237.484 196.957 237.484 196.52C237.484 196.083 237.324 195.731 237.004 195.464C236.695 195.197 236.316 195.064 235.868 195.064H233.676V197.976H235.868ZM56.3166 221.976H57.4366V225.144H56.3806V223H49.8526V225.144H48.7966V221.976H49.7726C50.3166 221.261 50.5886 220.253 50.5886 218.952V215H56.3166V221.976ZM51.0526 221.976H55.2606V216.024H51.6446V218.952C51.6446 220.179 51.4472 221.187 51.0526 221.976ZM65.4256 221.992C64.6149 222.792 63.6229 223.192 62.4496 223.192C61.2762 223.192 60.2789 222.792 59.4576 221.992C58.6469 221.181 58.2416 220.184 58.2416 219C58.2416 217.816 58.6469 216.824 59.4576 216.024C60.2789 215.213 61.2762 214.808 62.4496 214.808C63.6229 214.808 64.6149 215.213 65.4256 216.024C66.2469 216.824 66.6576 217.816 66.6576 219C66.6576 220.184 66.2469 221.181 65.4256 221.992ZM60.2096 221.256C60.8176 221.864 61.5642 222.168 62.4496 222.168C63.3349 222.168 64.0816 221.864 64.6896 221.256C65.2976 220.637 65.6016 219.885 65.6016 219C65.6016 218.115 65.2976 217.368 64.6896 216.76C64.0816 216.141 63.3349 215.832 62.4496 215.832C61.5642 215.832 60.8176 216.141 60.2096 216.76C59.6016 217.368 59.2976 218.115 59.2976 219C59.2976 219.885 59.6016 220.637 60.2096 221.256ZM71.9767 223.192C70.8247 223.192 69.8647 222.813 69.0967 222.056C68.3287 221.288 67.9447 220.296 67.9447 219.08C67.9447 217.715 68.1474 216.669 68.5527 215.944C68.958 215.208 69.7794 214.541 71.0167 213.944C71.2514 213.827 71.5607 213.688 71.9447 213.528C72.3394 213.368 72.6327 213.24 72.8247 213.144C73.0274 213.048 73.246 212.925 73.4807 212.776C73.7154 212.616 73.8914 212.44 74.0087 212.248C74.126 212.056 74.2007 211.827 74.2327 211.56L75.0647 212.04C75.022 212.296 74.9367 212.536 74.8087 212.76C74.6807 212.984 74.5474 213.165 74.4087 213.304C74.2807 213.443 74.0727 213.597 73.7847 213.768C73.5074 213.928 73.2887 214.045 73.1287 214.12C72.9794 214.184 72.7127 214.296 72.3287 214.456C71.9554 214.616 71.7047 214.723 71.5767 214.776C70.83 215.096 70.2807 215.432 69.9287 215.784C69.5767 216.125 69.326 216.573 69.1767 217.128C69.5394 216.648 69.998 216.296 70.5527 216.072C71.118 215.837 71.6674 215.72 72.2007 215.72C73.2674 215.72 74.1474 216.072 74.8407 216.776C75.5447 217.469 75.8967 218.36 75.8967 219.448C75.8967 220.525 75.5234 221.421 74.7767 222.136C74.0407 222.84 73.1074 223.192 71.9767 223.192ZM71.9767 222.136C72.8087 222.136 73.4914 221.885 74.0247 221.384C74.5687 220.872 74.8407 220.227 74.8407 219.448C74.8407 218.659 74.5847 218.013 74.0727 217.512C73.5714 217 72.8994 216.744 72.0567 216.744C71.2994 216.744 70.6114 216.984 69.9927 217.464C69.374 217.933 69.0647 218.563 69.0647 219.352C69.0647 220.163 69.342 220.829 69.8967 221.352C70.462 221.875 71.1554 222.136 71.9767 222.136ZM80.7508 218.04C81.4975 218.04 82.1268 218.275 82.6388 218.744C83.1615 219.203 83.4228 219.795 83.4228 220.52C83.4228 221.245 83.1615 221.843 82.6388 222.312C82.1268 222.771 81.4975 223 80.7508 223H77.5028V215H78.5588V218.04H80.7508ZM84.5428 215H85.5988V223H84.5428V215ZM80.7508 221.976C81.1988 221.976 81.5775 221.843 81.8868 221.576C82.2068 221.309 82.3668 220.957 82.3668 220.52C82.3668 220.083 82.2068 219.731 81.8868 219.464C81.5775 219.197 81.1988 219.064 80.7508 219.064H78.5588V221.976H80.7508ZM92.9346 218.888C93.8092 219.208 94.2466 219.832 94.2466 220.76C94.2466 221.411 94.0279 221.949 93.5906 222.376C93.1639 222.792 92.5452 223 91.7346 223H87.8466V215H91.4146C92.1932 215 92.7959 215.203 93.2226 215.608C93.6492 216.003 93.8626 216.515 93.8626 217.144C93.8626 217.944 93.5532 218.525 92.9346 218.888ZM91.4146 216.024H88.9026V218.456H91.4146C92.3426 218.456 92.8066 218.04 92.8066 217.208C92.8066 216.835 92.6839 216.547 92.4386 216.344C92.2039 216.131 91.8626 216.024 91.4146 216.024ZM91.7346 221.976C92.2039 221.976 92.5612 221.864 92.8066 221.64C93.0626 221.416 93.1906 221.101 93.1906 220.696C93.1906 220.323 93.0626 220.029 92.8066 219.816C92.5612 219.592 92.2039 219.48 91.7346 219.48H88.9026V221.976H91.7346ZM102.727 215H103.783V223H102.727V221.432C101.991 222.605 100.913 223.192 99.4946 223.192C98.3532 223.192 97.3772 222.787 96.5666 221.976C95.7666 221.165 95.3666 220.173 95.3666 219C95.3666 217.827 95.7666 216.835 96.5666 216.024C97.3772 215.213 98.3532 214.808 99.4946 214.808C100.913 214.808 101.991 215.395 102.727 216.568V215ZM97.3346 221.256C97.9426 221.864 98.6892 222.168 99.5746 222.168C100.46 222.168 101.207 221.864 101.815 221.256C102.423 220.637 102.727 219.885 102.727 219C102.727 218.115 102.423 217.368 101.815 216.76C101.207 216.141 100.46 215.832 99.5746 215.832C98.6892 215.832 97.9426 216.141 97.3346 216.76C96.7266 217.368 96.4226 218.115 96.4226 219C96.4226 219.885 96.7266 220.637 97.3346 221.256ZM109.714 214.808C110.898 214.808 111.853 215.229 112.578 216.072C113.314 216.904 113.682 217.891 113.682 219.032C113.682 219.149 113.672 219.315 113.65 219.528H106.626C106.733 220.339 107.074 220.984 107.65 221.464C108.237 221.933 108.957 222.168 109.81 222.168C110.418 222.168 110.941 222.045 111.378 221.8C111.826 221.544 112.162 221.213 112.386 220.808L113.314 221.352C112.962 221.917 112.482 222.365 111.874 222.696C111.266 223.027 110.573 223.192 109.794 223.192C108.536 223.192 107.512 222.797 106.722 222.008C105.933 221.219 105.538 220.216 105.538 219C105.538 217.805 105.928 216.808 106.706 216.008C107.485 215.208 108.488 214.808 109.714 214.808ZM109.714 215.832C108.882 215.832 108.184 216.083 107.618 216.584C107.064 217.075 106.733 217.715 106.626 218.504H112.594C112.488 217.661 112.162 217.005 111.618 216.536C111.074 216.067 110.44 215.832 109.714 215.832ZM120.81 215V216.024H117.978V223H116.922V216.024H114.09V215H120.81ZM125.512 223.192C124.307 223.192 123.304 222.792 122.504 221.992C121.704 221.181 121.304 220.184 121.304 219C121.304 217.816 121.704 216.824 122.504 216.024C123.304 215.213 124.307 214.808 125.512 214.808C126.301 214.808 127.011 215 127.64 215.384C128.269 215.757 128.728 216.264 129.016 216.904L128.152 217.4C127.939 216.92 127.592 216.541 127.112 216.264C126.643 215.976 126.109 215.832 125.512 215.832C124.627 215.832 123.88 216.141 123.272 216.76C122.664 217.368 122.36 218.115 122.36 219C122.36 219.885 122.664 220.637 123.272 221.256C123.88 221.864 124.627 222.168 125.512 222.168C126.109 222.168 126.643 222.029 127.112 221.752C127.581 221.464 127.949 221.08 128.216 220.6L129.096 221.112C128.765 221.752 128.28 222.259 127.64 222.632C127 223.005 126.291 223.192 125.512 223.192ZM136.216 215V223H135.16V219.928H133.784L131.32 223H129.976L132.504 219.896C131.864 219.8 131.336 219.533 130.92 219.096C130.504 218.659 130.296 218.12 130.296 217.48C130.296 216.755 130.552 216.163 131.064 215.704C131.587 215.235 132.221 215 132.968 215H136.216ZM132.968 218.936H135.16V216.024H132.968C132.52 216.024 132.136 216.157 131.816 216.424C131.507 216.691 131.352 217.043 131.352 217.48C131.352 217.917 131.507 218.269 131.816 218.536C132.136 218.803 132.52 218.936 132.968 218.936ZM147.544 218.888C148.419 219.208 148.856 219.832 148.856 220.76C148.856 221.411 148.637 221.949 148.2 222.376C147.773 222.792 147.155 223 146.344 223H142.456V215H146.024C146.803 215 147.405 215.203 147.832 215.608C148.259 216.003 148.472 216.515 148.472 217.144C148.472 217.944 148.163 218.525 147.544 218.888ZM146.024 216.024H143.512V218.456H146.024C146.952 218.456 147.416 218.04 147.416 217.208C147.416 216.835 147.293 216.547 147.048 216.344C146.813 216.131 146.472 216.024 146.024 216.024ZM146.344 221.976C146.813 221.976 147.171 221.864 147.416 221.64C147.672 221.416 147.8 221.101 147.8 220.696C147.8 220.323 147.672 220.029 147.416 219.816C147.171 219.592 146.813 219.48 146.344 219.48H143.512V221.976H146.344ZM157.16 221.992C156.349 222.792 155.357 223.192 154.184 223.192C153.011 223.192 152.013 222.792 151.192 221.992C150.381 221.181 149.976 220.184 149.976 219C149.976 217.816 150.381 216.824 151.192 216.024C152.013 215.213 153.011 214.808 154.184 214.808C155.357 214.808 156.349 215.213 157.16 216.024C157.981 216.824 158.392 217.816 158.392 219C158.392 220.184 157.981 221.181 157.16 221.992ZM151.944 221.256C152.552 221.864 153.299 222.168 154.184 222.168C155.069 222.168 155.816 221.864 156.424 221.256C157.032 220.637 157.336 219.885 157.336 219C157.336 218.115 157.032 217.368 156.424 216.76C155.816 216.141 155.069 215.832 154.184 215.832C153.299 215.832 152.552 216.141 151.944 216.76C151.336 217.368 151.032 218.115 151.032 219C151.032 219.885 151.336 220.637 151.944 221.256ZM166.567 221.976H167.687V225.144H166.631V223H160.103V225.144H159.047V221.976H160.023C160.567 221.261 160.839 220.253 160.839 218.952V215H166.567V221.976ZM161.303 221.976H165.511V216.024H161.895V218.952C161.895 220.179 161.697 221.187 161.303 221.976ZM175.852 215H176.908V223H175.852V221.432C175.116 222.605 174.038 223.192 172.62 223.192C171.478 223.192 170.502 222.787 169.692 221.976C168.892 221.165 168.492 220.173 168.492 219C168.492 217.827 168.892 216.835 169.692 216.024C170.502 215.213 171.478 214.808 172.62 214.808C174.038 214.808 175.116 215.395 175.852 216.568V215ZM170.46 221.256C171.068 221.864 171.814 222.168 172.7 222.168C173.585 222.168 174.332 221.864 174.94 221.256C175.548 220.637 175.852 219.885 175.852 219C175.852 218.115 175.548 217.368 174.94 216.76C174.332 216.141 173.585 215.832 172.7 215.832C171.814 215.832 171.068 216.141 170.46 216.76C169.852 217.368 169.548 218.115 169.548 219C169.548 219.885 169.852 220.637 170.46 221.256ZM186.215 215.176L184.455 218.056L186.215 220.936H184.903L183.143 218.056L184.903 215.176H186.215ZM188.775 215.176L187.015 218.056L188.775 220.936H187.463L185.703 218.056L187.463 215.176H188.775ZM196.91 211.8H198.062L194.334 220.552C193.96 221.448 193.486 222.093 192.91 222.488C192.334 222.883 191.619 223.053 190.766 223V221.976C191.363 222.04 191.854 221.955 192.238 221.72C192.632 221.475 192.958 221.053 193.214 220.456L193.438 219.928L189.582 211.8H190.734L193.966 218.68L196.91 211.8ZM202.678 218.888C203.606 219.24 204.07 219.88 204.07 220.808C204.07 221.469 203.808 222.035 203.286 222.504C202.774 222.963 202.038 223.192 201.078 223.192C199.467 223.192 198.411 222.552 197.91 221.272L198.806 220.744C199.136 221.693 199.894 222.168 201.078 222.168C201.696 222.168 202.171 222.035 202.502 221.768C202.843 221.501 203.014 221.16 203.014 220.744C203.014 220.371 202.875 220.067 202.598 219.832C202.32 219.597 201.947 219.48 201.478 219.48H200.31V218.456H201.158C201.616 218.456 201.974 218.344 202.23 218.12C202.496 217.885 202.63 217.565 202.63 217.16C202.63 216.776 202.475 216.461 202.166 216.216C201.856 215.96 201.44 215.832 200.918 215.832C199.915 215.832 199.248 216.232 198.918 217.032L198.038 216.52C198.571 215.379 199.531 214.808 200.918 214.808C201.76 214.808 202.432 215.032 202.934 215.48C203.435 215.917 203.686 216.456 203.686 217.096C203.686 217.917 203.35 218.515 202.678 218.888ZM213.515 215V223H212.459V216.616L209.659 221.16H209.531L206.731 216.616V223H205.675V215H206.891L209.595 219.384L212.299 215H213.515ZM219.449 214.808C220.633 214.808 221.587 215.229 222.313 216.072C223.049 216.904 223.417 217.891 223.417 219.032C223.417 219.149 223.406 219.315 223.385 219.528H216.361C216.467 220.339 216.809 220.984 217.385 221.464C217.971 221.933 218.691 222.168 219.545 222.168C220.153 222.168 220.675 222.045 221.113 221.8C221.561 221.544 221.897 221.213 222.121 220.808L223.049 221.352C222.697 221.917 222.217 222.365 221.609 222.696C221.001 223.027 220.307 223.192 219.529 223.192C218.27 223.192 217.246 222.797 216.457 222.008C215.667 221.219 215.273 220.216 215.273 219C215.273 217.805 215.662 216.808 216.441 216.008C217.219 215.208 218.222 214.808 219.449 214.808ZM219.449 215.832C218.617 215.832 217.918 216.083 217.353 216.584C216.798 217.075 216.467 217.715 216.361 218.504H222.329C222.222 217.661 221.897 217.005 221.353 216.536C220.809 216.067 220.174 215.832 219.449 215.832ZM230.761 215H231.817V223H230.761V219.512H226.153V223H225.097V215H226.153V218.488H230.761V215ZM237.298 218.04C238.044 218.04 238.674 218.275 239.186 218.744C239.708 219.203 239.97 219.795 239.97 220.52C239.97 221.245 239.708 221.843 239.186 222.312C238.674 222.771 238.044 223 237.298 223H234.05V215H235.106V218.04H237.298ZM237.298 221.976C237.746 221.976 238.124 221.843 238.434 221.576C238.754 221.309 238.914 220.957 238.914 220.52C238.914 220.083 238.754 219.731 238.434 219.464C238.124 219.197 237.746 219.064 237.298 219.064H235.106V221.976H237.298ZM242.393 215.176L244.153 218.056L242.393 220.936H241.081L242.841 218.056L241.081 215.176H242.393ZM244.953 215.176L246.713 218.056L244.953 220.936H243.641L245.401 218.056L243.641 215.176H244.953ZM250.3 222.904C250.129 223.075 249.921 223.16 249.676 223.16C249.431 223.16 249.223 223.075 249.052 222.904C248.881 222.733 248.796 222.525 248.796 222.28C248.796 222.035 248.881 221.827 249.052 221.656C249.223 221.485 249.431 221.4 249.676 221.4C249.921 221.4 250.129 221.485 250.3 221.656C250.471 221.827 250.556 222.035 250.556 222.28C250.556 222.525 250.471 222.733 250.3 222.904Z" fill="white"/>
<path d="M106.844 22.0377L64 63.5L67.9275 65.3604C71.514 67.0592 75.5766 67.2419 79.4553 66.403C83.8124 65.4607 87.5927 65.3318 92.399 66.466C95.7658 67.2606 99.2575 67.3473 102.597 66.4462C106.221 65.4686 109.586 65.0892 114.714 66.2677C118.509 67.14 122.442 67.0154 126.209 66.0258C129.218 65.2355 131.955 65.0638 135.143 65.7619C139.359 66.6849 143.72 66.9214 147.921 65.9321C152.028 64.9651 155.622 64.9882 159.965 66.1308C163.615 67.0907 167.427 67.1845 171.119 66.4049C174.772 65.6335 178.223 65.5916 182.931 66.6275C186.262 67.3604 189.713 67.3122 192.991 66.3712C197.019 65.2151 200.571 64.8203 205.508 66.1078C209.141 67.055 212.944 67.2978 216.612 66.502C224.265 64.8419 231.085 65.0242 239.318 66.5373L193.978 16.7685C192.11 14.7189 189.364 13.7045 186.613 14.0484C184.305 14.3369 182.215 15.555 180.826 17.4207L168.755 33.6423C167.609 35.1815 166.931 37.0179 166.8 38.9321L165.906 52.0423C165.66 55.6529 163.275 58.7648 159.853 59.9412L152.759 62.3798C150.661 63.1011 148.37 63.0218 146.326 62.1573L141.596 60.156C138.47 58.8336 136.354 55.8655 136.124 52.4795L135.321 40.7079C135.124 37.8181 133.325 35.2821 130.663 34.1412C128.946 33.4055 127.555 32.072 126.746 30.3883L124.228 25.1425C122.83 22.2293 120.11 20.1713 116.927 19.6177L115.512 19.3716C112.363 18.8239 109.141 19.8148 106.844 22.0377Z" fill="white"/>
<path d="M53.49 73.934C50.1582 77.6704 48.552 79.7484 45.6348 83.4581C53.7474 82.3462 61.1963 81.8743 68.8202 83.3483C71.9071 83.9452 75.0915 83.9618 78.1355 83.1748C82.4062 82.0708 85.8931 81.64 89.8441 82.4375C93.9319 83.2627 98.1493 83.5158 102.225 82.6301C106.247 81.756 109.673 81.817 113.628 82.7878C117.173 83.658 120.866 83.7555 124.436 82.9963C128.823 82.0636 132.356 82.1287 136.405 82.9833C140.07 83.757 143.852 83.5512 147.474 82.597C151.14 81.6314 154.282 81.5871 157.943 82.5313C161.63 83.4823 165.474 83.7517 169.215 83.0377C174.309 82.0654 178.291 82.3491 183.171 83.4258C186.019 84.0544 188.972 84.0262 191.803 83.3241C196.415 82.1807 200.075 81.8014 204.397 82.8059C207.799 83.5963 211.318 83.959 214.738 83.2555C219.483 82.2798 223.363 82.0596 228.156 83.1133C231.361 83.8177 234.674 83.9276 237.894 83.3003C243.544 82.2001 248.644 82.3637 255.097 84.5C252.213 80.5557 250.479 78.3021 246.524 73.9708C239.439 75.812 232.912 76.0711 225.188 74.8065C222.431 74.3551 219.611 74.501 216.898 75.1682C212.467 76.2577 208.859 76.4512 204.404 75.5185C200.846 74.7736 197.172 74.8231 193.624 75.6146C189.326 76.5735 185.605 76.4577 180.899 75.3604C177.677 74.6091 174.328 74.6378 171.101 75.3642C165.75 76.5684 161.873 76.3368 157.279 75.2087C154.453 74.5151 151.516 74.4153 148.665 74.9928C143.837 75.9707 139.959 76.1849 134.929 75.1448C132.002 74.5396 128.982 74.4829 126.044 75.0296C121.174 75.9356 117.493 75.7789 112.979 74.894C110.354 74.3795 107.65 74.3971 105.034 74.9547C99.2 76.1979 95.0056 76.2487 89.9134 75.1516C86.9988 74.5236 83.9863 74.4784 81.0494 74.9917C72.5795 76.472 63.7994 75.7582 53.49 73.934Z" fill="white"/>
<defs>
<linearGradient id="paint0_linear" x1="150.422" y1="-1.3987" x2="152.243" y2="315.792" gradientUnits="userSpaceOnUse">
<stop stop-color="#05D8FC"/>
<stop offset="1" stop-color="#0597DD"/>
</linearGradient>
<linearGradient id="paint1_linear" x1="149.932" y1="29.1523" x2="151.368" y2="290.83" gradientUnits="userSpaceOnUse">
<stop stop-color="#05D8FC"/>
<stop offset="1" stop-color="#0597DD"/>
</linearGradient>
</defs>
</svg>
