<svg width="120" height="120" viewBox="0 0 120 120" fill="none" xmlns="http://www.w3.org/2000/svg">
<path d="M55.4602 48.6279C55.094 48.6973 54.7637 48.8924 54.526 49.1793C54.2883 49.4663 54.1582 49.8273 54.1582 50.1999C54.1582 50.5726 54.2883 50.9335 54.526 51.2205C54.7637 51.5075 55.094 51.7025 55.4602 51.7719C55.9888 51.7719 56.5123 51.8767 57.0002 52.0802C57.4881 52.2837 57.9309 52.5819 58.3028 52.9576C58.6748 53.3333 58.9685 53.779 59.1672 54.2689C59.3658 54.7588 59.4654 55.2833 59.4602 55.8119C59.5296 56.178 59.7245 56.5084 60.0115 56.7461C60.2985 56.9838 60.6595 57.1139 61.0321 57.1139C61.4048 57.1139 61.7657 56.9838 62.0527 56.7461C62.3397 56.5084 62.5348 56.178 62.6042 55.8119C62.6 53.9148 61.8473 52.096 60.5096 50.7508C59.1718 49.4056 57.3572 48.6427 55.4602 48.6279Z" fill="white"/>
<path d="M102.428 65.7241C100.475 65.7273 98.555 66.2241 96.8458 67.1682C95.1367 68.1123 93.6939 69.473 92.6516 71.1241L68.2516 59.9241C68.9505 57.9265 69.1489 55.7881 68.8295 53.696C68.5101 51.604 67.6826 49.6221 66.4196 47.9241L78.8436 36.6281C80.4757 37.9303 82.4997 38.6434 84.5876 38.6521C86.6914 38.6649 88.7392 37.9745 90.4059 36.6906C92.0725 35.4067 93.2625 33.6028 93.7869 31.5653C94.3114 29.5279 94.1402 27.3736 93.3005 25.4446C92.4608 23.5156 91.0007 21.9223 89.1522 20.9178C87.3036 19.9133 85.1726 19.5551 83.0972 19.9C81.0218 20.245 79.1211 21.2733 77.6969 22.8218C76.2727 24.3703 75.4065 26.3502 75.236 28.4471C75.0654 30.544 75.6003 32.6378 76.7556 34.3961L64.3236 45.6921C61.8088 43.4595 58.5431 42.2601 55.1811 42.3343C51.8191 42.4085 48.6095 43.7508 46.1956 46.0921L31.6436 34.0201C32.4781 32.6068 32.9226 30.9974 32.9316 29.3561C32.9585 27.1864 32.2409 25.0731 30.8985 23.3684C29.556 21.6637 27.6698 20.4706 25.5543 19.9881C23.4388 19.5056 21.2218 19.7627 19.273 20.7166C17.3241 21.6706 15.7611 23.2637 14.8445 25.2304C13.9278 27.1971 13.713 29.4186 14.2358 31.5245C14.7586 33.6304 15.9874 35.4935 17.7174 36.8032C19.4474 38.1129 21.574 38.7901 23.7428 38.7218C25.9115 38.6535 27.9914 37.844 29.6356 36.4281L44.1876 48.5001C42.9851 50.3253 42.2497 52.4181 42.046 54.5943C41.8423 56.7705 42.1766 58.9635 43.0196 60.9801L26.1476 69.4281C24.3408 67.1393 21.7328 65.6214 18.8503 65.181C15.9678 64.7406 13.0255 65.4105 10.6177 67.0554C8.20999 68.7003 6.51619 71.1976 5.87839 74.043C5.24059 76.8884 5.70633 79.8698 7.18156 82.3851C8.6568 84.9003 11.0316 86.7621 13.8263 87.5942C16.6211 88.4264 19.6274 88.167 22.2383 86.8684C24.8492 85.5699 26.87 83.3289 27.8926 80.5981C28.9152 77.8673 28.8633 74.8502 27.7476 72.1561L44.6115 63.7161C45.859 65.4487 47.5005 66.8599 49.4005 67.8336C51.3005 68.8072 53.4046 69.3153 55.5396 69.3161C55.7076 69.3161 55.8596 69.2761 56.0276 69.2681L57.3476 80.7961C55.0547 81.349 53.0531 82.743 51.7394 84.7019C50.4257 86.6608 49.8957 89.0417 50.2544 91.3729C50.6132 93.7041 51.8345 95.8155 53.6764 97.2888C55.5183 98.7621 57.8464 99.4898 60.1994 99.3277C62.5525 99.1656 64.7589 98.1256 66.3814 96.4137C68.0039 94.7018 68.9241 92.4429 68.9599 90.0845C68.9956 87.7262 68.1442 85.4404 66.5743 83.6801C65.0045 81.9198 62.8307 80.8134 60.4836 80.5801L59.0516 68.7961C62.3422 67.8742 65.1627 65.7423 66.9476 62.8281L91.3556 74.0281C91.0111 75.1073 90.8278 76.2314 90.8115 77.3641C90.81 79.6619 91.4899 81.9085 92.7654 83.8198C94.0408 85.7311 95.8544 87.2212 97.9768 88.1016C100.099 88.982 102.435 89.2132 104.689 88.7659C106.943 88.3186 109.013 87.2129 110.639 85.5887C112.264 83.9645 113.371 81.8947 113.82 79.6412C114.269 77.3877 114.039 75.0517 113.16 72.9287C112.281 70.8057 110.792 68.991 108.882 67.7143C106.972 66.4376 104.725 65.7561 102.428 65.7561V65.7241ZM16.8916 84.8521C15.216 84.8521 13.578 84.3552 12.1848 83.4243C10.7916 82.4934 9.7057 81.1702 9.06447 79.6222C8.42325 78.0741 8.2555 76.3707 8.58239 74.7273C8.90929 73.0839 9.71617 71.5743 10.901 70.3895C12.0858 69.2047 13.5954 68.3978 15.2388 68.0709C16.8822 67.744 18.5856 67.9118 20.1337 68.553C21.6817 69.1942 23.0049 70.2801 23.9358 71.6733C24.8667 73.0665 25.3636 74.7045 25.3636 76.3801C25.3615 78.6264 24.4682 80.78 22.8799 82.3684C21.2915 83.9567 19.1378 84.85 16.8916 84.8521ZM65.8276 89.8361C65.8276 91.0687 65.4621 92.2736 64.7773 93.2984C64.0925 94.3233 63.1192 95.122 61.9805 95.5937C60.8417 96.0654 59.5887 96.1888 58.3798 95.9483C57.1709 95.7079 56.0605 95.1144 55.1889 94.2428C54.3173 93.3712 53.7238 92.2608 53.4833 91.0519C53.2429 89.843 53.3663 88.59 53.838 87.4512C54.3097 86.3125 55.1085 85.3392 56.1333 84.6544C57.1582 83.9696 58.3631 83.6041 59.5956 83.6041C61.2478 83.6062 62.8317 84.2635 63.9999 85.4317C65.1682 86.6 65.8254 88.1839 65.8276 89.8361ZM84.5876 23.0921C85.8202 23.0921 87.0251 23.4576 88.0499 24.1424C89.0748 24.8272 89.8736 25.8005 90.3452 26.9392C90.8169 28.078 90.9403 29.331 90.6998 30.5399C90.4594 31.7488 89.8658 32.8592 88.9943 33.7308C88.1227 34.6023 87.0123 35.1959 85.8034 35.4364C84.5946 35.6768 83.3414 35.5534 82.2027 35.0817C81.0639 34.61 80.0907 33.8113 79.4059 32.7864C78.7211 31.7616 78.3556 30.5567 78.3556 29.3241C78.3577 27.6719 79.015 26.088 80.1832 24.9197C81.3515 23.7515 82.9354 23.0942 84.5876 23.0921ZM23.5236 35.5561C22.291 35.5561 21.0861 35.1906 20.0612 34.5058C19.0364 33.821 18.2377 32.8477 17.766 31.709C17.2943 30.5702 17.1709 29.3172 17.4113 28.1083C17.6518 26.8994 18.2454 25.789 19.1169 24.9174C19.9885 24.0458 21.0989 23.4523 22.3078 23.2118C23.5167 22.9714 24.7698 23.0948 25.9085 23.5665C27.0473 24.0382 28.0205 24.8369 28.7053 25.8618C29.3901 26.8866 29.7556 28.0915 29.7556 29.3241C29.7535 30.9763 29.0962 32.5602 27.9279 33.7284C26.7597 34.8967 25.1758 35.554 23.5236 35.5561ZM55.4596 66.1801C53.4027 66.1801 51.3919 65.5702 49.6817 64.4274C47.9714 63.2846 46.6383 61.6604 45.8512 59.76C45.064 57.8597 44.8581 55.7686 45.2594 53.7512C45.6607 51.7338 46.6512 49.8807 48.1057 48.4262C49.5602 46.9717 51.4133 45.9812 53.4307 45.5799C55.4481 45.1786 57.5391 45.3846 59.4395 46.1718C61.3398 46.9589 62.9641 48.2919 64.1069 50.0022C65.2496 51.7124 65.8596 53.7232 65.8596 55.7801C65.8596 58.5384 64.7639 61.1836 62.8135 63.134C60.8631 65.0844 58.2178 66.1801 55.4596 66.1801ZM102.428 85.8121C100.753 85.8105 99.1158 85.3125 97.7239 84.381C96.3319 83.4495 95.2472 82.1262 94.607 80.5785C93.9667 79.0308 93.7996 77.328 94.1268 75.6853C94.4539 74.0427 95.2606 72.5338 96.4449 71.3495C97.6293 70.1651 99.1381 69.3584 100.781 69.0313C102.423 68.7041 104.126 68.8712 105.674 69.5115C107.222 70.1517 108.545 71.2363 109.477 72.6283C110.408 74.0203 110.906 75.6572 110.908 77.3321C110.908 78.4457 110.688 79.5484 110.262 80.5773C109.836 81.6061 109.211 82.5409 108.424 83.3284C107.636 84.1158 106.702 84.7404 105.673 85.1666C104.644 85.5928 103.541 85.8121 102.428 85.8121Z" fill="white"/>
</svg>
