<svg width="120" height="120" viewBox="0 0 120 120" fill="none" xmlns="http://www.w3.org/2000/svg">
<path d="M88.4004 86.9958C88.5748 86.9958 88.7475 86.9614 88.9086 86.8947C89.0697 86.828 89.2161 86.7301 89.3394 86.6068C89.4628 86.4835 89.5606 86.3371 89.6273 86.176C89.694 86.0149 89.7284 85.8422 89.7284 85.6678V27.3638C89.7363 27.284 89.7363 27.2036 89.7284 27.1238C89.7114 27.048 89.69 26.9732 89.6644 26.8998V26.8358C89.6443 26.7844 89.6174 26.736 89.5844 26.6918L89.5444 26.6198C89.5011 26.5599 89.4529 26.5037 89.4004 26.4518L89.3284 26.3958L74.4084 11.5158L74.2644 11.4038L74.2004 11.3638L74.0564 11.2838H73.9924L73.7924 11.1958H73.7364H73.5284H31.7284C31.3762 11.1958 31.0384 11.3357 30.7894 11.5848C30.5403 11.8338 30.4004 12.1716 30.4004 12.5238V85.6678C30.4004 86.02 30.5403 86.3578 30.7894 86.6068C31.0384 86.8559 31.3762 86.9958 31.7284 86.9958H44.3044L37.6644 101.596C37.564 101.817 37.526 102.061 37.5545 102.302C37.583 102.543 37.677 102.771 37.8262 102.962C37.9755 103.154 38.1742 103.3 38.401 103.387C38.6277 103.473 38.8738 103.495 39.1124 103.452L45.8324 102.22L49.3124 108.108C49.4298 108.306 49.5973 108.471 49.798 108.584C49.9987 108.698 50.2257 108.757 50.4564 108.756H50.5284C50.7734 108.741 51.0095 108.659 51.2102 108.517C51.4109 108.376 51.5682 108.182 51.6644 107.956L58.0644 93.9238H58.8644H59.4884H60.2884L66.6884 107.956C66.7839 108.182 66.941 108.377 67.1418 108.519C67.3426 108.66 67.5791 108.742 67.8244 108.756H67.8964C68.1266 108.755 68.3527 108.695 68.5531 108.581C68.7534 108.468 68.9212 108.305 69.0404 108.108L72.5204 102.22L79.2404 103.452C79.4791 103.495 79.7251 103.473 79.9518 103.387C80.1786 103.3 80.3773 103.154 80.5266 102.962C80.6758 102.771 80.7698 102.543 80.7983 102.302C80.8268 102.061 80.7888 101.817 80.6884 101.596L73.6564 86.1798L73.9364 85.7238C75.5058 83.1979 76.4019 80.312 76.5393 77.3414C76.6767 74.3708 76.0508 71.4146 74.7214 68.7545C73.3919 66.0945 71.4032 63.8194 68.9449 62.1461C66.4865 60.4729 63.6405 59.4573 60.6782 59.1962C57.716 58.9351 54.7362 59.4373 52.0231 60.6547C49.3099 61.8722 46.9539 63.7644 45.1797 66.1508C43.4055 68.5373 42.2721 71.3385 41.8878 74.2874C41.5035 77.2362 41.8811 80.2343 42.9844 82.9958L43.5284 84.3558H33.0644V13.8198H72.1764V27.4198C72.1764 27.772 72.3163 28.1098 72.5654 28.3588C72.8144 28.6079 73.1522 28.7478 73.5044 28.7478H87.1044V84.3398H78.7844C78.5009 85.0416 78.1804 85.7279 77.8244 86.3958L78.1124 87.0198L88.4004 86.9958ZM50.2964 104.548L47.6484 100.06C47.5072 99.8263 47.2987 99.6409 47.0503 99.5282C46.8019 99.4154 46.5251 99.3804 46.2564 99.4278L41.1284 100.364L46.5284 88.5398L47.5364 89.4598C49.4568 91.1946 51.7383 92.4815 54.2164 93.2278L55.3124 93.5558L50.2964 104.548ZM77.2804 100.364L72.1444 99.4278C71.878 99.3804 71.6034 99.4155 71.3575 99.5285C71.1116 99.6414 70.906 99.8268 70.7684 100.06L68.1124 104.548L63.0964 93.5958L64.1924 93.2678C66.6713 92.5235 68.9532 91.2363 70.8724 89.4998L71.8804 88.5798L77.2804 100.364ZM59.2084 61.8198C62.1242 61.8214 64.974 62.6874 67.3975 64.3085C69.8211 65.9295 71.7097 68.2328 72.8244 70.927C73.9391 73.6213 74.2299 76.5856 73.6601 79.4451C73.0903 82.3046 71.6855 84.931 69.6232 86.9922C67.5609 89.0534 64.9337 90.4568 62.0739 91.0251C59.214 91.5933 56.2499 91.3009 53.5563 90.1847C50.8626 89.0685 48.5604 87.1787 46.9407 84.7543C45.3209 82.3298 44.4564 79.4795 44.4564 76.5638C44.4606 72.6534 46.0165 68.9044 48.7823 66.1401C51.5482 63.3757 55.298 61.8219 59.2084 61.8198ZM74.8324 26.0598V15.6598L85.1924 26.0598H74.8324Z" fill="white"/>
</svg>
