<svg width="120" height="120" viewBox="0 0 120 120" fill="none" xmlns="http://www.w3.org/2000/svg">
<path d="M101.143 25.172C95.9041 19.6375 88.7181 16.3571 81.1043 16.0241C73.4905 15.6912 66.0457 18.3319 60.3434 23.388C60.2841 23.4347 60.2108 23.4601 60.1354 23.4601C60.0599 23.4601 59.9866 23.4347 59.9273 23.388C55.4885 19.4496 49.9594 16.9505 44.0703 16.2206C38.1813 15.4907 32.2093 16.5644 26.9434 19.3C27.7828 19.9386 28.3738 20.8493 28.6153 21.876C33.316 19.502 38.6214 18.5951 43.8437 19.2726C49.0659 19.9502 53.9642 22.1811 57.9033 25.676C58.5194 26.2171 59.3114 26.5155 60.1314 26.5155C60.9513 26.5155 61.7432 26.2171 62.3593 25.676C67.4709 21.1457 74.1434 18.78 80.967 19.0786C87.7906 19.3771 94.231 22.3166 98.9274 27.276C101.968 30.519 104.127 34.4881 105.195 38.8036C106.264 43.119 106.208 47.6365 105.031 51.924H90.9993C90.8254 51.7443 90.6797 51.5393 90.5673 51.316L87.9514 45.316C87.7799 44.916 87.4948 44.5752 87.1315 44.3356C86.7681 44.0961 86.3425 43.9685 85.9073 43.9685C85.4722 43.9685 85.0465 44.0961 84.6832 44.3356C84.3199 44.5752 84.0348 44.916 83.8633 45.316L79.4554 57.316L76.2554 40.044C76.1669 39.5282 75.9011 39.0595 75.5041 38.7186C75.1071 38.3777 74.6037 38.186 74.0805 38.1765C73.5573 38.1671 73.0471 38.3404 72.638 38.6667C72.2289 38.993 71.9465 39.4518 71.8394 39.964L69.0554 51.492C68.9044 51.6771 68.7127 51.825 68.4953 51.924H57.7434C58.0222 52.9273 58.2332 53.9483 58.3753 54.98H68.5673C69.3395 54.9133 70.0756 54.6238 70.6863 54.1466C71.297 53.6694 71.756 53.0251 72.0073 52.292L73.9434 44.292L77.0153 60.764C77.0973 61.2513 77.338 61.6978 77.7001 62.0341C78.0622 62.3703 78.5253 62.5774 79.0174 62.623C79.5094 62.6687 80.0028 62.5503 80.4206 62.2864C80.8384 62.0225 81.1572 61.6279 81.3273 61.164L86.0073 48.42L87.8073 52.564C87.8553 52.668 88.9514 54.964 90.7273 54.964H104.039C102.678 58.3843 100.624 61.4865 98.0073 64.076L60.4073 101.444C60.3769 101.474 60.3407 101.499 60.3009 101.515C60.2611 101.532 60.2184 101.54 60.1753 101.54C60.1322 101.54 60.0896 101.532 60.0498 101.515C60.01 101.499 59.9738 101.474 59.9434 101.444L35.9434 77.604C34.0733 77.3692 32.2267 76.9758 30.4233 76.428L57.7913 103.628C58.4346 104.252 59.2954 104.6 60.1913 104.6C61.0873 104.6 61.948 104.252 62.5913 103.628L100.191 66.252C111.527 54.948 111.967 36.532 101.143 25.172Z" fill="white"/>
<path d="M47.7763 73.8598C48.7203 73.6118 49.6723 73.3158 50.6883 72.9398C50.7363 72.9398 50.7763 72.8918 50.8163 72.8758C51.8168 73.6454 52.626 74.6357 53.1811 75.7694C53.7361 76.903 54.022 78.1495 54.0163 79.4118C54.0163 79.817 54.1773 80.2057 54.4639 80.4922C54.7504 80.7788 55.1391 80.9398 55.5443 80.9398C55.9496 80.9398 56.3382 80.7788 56.6248 80.4922C56.9114 80.2057 57.0723 79.817 57.0723 79.4118C57.0811 77.7199 56.7047 76.0483 55.9715 74.5236C55.2382 72.9989 54.1675 71.6611 52.8403 70.6118C53.6107 69.0818 54.2116 67.4723 54.6323 65.8118C57.6883 52.8998 52.9603 43.6518 40.5843 38.3398C34.3763 35.6678 23.7843 32.0038 25.6403 23.2438C25.7095 22.9315 25.679 22.6053 25.5529 22.3112C25.4269 22.0172 25.2116 21.7701 24.9377 21.6049C24.6638 21.4396 24.3449 21.3645 24.026 21.3902C23.7071 21.4158 23.4043 21.5409 23.1602 21.7478C17.4162 26.5958 13.5603 31.0118 12.0243 38.0118C10.9767 42.5076 10.9273 47.1784 11.8796 51.6954C12.8319 56.2123 14.7628 60.4656 17.5363 64.1558C22.5123 70.9238 31.1363 74.8358 40.1123 74.8358C42.698 74.8363 45.2732 74.5083 47.7763 73.8598ZM20.0003 62.3478C17.4904 59.0028 15.7442 55.1484 14.8845 51.0558C14.0248 46.9632 14.0725 42.7319 15.0243 38.6598C16.1123 33.6438 18.6563 30.0678 22.4003 26.5238C23.2003 34.9398 32.8003 38.2998 39.3923 41.1398C50.5043 45.9398 54.4003 53.5318 51.6643 65.1398C51.3204 66.441 50.8571 67.7078 50.2803 68.9238C47.4403 67.3238 40.8563 63.2518 36.9203 57.9158C36.6806 57.589 36.3208 57.3709 35.9202 57.3094C35.5196 57.2479 35.111 57.348 34.7843 57.5878C34.4575 57.8275 34.2394 58.1873 34.1779 58.5879C34.1164 58.9884 34.2166 59.397 34.4563 59.7238C38.2163 64.8278 43.9843 68.7478 47.4243 70.8118L47.0083 70.9318C38.6403 73.1158 26.6243 71.3638 20.0003 62.3718V62.3478Z" fill="white"/>
</svg>
