<svg width="120" height="120" viewBox="0 0 120 120" fill="none" xmlns="http://www.w3.org/2000/svg">
<path d="M25.0884 58.4998V18.5718H38.3124V54.7398L49.2404 51.7078V18.5718H62.4644V47.9478L73.2644 44.9078V18.5718H86.4964V41.2678L109.8 34.7158V101.348H10.4004V62.6278L25.0884 58.4998ZM13.4324 64.8998V98.2758H106.76V38.7238L83.4644 45.2758V21.5958H76.4244V47.1958L59.4324 52.0678V21.5958H52.2724V53.9958L35.2804 58.8678V21.5958H28.2404V60.7958L13.4324 64.8998ZM99.0324 66.3558V76.3398H80.5524V66.3958L99.0324 66.3558ZM95.9924 69.3958H83.5844V73.2758H96.0004L95.9924 69.3958ZM71.5684 66.3958V76.3398H53.0004V66.3958H71.5684ZM68.5364 69.4358H56.1524V73.3158H68.5364V69.4358ZM44.1364 66.3958V76.3398H25.6004V66.3958H44.1364ZM40.9844 69.4358H28.7284V73.3158H40.9844V69.4358Z" fill="white"/>
</svg>
