<svg width="120" height="120" viewBox="0 0 120 120" fill="none" xmlns="http://www.w3.org/2000/svg">
<path d="M36.7507 95.1959C42.4864 100.912 50.1379 104.3 58.2259 104.703C66.3139 105.105 74.2641 102.495 80.5396 97.3772C86.8151 92.2589 90.9702 84.9958 92.2016 76.9919C93.433 68.988 91.6534 60.8118 87.2067 54.0439C87.2067 54.0439 87.2067 54.0438 87.2067 54.0039L61.3347 16.7958C61.1751 16.5544 60.9591 16.3554 60.7055 16.216C60.4518 16.0767 60.168 16.0011 59.8787 15.9958C59.5894 15.996 59.3048 16.0694 59.0516 16.2093C58.7984 16.3492 58.5848 16.551 58.4307 16.7958L32.5907 54.0039C32.5907 54.0039 32.5907 54.0039 32.5907 54.0439C28.4537 60.3381 26.609 67.8643 27.3666 75.3582C28.1241 82.8521 31.4377 89.8569 36.7507 95.1959ZM35.4947 55.9959L59.8787 20.8679L84.2627 55.9959C87.9556 61.6081 89.5997 68.3224 88.9177 75.0059C88.2356 81.6895 85.2691 87.9333 80.5186 92.6839C75.4059 97.7906 68.5807 100.819 61.3637 101.184C54.1466 101.549 47.0507 99.2247 41.4488 94.6599C35.8468 90.0952 32.1371 83.6148 31.0372 76.4728C29.9374 69.3307 31.5256 62.0345 35.4947 55.9959Z" fill="white"/>
<path d="M69.2233 89.8599C69.6006 89.8607 69.9672 89.7338 70.2633 89.4999C73.6048 87.0379 76.4223 83.9348 78.5513 80.3719C78.67 80.1734 78.7485 79.9534 78.7822 79.7245C78.8159 79.4956 78.8041 79.2624 78.7476 79.038C78.6912 78.8137 78.5911 78.6026 78.4531 78.417C78.3151 78.2313 78.1419 78.0746 77.9433 77.9559C77.7447 77.8372 77.5248 77.7588 77.2959 77.7251C77.067 77.6914 76.8337 77.7031 76.6094 77.7596C76.385 77.816 76.174 77.9161 75.9883 78.0541C75.8027 78.1921 75.646 78.3654 75.5273 78.5639C73.6417 81.7284 71.1452 84.486 68.1833 86.6759C67.8104 86.9576 67.5629 87.3744 67.4941 87.8367C67.4252 88.299 67.5406 88.7698 67.8153 89.1479C67.9771 89.3694 68.189 89.5494 68.4337 89.6731C68.6784 89.7969 68.949 89.8609 69.2233 89.8599Z" fill="white"/>
</svg>
