<svg width="1006" height="918" viewBox="0 0 1006 918" fill="none" xmlns="http://www.w3.org/2000/svg">
<path d="M11 307H273.5" stroke="#D9DCE2" stroke-linecap="round" stroke-dasharray="1 4"/>
<circle cx="4.5" cy="306.5" r="4" stroke="#D9DCE2"/>
<circle cx="280.5" cy="306.5" r="4" stroke="#D9DCE2"/>
<path d="M995 307H732.5" stroke="#D9DCE2" stroke-linecap="round" stroke-dasharray="1 4"/>
<circle r="4" transform="matrix(-1 0 0 1 1001.5 306.5)" stroke="#D9DCE2"/>
<circle r="4" transform="matrix(-1 0 0 1 725.5 306.5)" stroke="#D9DCE2"/>
<path d="M11 630H221" stroke="#D9DCE2" stroke-linecap="round" stroke-dasharray="1 4"/>
<circle cx="4.5" cy="629.5" r="4" stroke="#D9DCE2"/>
<circle cx="228.5" cy="629.5" r="4" stroke="#D9DCE2"/>
<path d="M995 630H785" stroke="#D9DCE2" stroke-linecap="round" stroke-dasharray="1 4"/>
<circle r="4" transform="matrix(-1 0 0 1 1001.5 629.5)" stroke="#D9DCE2"/>
<circle r="4" transform="matrix(-1 0 0 1 777.5 629.5)" stroke="#D9DCE2"/>
<path d="M66.5 4.5H329L417 153.5" stroke="#00CAFD" stroke-linecap="round" stroke-dasharray="1 4"/>
<circle cx="59.5" cy="4.5" r="4" stroke="#00CAFD"/>
<circle cx="420.5" cy="158.5" r="4" stroke="#00CAFD"/>
<path d="M939.5 4.5H677L589 153.5" stroke="#00CAFD" stroke-linecap="round" stroke-dasharray="1 4"/>
<circle r="4" transform="matrix(-1 0 0 1 946.5 4.5)" stroke="#00CAFD"/>
<circle r="4" transform="matrix(-1 0 0 1 585.5 158.5)" stroke="#00CAFD"/>
<path d="M79 913.5H253L341 764.5" stroke="#D9DCE2" stroke-linecap="round" stroke-dasharray="1 4"/>
<circle r="4" transform="matrix(1 0 0 -1 344.5 759.5)" stroke="#D9DCE2"/>
<circle r="4" transform="matrix(1 0 0 -1 71.5 913.5)" stroke="#D9DCE2"/>
<circle r="4" transform="matrix(1 0 0 -1 933.5 913.5)" stroke="#D9DCE2"/>
<path d="M927 913.5H753L665 764.5" stroke="#D9DCE2" stroke-linecap="round" stroke-dasharray="1 4"/>
<circle cx="661.5" cy="759.5" r="4" transform="rotate(-180 661.5 759.5)" stroke="#D9DCE2"/>
</svg>
