<svg width="121" height="120" viewBox="0 0 121 120" fill="none" xmlns="http://www.w3.org/2000/svg">
<path d="M53.59 13.06H67.6V16.77H68.65V12H52.54V16.77H53.59V13.06Z" fill="#00AFFF"/>
<path d="M67.5998 17.8301H53.5898V18.7401H67.5998V17.8301Z" fill="#00AFFF"/>
<path d="M67.5998 16.77H53.5898V17.68H67.5998V16.77Z" fill="#00AFFF"/>
<path d="M94.3403 38.57C94.3403 36.23 93.8003 37.33 92.7903 35.22C92.7903 35.22 68.6503 25.22 68.6503 22.22V18.76H67.6503V22.22C67.6503 23.45 68.6503 25.22 80.3203 30.81C85.4703 33.27 90.6803 35.48 92.0803 36.07C92.3277 36.5806 92.6666 37.0416 93.0803 37.43L93.2203 37.58C93.3029 37.9065 93.3299 38.2445 93.3003 38.58V40.06H28.5303V38.35C28.5209 38.0823 28.5376 37.8144 28.5803 37.55C29.0264 37.1919 29.3854 36.7371 29.6303 36.22C31.0103 35.63 36.1103 33.42 41.1403 30.98C53.5703 24.98 53.5703 23.42 53.5703 22.5V18.79H52.5403V22.5C52.5403 25.35 28.9203 35.35 28.9203 35.35C28.0003 37.35 27.5303 36.09 27.5303 38.35V41.13H94.3403V38.57Z" fill="#00AFFF"/>
<path d="M53.59 17.83H67.6V18.74H68.65V16.77H67.6V17.68H53.59V16.77H52.54V18.74H53.59V17.83Z" fill="#00AFFF"/>
<path d="M27.5 102.05C27.5065 102.931 27.6867 103.802 28.03 104.613C28.3734 105.424 28.8734 106.159 29.5012 106.777C30.1291 107.394 30.8726 107.882 31.6891 108.212C32.5057 108.542 33.3793 108.708 34.26 108.7H87.61C88.4902 108.708 89.3634 108.542 90.1794 108.212C90.9953 107.882 91.7382 107.394 92.3652 106.776C92.9923 106.158 93.4913 105.423 93.8336 104.612C94.1759 103.801 94.3548 102.93 94.36 102.05V75.4H27.5V102.05ZM28.56 76.46H93.31V102.05C93.2915 103.546 92.6816 104.974 91.6135 106.021C90.5454 107.069 89.106 107.651 87.61 107.64H34.26C32.7632 107.653 31.3223 107.072 30.2536 106.024C29.185 104.976 28.5758 103.547 28.56 102.05V76.46Z" fill="#00AFFF"/>
<path d="M64.7501 53.48C64.6716 53.3886 64.5729 53.3167 64.4618 53.2698C64.3508 53.223 64.2304 53.2025 64.1101 53.21C63.9879 53.2024 63.8656 53.2249 63.7541 53.2754C63.6425 53.326 63.545 53.4031 63.4701 53.5C63.3012 53.7393 63.1978 54.0185 63.1701 54.31C63.1135 54.731 63.0868 55.1553 63.0901 55.58C63.0901 56.04 63.0901 56.45 63.0901 56.81C63.1095 57.108 63.2022 57.3966 63.3601 57.65C63.4419 57.7583 63.5502 57.8438 63.6745 57.8981C63.7989 57.9524 63.9351 57.9737 64.0701 57.96C64.3013 57.9661 64.5275 57.892 64.7101 57.75C64.8555 57.6282 64.9834 57.4868 65.0901 57.33V55.15C65.0955 54.8144 65.0654 54.4792 65.0001 54.15C64.9687 53.9106 64.8833 53.6815 64.7501 53.48Z" fill="#00AFFF"/>
<path d="M27.5 43.4401V73.0601H94.36V43.4401H27.5ZM57.5 65.1201H54.92V54.1201C54.7894 54.193 54.6521 54.2532 54.51 54.3L53.94 54.5001L53.37 54.7L52.94 54.86V52.9401L53.49 52.67L54.23 52.3C54.49 52.16 54.73 52.01 54.96 51.86C55.1514 51.7322 55.3291 51.5847 55.49 51.42H57.49L57.5 65.1201ZM67.8 60.6301C67.8103 61.4367 67.7093 62.2409 67.5 63.02C67.3278 63.6856 66.9412 64.276 66.4 64.7C65.7316 65.1397 64.9385 65.3503 64.14 65.3C63.4522 65.3258 62.7677 65.1923 62.14 64.91C61.6444 64.6556 61.2547 64.2341 61.04 63.72C60.8008 63.1123 60.6852 62.463 60.7 61.8101V61.6H63.17C63.148 62.0375 63.2091 62.4752 63.35 62.89C63.47 63.17 63.74 63.3101 64.18 63.3101C64.297 63.3177 64.4142 63.2993 64.5232 63.256C64.6321 63.2128 64.7301 63.1459 64.81 63.0601C64.9859 62.8058 65.0896 62.5085 65.11 62.2C65.1778 61.6561 65.2079 61.1081 65.2 60.5601V59.16C65.0277 59.4107 64.7887 59.6081 64.51 59.73C64.1783 59.8731 63.8212 59.9479 63.46 59.95C62.8288 59.9899 62.2042 59.8018 61.7 59.42C61.2463 59.0313 60.919 58.516 60.76 57.9401C60.3746 56.4644 60.4023 54.9111 60.84 53.45C61.0266 52.8154 61.4036 52.2534 61.92 51.84C62.5649 51.4338 63.3187 51.2349 64.08 51.27C64.8227 51.236 65.5584 51.4277 66.19 51.82C66.7479 52.186 67.1724 52.7228 67.4 53.35C67.6618 54.0845 67.7872 54.8605 67.77 55.64L67.8 60.6301Z" fill="#00AFFF"/>
</svg>
