<svg width="121" height="120" viewBox="0 0 121 120" fill="none" xmlns="http://www.w3.org/2000/svg">
<path d="M66.11 23.1899H53.71V23.7799H66.11V23.1899Z" fill="#00AFFF"/>
<path d="M53.7101 19.09H66.1101V22.09H67.2101V18H52.6201V22.09H53.7101V19.09Z" fill="#00AFFF"/>
<path d="M88.88 46.81C88.8768 44.0115 88.011 41.2819 86.4005 38.9932C84.79 36.7045 82.5131 34.9679 79.88 34.02C73.19 31.55 67.19 28.26 67.19 26.75V23.75H66.11V26.75C66.11 30.04 78.18 34.55 79.56 35.05C81.9689 35.9347 84.049 37.536 85.5204 39.6385C86.9918 41.741 87.7839 44.2438 87.79 46.81V48.02H32.57V46.65C32.5781 44.071 33.3787 41.5568 34.8633 39.4479C36.3479 37.339 38.4448 35.7374 40.87 34.86C43.02 34.09 53.71 30.09 53.71 26.97V23.78H52.62V26.97C52.62 28.39 47.07 31.47 40.5 33.83C37.8637 34.7821 35.585 36.5239 33.9745 38.8181C32.364 41.1122 31.4999 43.847 31.5 46.65V49.12H88.9L88.88 46.81Z" fill="#00AFFF"/>
<path d="M66.11 22.09H53.71V22.68H66.11V22.09Z" fill="#00AFFF"/>
<path d="M53.7101 23.18H66.1101V23.78H67.2101V22.09H66.1101V22.69H53.7101V22.09H52.6201V23.78H53.7101V23.18Z" fill="#00AFFF"/>
<path d="M31.5 91.46C31.4987 92.8752 31.7763 94.2767 32.317 95.5846C32.8576 96.8924 33.6507 98.0809 34.6509 99.082C35.6511 100.083 36.8389 100.877 38.1462 101.419C39.4535 101.961 40.8548 102.24 42.27 102.24H78.12C79.536 102.241 80.9384 101.963 82.2469 101.422C83.5554 100.881 84.7443 100.087 85.7455 99.0855C86.7468 98.0843 87.5408 96.8954 88.0821 95.5869C88.6234 94.2784 88.9013 92.876 88.9 91.46V81.01H31.5V91.46ZM32.59 82.12H87.81V91.48C87.7942 94.0404 86.7666 96.4908 84.9514 98.2967C83.1361 100.103 80.6805 101.117 78.12 101.12H42.27C39.7026 101.115 37.242 100.092 35.4275 98.2754C33.613 96.4591 32.5926 93.9974 32.59 91.43V82.12Z" fill="#00AFFF"/>
<path d="M31.5 51.12V79H88.9V51.12H31.5ZM63.5 70.77C63.3096 71.4644 62.8947 72.0762 62.32 72.51C61.6522 72.9609 60.8543 73.1788 60.05 73.13C59.2752 73.1638 58.5093 72.954 57.86 72.53C57.2849 72.116 56.849 71.5371 56.61 70.87C56.3391 70.1028 56.207 69.2935 56.22 68.48V63.43C56.2107 62.5925 56.3185 61.7577 56.54 60.95C56.7244 60.2633 57.1283 59.6558 57.69 59.22C58.3819 58.7546 59.2077 58.5297 60.04 58.58C60.7605 58.5478 61.4779 58.692 62.13 59C62.6089 59.2731 62.9823 59.6993 63.19 60.21C63.4422 60.8457 63.5613 61.5264 63.54 62.21V62.44H61.04C61.0586 61.9903 61.0011 61.5406 60.87 61.11C60.75 60.82 60.47 60.67 60.02 60.67C59.8993 60.664 59.7788 60.6842 59.6666 60.7291C59.5544 60.7739 59.4533 60.8425 59.37 60.93C59.1772 61.189 59.0627 61.4979 59.04 61.82C58.9619 62.3832 58.9285 62.9516 58.94 63.52V64.98C59.1055 64.7084 59.3547 64.4979 59.65 64.38C60.0029 64.2364 60.3791 64.1585 60.76 64.15C61.397 64.0996 62.0313 64.2768 62.55 64.65C63.0242 65.0277 63.3729 65.5402 63.55 66.12C63.7497 66.8053 63.8474 67.5162 63.84 68.23C63.8477 69.0906 63.7229 69.9473 63.47 70.77H63.5Z" fill="#00AFFF"/>
<path d="M60.7798 66.52C60.6901 66.4073 60.5735 66.3189 60.4407 66.263C60.3079 66.2071 60.1631 66.1854 60.0198 66.2C59.8609 66.1984 59.7037 66.2326 59.5598 66.3C59.2948 66.4046 59.0753 66.5994 58.9398 66.85V69.12C58.9356 69.456 58.9692 69.7915 59.0398 70.12C59.0847 70.3927 59.2021 70.6483 59.3798 70.86C59.4645 70.9552 59.5697 71.0299 59.6875 71.0784C59.8053 71.1269 59.9326 71.1479 60.0598 71.14C60.186 71.148 60.3122 71.1249 60.4273 71.0725C60.5424 71.0202 60.6429 70.9403 60.7198 70.84C60.8808 70.5865 60.9802 70.2988 61.0098 70C61.0711 69.5661 61.0979 69.1281 61.0898 68.69C61.0898 68.2 61.0898 67.77 61.0898 67.4C61.0716 67.0833 60.9642 66.7782 60.7798 66.52Z" fill="#00AFFF"/>
</svg>
