<svg width="121" height="120" viewBox="0 0 121 120" fill="none" xmlns="http://www.w3.org/2000/svg">
<path d="M63.16 25.12V27.45H57.33V25.12H63.16ZM64.28 24H56.21V28.57H64.28V24Z"/>
<path d="M63.16 28.35V30.92C63.1597 33.1348 63.6551 35.3216 64.61 37.32L69.36 47.26C69.5786 47.7468 69.8874 48.1879 70.27 48.56C70.2801 48.7198 70.2801 48.8801 70.27 49.04V49.64H50.62V48.87C50.62 48.71 50.62 48.61 50.62 48.53C50.9988 48.2003 51.2995 47.7904 51.5 47.33L56.04 37.14C56.8907 35.233 57.3303 33.1681 57.33 31.08V28.35H63.16ZM64.28 27.23H56.21V31.08C56.2095 33.0136 55.8006 34.9253 55.01 36.69L50.44 46.87C49.82 48.26 49.5 47.37 49.5 48.87V50.76H71.42V49.05C71.42 47.47 71.06 48.21 70.37 46.78L65.62 36.84C64.7389 34.9908 64.2811 32.9684 64.28 30.92V27.23Z"/>
<path d="M70.31 75.15V91C70.31 92.1944 69.8362 93.34 68.9926 94.1855C68.149 95.031 67.0044 95.5074 65.81 95.51H55.06C53.8868 95.5074 52.7626 95.0395 51.934 94.209C51.1054 93.3785 50.64 92.2532 50.64 91.08V75.15H70.31ZM71.44 74H49.5V91C49.5 92.4702 50.0834 93.8804 51.122 94.9209C52.1607 95.9615 53.5698 96.5474 55.04 96.55H65.81C67.2878 96.545 68.7049 95.9612 69.7573 94.9237C70.8098 93.8862 71.4139 92.4776 71.44 91V74Z"/>
<path d="M49.5 52.35V72.45H71.44V52.35H49.5ZM56.5 68.88H54.26V59.17C54.1447 59.2403 54.0202 59.2941 53.89 59.33L53.39 59.51L52.89 59.69L52.5 59.83V58.13L52.99 57.89L53.64 57.56C53.8636 57.4418 54.0805 57.3116 54.29 57.17C54.457 57.0566 54.6142 56.9295 54.76 56.79H56.56L56.5 68.88ZM60.5 68.88H58.38V66.69H60.5V68.88ZM67.7 66.44C67.6382 66.9319 67.482 67.4073 67.24 67.84C67.006 68.2396 66.6577 68.56 66.24 68.76C65.7171 69.0001 65.1449 69.1131 64.57 69.09C63.8918 69.1346 63.2159 68.9743 62.63 68.63C62.1777 68.3207 61.8513 67.8594 61.71 67.33C61.5272 66.6795 61.4429 66.0054 61.46 65.33H63.69C63.6865 65.7015 63.7132 66.0728 63.77 66.44C63.7976 66.6892 63.9025 66.9235 64.07 67.11C64.1565 67.1902 64.2595 67.2506 64.3718 67.2868C64.4841 67.3231 64.6029 67.3344 64.72 67.32C64.8446 67.3242 64.9682 67.296 65.0786 67.2382C65.189 67.1803 65.2825 67.0948 65.35 66.99C65.4893 66.7131 65.5678 66.4097 65.58 66.1C65.58 65.71 65.63 65.25 65.63 64.72C65.6322 64.3418 65.6055 63.964 65.55 63.59C65.5224 63.3093 65.4225 63.0405 65.26 62.81C65.1815 62.7126 65.0802 62.6361 64.9651 62.5873C64.85 62.5384 64.7246 62.5187 64.6 62.53C64.4748 62.5263 64.3503 62.5494 64.2348 62.5976C64.1192 62.6459 64.0153 62.7183 63.93 62.81C63.7372 63.0437 63.6065 63.3223 63.55 63.62H61.55L61.72 56.75H67.27V58.75H63.68L63.55 61.43C63.7134 61.2509 63.92 61.1166 64.15 61.04C64.4446 60.9266 64.7549 60.8591 65.07 60.84C65.6168 60.7598 66.1737 60.8883 66.63 61.2C67.069 61.5311 67.3912 61.9935 67.55 62.52C67.7653 63.2089 67.8666 63.9284 67.85 64.65C67.8543 65.2488 67.8142 65.8471 67.73 66.44H67.7Z"/>
</svg>
