<svg width="121" height="120" viewBox="0 0 121 120" fill="none" xmlns="http://www.w3.org/2000/svg">
<path d="M57.5106 34.12H63.8406V36.44H64.9606V33H56.3906V36.44H57.5106V34.12Z" fill="#00AFFF"/>
<path d="M63.8398 37.5601H57.5098V37.8601H63.8398V37.5601Z" fill="#00AFFF"/>
<path d="M63.8398 36.4399H57.5098V36.7399H63.8398V36.4399Z" fill="#00AFFF"/>
<path d="M71.3 52.14C71.3 50.46 68.87 46.64 68.87 46.64C67.93 44.64 64.96 42.52 64.96 40.35V37.85H63.84V40.37C63.84 42.11 65.1 43.6 66.31 45.04C66.9218 45.6693 67.4587 46.3673 67.91 47.12V47.19C68.81 48.62 70.16 51.19 70.16 52.09V52.8H51.63V51.91C51.63 51.01 52.78 48.48 53.63 46.97C54.0475 46.2426 54.5548 45.5707 55.14 44.97C56.24 43.7 57.49 42.26 57.49 40.6V37.85H56.39V40.53C56.39 42.6 53.46 44.59 52.62 46.53C52.62 46.53 50.5 50.41 50.5 52.01V54.01H71.3V52.14Z" fill="#00AFFF"/>
<path d="M57.5106 37.5599H63.8406V37.8499H64.9606V36.4399H63.8406V36.7299H57.5106V36.4399H56.3906V37.8499H57.5106V37.5599Z" fill="#00AFFF"/>
<path d="M50.5205 82.9499C50.5257 83.5842 50.6559 84.2113 50.9034 84.7953C51.151 85.3793 51.5112 85.9088 51.9634 86.3536C52.4156 86.7984 52.9511 87.1498 53.5391 87.3876C54.1271 87.6255 54.7562 87.7452 55.3905 87.7399H66.4505C67.0848 87.7452 67.7139 87.6255 68.3019 87.3876C68.89 87.1498 69.4254 86.7984 69.8776 86.3536C70.3298 85.9088 70.69 85.3793 70.9376 84.7953C71.1852 84.2113 71.3153 83.5842 71.3205 82.9499V78.6799H50.5205V82.9499ZM51.6405 79.7999H70.1905V82.9499C70.1799 83.9322 69.7803 84.8701 69.0792 85.5581C68.3781 86.2461 67.4328 86.6279 66.4505 86.6199H55.3905C54.4073 86.628 53.4609 86.2464 52.7582 85.5587C52.0556 84.871 51.6537 83.9331 51.6405 82.9499V79.7999Z" fill="#00AFFF"/>
<path d="M50.5205 55.65V77H71.3205V55.65H50.5205ZM58.1105 69.24C58.1264 69.8487 58.0068 70.4532 57.7605 71.01C57.5443 71.5124 57.1774 71.9352 56.7105 72.22C56.1864 72.5248 55.5863 72.674 54.9805 72.65C54.362 72.6745 53.7489 72.5256 53.2105 72.22C52.7639 71.9255 52.4156 71.5041 52.2105 71.01C51.9607 70.454 51.8378 69.8494 51.8505 69.24V63.95C51.8407 63.3299 51.9563 62.7143 52.1905 62.14C52.3906 61.6403 52.7398 61.2143 53.1905 60.92C53.7378 60.6085 54.3612 60.4562 54.9905 60.48C55.6103 60.4559 56.2242 60.6085 56.7605 60.92C57.2087 61.2172 57.5571 61.6422 57.7605 62.14C57.9913 62.715 58.1035 63.3306 58.0905 63.95L58.1105 69.24ZM61.4205 72.45H59.3205V70.31H61.4205V72.45ZM68.4205 70.07C68.3547 70.5502 68.2023 71.0144 67.9705 71.44C67.7319 71.8285 67.384 72.1381 66.9705 72.33C66.461 72.5667 65.9017 72.6765 65.3405 72.65C64.6796 72.6931 64.0211 72.5363 63.4505 72.2C63.0077 71.8985 62.6882 71.4477 62.5505 70.93C62.3801 70.308 62.2993 69.6649 62.3105 69.02H64.4805C64.4769 69.3816 64.5036 69.7429 64.5605 70.1C64.5908 70.3436 64.6916 70.573 64.8505 70.76C64.936 70.8383 65.0376 70.8967 65.1482 70.9313C65.2588 70.9659 65.3757 70.9757 65.4905 70.96C65.6113 70.9648 65.7312 70.9378 65.8383 70.8816C65.9454 70.8254 66.0358 70.7421 66.1005 70.64C66.2461 70.3728 66.325 70.0743 66.3305 69.77C66.3305 69.39 66.3305 68.94 66.3305 68.43C66.3665 68.0779 66.3765 67.7236 66.3605 67.37C66.3298 67.0978 66.2337 66.8371 66.0805 66.61C66.0019 66.5154 65.9021 66.4407 65.7891 66.3921C65.6761 66.3434 65.5533 66.3221 65.4305 66.33C65.3086 66.3285 65.1877 66.3527 65.0757 66.4009C64.9638 66.4492 64.8632 66.5204 64.7805 66.61C64.5928 66.8381 64.4656 67.1098 64.4105 67.4H62.4905L62.6505 60.69H68.0705V62.63H64.5005L64.3705 65.24C64.5317 65.0653 64.7348 64.9345 64.9605 64.86C65.2449 64.7489 65.5455 64.6848 65.8505 64.67C66.3862 64.5937 66.9313 64.7183 67.3805 65.02C67.8067 65.3445 68.1185 65.7964 68.2705 66.31C68.4801 66.976 68.5781 67.6721 68.5605 68.37C68.5652 68.9386 68.5284 69.5068 68.4505 70.07H68.4205Z" fill="#00AFFF"/>
<path d="M55.5606 62.7199C55.4936 62.6313 55.4053 62.561 55.3039 62.5155C55.2026 62.4701 55.0913 62.4509 54.9806 62.4599C54.8684 62.4511 54.7558 62.4702 54.6528 62.5156C54.5498 62.5609 54.4597 62.6312 54.3906 62.7199C54.2668 62.8995 54.1848 63.1045 54.1506 63.3199C54.1197 63.5453 54.103 63.7724 54.1006 63.9999V69.1999C54.1021 69.4113 54.1222 69.6221 54.1606 69.8299C54.1917 70.0448 54.2778 70.2481 54.4106 70.4199C54.4783 70.5046 54.5655 70.5716 54.6648 70.6151C54.7641 70.6587 54.8724 70.6775 54.9806 70.6699C55.0889 70.6793 55.1979 70.6613 55.2975 70.6176C55.397 70.5739 55.4841 70.506 55.5506 70.4199C55.6686 70.242 55.7471 70.0408 55.7806 69.8299C55.819 69.6221 55.8391 69.4113 55.8406 69.1999V63.9999C55.8547 63.7735 55.8547 63.5464 55.8406 63.3199C55.7948 63.101 55.6989 62.8957 55.5606 62.7199Z" fill="#00AFFF"/>
</svg>
